STARTFONT 2.3
FONT -FontForge-Roboto Condensed-Book-R-Condensed---32-320-72-72-P-158-ISO10646-1
SIZE 32 72 72  4
FONTBOUNDINGBOX 56 41 -24 -8
COMMENT "Generated by fontforge, http://fontforge.sourceforge.net"
COMMENT "Copyright 2011 Google Inc. All Rights Reserved."
STARTPROPERTIES 42
FOUNDRY "FontForge"
FAMILY_NAME "Roboto Condensed"
WEIGHT_NAME "Book"
SLANT "R"
SETWIDTH_NAME "Condensed"
ADD_STYLE_NAME ""
PIXEL_SIZE 32
POINT_SIZE 320
RESOLUTION_X 72
RESOLUTION_Y 72
SPACING "P"
AVERAGE_WIDTH 158
CHARSET_REGISTRY "ISO10646"
CHARSET_ENCODING "1"
FONTNAME_REGISTRY ""
CHARSET_COLLECTIONS "ISO8859-2 ISO8859-5 ISO8859-7 ISO8859-9 ISO8859-4 ISO10646-1"
BITS_PER_PIXEL 4
FONT_NAME "RobotoCondensed-Regular"
FACE_NAME "Roboto Condensed"
COPYRIGHT "Copyright 2011 Google Inc. All Rights Reserved."
FONT_VERSION "2.137; 2017"
FONT_ASCENT 24
FONT_DESCENT 8
UNDERLINE_POSITION -3
UNDERLINE_THICKNESS 2
X_HEIGHT 16
CAP_HEIGHT 22
DEFAULT_CHAR 1
RAW_ASCENT 750
RAW_DESCENT 250
NORM_SPACE 7
RELATIVE_WEIGHT 40
RELATIVE_SETWIDTH 50
SUPERSCRIPT_X 0
SUPERSCRIPT_Y 15
SUPERSCRIPT_SIZE 20
SUBSCRIPT_X 0
SUBSCRIPT_Y 4
SUBSCRIPT_SIZE 20
FIGURE_WIDTH 16
AVG_LOWERCASE_WIDTH 153
AVG_UPPERCASE_WIDTH 184
ENDPROPERTIES
CHARS 1296
STARTCHAR uni0000
ENCODING 0
SWIDTH 0 0
DWIDTH 0 0
BBX 1 1 0 0
BITMAP
00
ENDCHAR
STARTCHAR uni0002
ENCODING 2
SWIDTH 0 0
DWIDTH 0 0
BBX 1 1 0 0
BITMAP
00
ENDCHAR
STARTCHAR uni000D
ENCODING 13
SWIDTH 229 0
DWIDTH 7 0
BBX 1 1 0 0
BITMAP
00
ENDCHAR
STARTCHAR space
ENCODING 32
SWIDTH 229 0
DWIDTH 7 0
BBX 1 1 0 0
BITMAP
00
ENDCHAR
STARTCHAR exclam
ENCODING 33
SWIDTH 245 0
DWIDTH 8 0
BBX 4 23 2 0
BITMAP
7FF6
7FF6
7FF6
7FF5
7FF5
7FF5
6FF5
6FF5
6FF4
6FF4
6FF4
5FF4
5FF4
5FF3
5FF3
5FF3
2661
0000
0000
0230
5FF5
8FF8
3DD3
ENDCHAR
STARTCHAR quotedbl
ENCODING 34
SWIDTH 319 0
DWIDTH 10 0
BBX 7 8 2 16
BITMAP
DF50AF80
DF50AF80
DF50AF80
DF30AF70
DF20AF50
DF10AF40
DF00AF30
DE00AF20
ENDCHAR
STARTCHAR numbersign
ENCODING 35
SWIDTH 547 0
DWIDTH 18 0
BBX 15 23 2 0
BITMAP
000004FC000EF200
000007FA002FE000
00000AF7005FC000
00000CF4008F9000
00000FF100AF6000
00003FE000DF4000
0EFFFFFFFFFFFFA0
0EFFFFFFFFFFFFA0
0233BF8337FC3320
0000DF4008F90000
0000FF100AF60000
0002FE000DF40000
0005FC000FF20000
0007F9002FE00000
EFFFFFFFFFFFFB00
EFFFFFFFFFFFFB00
222FF422BF822100
002FF000CF500000
004FC000EF200000
006FA002FF000000
009F8004FD000000
00BF5006FA000000
00DF3009F8000000
ENDCHAR
STARTCHAR dollar
ENCODING 36
SWIDTH 493 0
DWIDTH 16 0
BBX 14 30 1 -3
BITMAP
00000067200000
000000DF500000
000000DF500000
000000DF500000
00007DFFE92000
001CFFFFFFE200
009FFE98DFFC00
02FFE1001CFF40
05FF700005FF90
07FF500001FFC0
07FF500000EFD0
06FF8000003430
02FFE200000000
00AFFE60000000
001DFFFD710000
0001AFFFFE6000
000003AFFFF800
00000002AFFF40
0000000009FFA0
0000000001EFE0
3EE8000000BFF1
2FFA000000CFF1
0EFE000001EFE0
0AFF700009FF90
03FFFB78CFFF20
005FFFFFFFF500
0003AEFFD92000
000003FF000000
000003FF000000
000003FF000000
ENDCHAR
STARTCHAR percent
ENCODING 37
SWIDTH 632 0
DWIDTH 20 0
BBX 18 23 1 0
BITMAP
004CFD700000000000
04FFEFF80000000000
0DF703EF20003A1000
3FE0009F7000BF5000
5FB0007F9004FC0000
5FA0006F900CF40000
4FB0007F904FC00000
3FD0009F70CF400000
0DF703EF35FB000000
04FFEFF90DF3000000
004CFD706FA0000000
00000000DF30000000
00000006FA03BEE910
0000000DF22EFEFFB0
0000007F90AFA02DF5
000001EF20FF1006FA
000007F902FE0004FC
00001EE102FD0003FC
00008F8002FE0004FC
0001EE1000EF1006FA
0000770000AFA02DF6
00000000002EFEFFB0
000000000003BEE910
ENDCHAR
STARTCHAR ampersand
ENCODING 38
SWIDTH 543 0
DWIDTH 17 0
BBX 16 23 1 0
BITMAP
00005CEEC5000000
0009FFFFFF800000
004FFE87EFF30000
00AFF5002FF90000
00CFE0000DFB0000
00DFD0000DFA0000
00BFF1003FF70000
007FF802DFE10000
001EFF5EFF500000
0006FFFFE5000000
0000DFFE30000000
000AFFFF30000000
00AFFCFFD1005A90
07FFA09FF9009FD0
0EFE101DFF50BFC0
4FF80003FFE2EF90
5FF600008FFDFF50
5FF700000CFFFE10
2FFB000002EFF800
0CFF500005FFFC00
04FFF967BFFFFF70
006FFFFFFFD5EFF2
00029DFEC7107FFC
ENDCHAR
STARTCHAR quotesingle
ENCODING 39
SWIDTH 174 0
DWIDTH 6 0
BBX 3 7 1 17
BITMAP
6FE0
6FE0
6FE0
6FD0
6FC0
6FB0
6FA0
ENDCHAR
STARTCHAR parenleft
ENCODING 40
SWIDTH 313 0
DWIDTH 10 0
BBX 8 33 2 -7
BITMAP
00000290
00001DF1
0000BFA0
0006FD10
001EF500
009FC000
01EF6000
06FF1000
0CFC0000
1FF80000
5FF50000
8FF20000
BFF00000
CFE00000
EFD00000
EFC00000
FFC00000
EFC00000
DFD00000
CFE00000
AFF00000
7FF20000
4FF50000
1FF80000
0CFB0000
06FF1000
01FF6000
008FC000
001EF400
0007FD00
0000CF90
00002DF1
000002A0
ENDCHAR
STARTCHAR parenright
ENCODING 41
SWIDTH 318 0
DWIDTH 10 0
BBX 8 33 0 -7
BITMAP
09200000
1FE20000
08FC0000
00DF8000
005FF200
000DF900
0007FF20
0002FF70
0000CFC0
00008FF2
00005FF5
00002FF8
00000FFB
00000DFD
00000DFD
00000CFE
00000BFF
00000CFE
00000CFE
00000DFD
00000FFB
00001FF8
00004FF5
00007FF2
0000BFC0
0001EF70
0005FF20
000BF900
003FF200
00CF8000
08FC0000
1FE20000
09200000
ENDCHAR
STARTCHAR asterisk
ENCODING 42
SWIDTH 430 0
DWIDTH 14 0
BBX 14 14 0 9
BITMAP
000004FF200000
000003FF100000
000003FF100000
020003FF000020
1FC712FF027DD0
6FFFFBFFBFFFF2
16BEFFFFFFE951
00015FFFC30000
00009FEFF40000
0005FF4BFE1000
002EF902EFB000
00BFE1006FF600
002B50000B9000
00000000010000
ENDCHAR
STARTCHAR plus
ENCODING 43
SWIDTH 496 0
DWIDTH 16 0
BBX 14 17 1 2
BITMAP
000004AA300000
000007FF500000
000007FF500000
000007FF500000
000007FF500000
000007FF500000
000007FF500000
AFFFFFFFFFFFF7
AFFFFFFFFFFFF7
7BBBBDFFCBBBB5
000007FF500000
000007FF500000
000007FF500000
000007FF500000
000007FF500000
000007FF500000
000006EE400000
ENDCHAR
STARTCHAR comma
ENCODING 44
SWIDTH 196 0
DWIDTH 6 0
BBX 5 9 0 -5
BITMAP
006650
00FFC0
00FFC0
01FFB0
02FF90
06FF50
0CFD00
5FF500
098000
ENDCHAR
STARTCHAR hyphen
ENCODING 45
SWIDTH 248 0
DWIDTH 8 0
BBX 8 3 0 8
BITMAP
4FFFFFF3
4FFFFFF3
15555551
ENDCHAR
STARTCHAR period
ENCODING 46
SWIDTH 263 0
DWIDTH 8 0
BBX 4 4 2 0
BITMAP
0550
8FF9
BFFC
4EE5
ENDCHAR
STARTCHAR slash
ENCODING 47
SWIDTH 370 0
DWIDTH 12 0
BBX 11 25 0 -2
BITMAP
00000000AFA0
00000001FF50
00000005FE10
0000000AFA00
0000000EF500
0000004FF100
0000009FB000
000000EF6000
000004FF1000
000009FC0000
00000DF70000
00003FF20000
00008FC00000
0000DF700000
0002FF300000
0007FD000000
000CF8000000
002FF3000000
007FD0000000
00BF90000000
01FF40000000
06FE00000000
0BF900000000
1FF500000000
5FE000000000
ENDCHAR
STARTCHAR zero
ENCODING 48
SWIDTH 493 0
DWIDTH 16 0
BBX 13 23 1 0
BITMAP
00018DEEC60000
001DFFFFFFB000
00BFFC67DFF800
04FFB0001DFE10
09FF300006FF50
0CFE000002FF90
0FFB000000EFC0
2FF9000000DFD0
2FF8000000CFE0
3FF8000000CFF0
3FF8000000CFF0
3FF8000000CFF0
3FF8000000CFF0
3FF8000000CFF0
2FF9000000CFE0
1FF9000000DFD0
0EFB000000EFB0
0CFE000002FF90
08FF400007FF50
03FFB0001DFE10
00BFFC67DFF800
001DFFFFFFB000
00017CEEC60000
ENDCHAR
STARTCHAR one
ENCODING 49
SWIDTH 493 0
DWIDTH 16 0
BBX 9 23 2 0
BITMAP
0000028E10
0004AFFF10
16DFFFFF10
8FFFDDFF10
8FB50BFF10
43000BFF10
00000BFF10
00000BFF10
00000BFF10
00000BFF10
00000BFF10
00000BFF10
00000BFF10
00000BFF10
00000BFF10
00000BFF10
00000BFF10
00000BFF10
00000BFF10
00000BFF10
00000BFF10
00000BFF10
00000BFF10
ENDCHAR
STARTCHAR two
ENCODING 50
SWIDTH 493 0
DWIDTH 16 0
BBX 14 23 1 0
BITMAP
00029DFEC71000
005FFFFFFFC100
03FFFA67DFFB00
0CFF40001DFF40
3FFA000007FF80
6FF6000003FFA0
7FF4000002FFA0
0000000003FF80
0000000007FF40
000000000DFD00
000000006FF600
00000002EFD000
0000000CFF4000
0000008FF80000
000005FFC00000
00002EFE200000
0000CFF4000000
0009FF80000000
005FFB00000000
02EFE100000000
0CFF9555555553
3FFFFFFFFFFFF8
3FFFFFFFFFFFF8
ENDCHAR
STARTCHAR three
ENCODING 51
SWIDTH 493 0
DWIDTH 16 0
BBX 13 23 1 0
BITMAP
00039DFEB50000
006FFFFFFFA000
04FFF968EFF700
0CFF40002EFE00
2FFB000009FF30
4FF8000006FF50
1442000006FF60
0000000008FF40
000000001EFD00
00000014CFF500
0000AFFFFE6000
0000AFFFFD5000
00003569EFF600
000000002DFF10
0000000006FF70
0000000002FF90
2551000001FFA0
6FF6000002FF90
4FF9000006FF60
0EFF30001DFF20
06FFE867DFF800
008FFFFFFF9000
0004AEFEB50000
ENDCHAR
STARTCHAR four
ENCODING 52
SWIDTH 493 0
DWIDTH 16 0
BBX 15 23 0 0
BITMAP
000000000DFF4000
000000006FFF4000
00000001EFFF4000
00000008FFFF4000
0000001EFDFF4000
0000009FD8FF4000
000002FF67FF4000
00000AFD07FF4000
00003FF607FF4000
0000BFD007FF4000
0004FF5007FF4000
000CFC0007FF4000
005FF40007FF4000
00DFC00007FF4000
07FF400007FF4000
0EFFFFFFFFFFFFC0
1FFFFFFFFFFFFFC0
055555555AFF8540
0000000007FF4000
0000000007FF4000
0000000007FF4000
0000000007FF4000
0000000007FF4000
ENDCHAR
STARTCHAR five
ENCODING 53
SWIDTH 493 0
DWIDTH 16 0
BBX 13 23 2 0
BITMAP
02FFFFFFFFFC00
03FFFFFFFFFC00
04FFBAAAAAA800
06FF3000000000
07FF2000000000
08FF0000000000
09FE0000000000
0BFD0000000000
0CFC6CEEB40000
0DFFFFFFFF6000
0FFFEAAEFFF300
09DA1001BFFB00
000000001EFF10
0000000009FF40
0000000006FF60
0000000005FF70
3440000006FF60
9FF1000008FF40
6FF500000DFF10
1FFD10006FFA00
08FFD86AFFF200
00AFFFFFFF5000
0005BEFD920000
ENDCHAR
STARTCHAR six
ENCODING 54
SWIDTH 493 0
DWIDTH 16 0
BBX 13 23 2 0
BITMAP
000005ADE70000
0003DFFFF70000
003EFFEA830000
01DFF910000000
07FF8000000000
0DFD0000000000
3FF70000000000
7FF30000000000
AFF17DFEA30000
BFECFFFFFF4000
DFFFE97BFFE100
EFFD2000AFF800
EFF400002FFD00
EFD000000BFF10
EFD0000009FF20
DFE0000008FF30
BFF0000009FF20
8FF400000BFF10
4FFA00002FFC00
0CFF40009FF600
04FFE86BFFD000
006FFFFFFD2000
0004AEFD810000
ENDCHAR
STARTCHAR seven
ENCODING 55
SWIDTH 493 0
DWIDTH 16 0
BBX 14 23 1 0
BITMAP
AFFFFFFFFFFFF6
AFFFFFFFFFFFF5
4666666666CFF1
0000000000EFA0
0000000005FF50
000000000BFE00
000000002FF900
000000007FF300
00000000DFD000
00000003FF7000
00000009FF2000
0000001EFB0000
0000006FF60000
000000BFF10000
000002FFA00000
000008FF400000
00000DFE000000
00004FF8000000
0000AFF3000000
0001EFC0000000
0006FF70000000
000CFF20000000
002FFB00000000
ENDCHAR
STARTCHAR eight
ENCODING 56
SWIDTH 493 0
DWIDTH 16 0
BBX 13 23 1 0
BITMAP
00018DEEC60000
002DFFFFFFB000
00CFFC67DFF900
05FFC0002EFF10
09FF400008FF50
0BFF100005FF70
0BFF100004FF70
09FF300006FF50
04FF80000CFE10
00BFF6119FF700
001CFFFFFF9000
0008FFFFFE4000
00AFFA67DFF600
06FF80000CFF20
0CFE100003FF90
1FFA000000EFC0
2FF9000000CFE0
2FFA000000EFE0
0EFD000002FFB0
0AFF60000AFF60
02EFFA66BFFD10
004EFFFFFFD200
00029DFEC71000
ENDCHAR
STARTCHAR nine
ENCODING 57
SWIDTH 493 0
DWIDTH 16 0
BBX 13 23 1 0
BITMAP
00029DFD920000
003EFFFFFE4000
01EFFA7AFFE200
08FF70008FF900
0EFE00000DFE10
2FF9000008FF40
4FF7000004FF70
5FF5000002FF90
5FF6000001FFA0
4FF8000001FFB0
1FFC000005FFA0
0CFF30001DFFA0
06FFD414DFFF90
00BFFFFFFCFF80
001AFFFF93FF70
0000255205FF40
0000000008FF10
000000000EFB00
000000008FF500
00000018FFC000
00048AEFFD2000
000AFFFFB20000
000AEC94000000
ENDCHAR
STARTCHAR colon
ENCODING 58
SWIDTH 233 0
DWIDTH 7 0
BBX 4 18 2 0
BITMAP
0550
9FF8
CFFB
5EE4
0000
0000
0000
0000
0000
0000
0000
0000
0000
0000
0550
9FF8
CFFB
5ED4
ENDCHAR
STARTCHAR semicolon
ENCODING 59
SWIDTH 202 0
DWIDTH 6 0
BBX 6 23 0 -5
BITMAP
002630
01EFF3
02FFF5
00AEB1
000000
000000
000000
000000
000000
000000
000000
000000
000000
000000
005660
00CFF0
00CFF0
00CFF0
00EFD0
03FF80
09FF20
2FF800
06B000
ENDCHAR
STARTCHAR less
ENCODING 60
SWIDTH 445 0
DWIDTH 14 0
BBX 11 14 1 3
BITMAP
0000000003A0
00000002AFE0
0000019FFFE0
00017EFFFB40
006DFFFB4000
4CFFFB400000
CFFB40000000
CFFA30000000
4CFFFB300000
006DFFFB3000
00017EFFFB40
0000019FFFE0
00000002AFE0
0000000003A0
ENDCHAR
STARTCHAR equal
ENCODING 61
SWIDTH 479 0
DWIDTH 15 0
BBX 12 10 2 6
BITMAP
AFFFFFFFFFF4
AFFFFFFFFFF4
588888888882
000000000000
000000000000
000000000000
000000000000
AFFFFFFFFFF4
AFFFFFFFFFF4
588888888882
ENDCHAR
STARTCHAR greater
ENCODING 62
SWIDTH 459 0
DWIDTH 15 0
BBX 12 14 2 3
BITMAP
A40000000000
DFB400000000
DFFFB3000000
29FFFFA30000
0028EFFFA200
000017EFFF91
00000017DFF6
00000018EFF6
000028EFFF91
0029FFFF9200
3AFFFFA20000
DFFFB3000000
DFB400000000
A40000000000
ENDCHAR
STARTCHAR question
ENCODING 63
SWIDTH 421 0
DWIDTH 14 0
BBX 12 23 1 0
BITMAP
0018DFEB5000
03EFFFFFF900
1DFFD9AFFF50
6FFB0005FFC0
AFF30000DFF1
69900000AFF2
00000000AFF1
00000000DFE0
00000005FF90
0000002EFF20
000000CFF700
000009FFA000
00004FFC1000
0000AFF30000
0000EFD00000
0001FFB00000
000177500000
000000000000
000000000000
000014000000
0000DFB00000
0002FFE00000
0000AE800000
ENDCHAR
STARTCHAR at
ENCODING 64
SWIDTH 769 0
DWIDTH 25 0
BBX 22 29 1 -7
BITMAP
000000005ADEEDA5000000
0000004DFFFFFFFFD40000
000006FFD731237CFF7000
00006FF7000000006EF500
0003FF500000000005FE10
000CF80000000000008F80
005FD10000000000001EE1
00BF6000018EFD700009F4
02FF10000BFFFFFC0005F8
06FC00009FD406FE0002FB
0AF70003FF3005FD0000FD
0DF40009FA0006FC0000DF
0FF3000EF50007FB0000DF
2FF1003FF10008F90000DF
3FF0005FE00009F80000DF
3FE0007FD0000BF70000FE
3FF0008FD0000CF60002FB
2FF0008FE0001EF50006F8
0FF2006FF2008FF6000DF2
0DF4002FFC48FEFC009FA0
0AF80009FFFFB3FFEEFD10
06FC00019EE8004CFD8100
01FF300000000000000000
00AFB00000000000000000
002EF70000000000000000
0006FF7000000001000000
00008FFC620015B9000000
000005EFFFFFFFFB000000
00000016ADFFDA50000000
ENDCHAR
STARTCHAR A
ENCODING 65
SWIDTH 576 0
DWIDTH 18 0
BBX 18 23 0 0
BITMAP
00000002FF90000000
00000007FFE0000000
0000000CFFF4000000
0000002FFFF9000000
0000007FFBFD000000
000000BFC5FF300000
000001FF71FF800000
000006FF20BFD00000
00000BFD006FF20000
00001FF8001FF70000
00005FF3000CFC0000
0000AFD00007FF2000
0000EF900002FF7000
0005FF400000CFB000
0009FFFFFFFFFFF100
000EFFFFFFFFFFF600
004FF97777777EFB00
009FF10000000AFF10
00DFC000000006FF50
03FF8000000002FFA0
08FF4000000000CFE1
0DFF10000000008FF5
3FFB00000000004FFA
ENDCHAR
STARTCHAR B
ENCODING 66
SWIDTH 545 0
DWIDTH 17 0
BBX 14 23 2 0
BITMAP
8FFFFFFEDA3000
8FFFFFFFFFF700
8FFA7778CFFF40
8FF5000007FFB0
8FF5000000EFF1
8FF5000000BFF2
8FF5000000BFF2
8FF5000000EFF0
8FF5000005FFA0
8FF500016EFE20
8FFFFFFFFFD300
8FFFFFFFFFC400
8FF966669EFF40
8FF5000002EFE0
8FF50000008FF5
8FF50000005FF8
8FF50000004FF9
8FF50000006FF8
8FF5000000AFF6
8FF5000004FFF1
8FF97777AFFF80
8FFFFFFFFFF900
8FFFFFFFDA4000
ENDCHAR
STARTCHAR C
ENCODING 67
SWIDTH 566 0
DWIDTH 18 0
BBX 16 23 1 0
BITMAP
000005ADFEC81000
0001CFFFFFFFE400
001DFFE978CFFE20
009FFB100008FFB0
02FFD1000000DFF2
08FF700000008FF6
0BFF200000005FF9
0EFE000000002996
0FFD000000000000
1FFD000000000000
1FFC000000000000
1FFC000000000000
1FFC000000000000
1FFC000000000000
0FFD000000000000
0EFE000000002885
0BFF200000005FF9
08FF600000008FF6
02FFD0000000CFF2
00AFF9000007FFB0
001DFFD878CFFE20
0002CFFFFFFFE300
000006BEFEB71000
ENDCHAR
STARTCHAR D
ENCODING 68
SWIDTH 570 0
DWIDTH 18 0
BBX 15 23 2 0
BITMAP
8FFFFFED94000000
8FFFFFFFFFB20000
8FFA778AEFFD2000
8FF500001AFFB000
8FF5000000BFF400
8FF50000003FFA00
8FF50000000DFE00
8FF50000000BFF20
8FF500000009FF30
8FF500000009FF40
8FF500000008FF40
8FF500000008FF40
8FF500000008FF40
8FF500000009FF40
8FF500000009FF30
8FF50000000BFF20
8FF50000000EFE00
8FF50000004FFA00
8FF5000000CFF400
8FF500001BFFB000
8FF9778AEFFD2000
8FFFFFFFFFB10000
8FFFFFEC94000000
ENDCHAR
STARTCHAR E
ENCODING 69
SWIDTH 496 0
DWIDTH 16 0
BBX 13 23 2 0
BITMAP
8FFFFFFFFFFF80
8FFFFFFFFFFF80
8FFA7777777740
8FF50000000000
8FF50000000000
8FF50000000000
8FF50000000000
8FF50000000000
8FF50000000000
8FF50000000000
8FFFFFFFFFF500
8FFFFFFFFFF500
8FF97777777200
8FF50000000000
8FF50000000000
8FF50000000000
8FF50000000000
8FF50000000000
8FF50000000000
8FF50000000000
8FF97777777750
8FFFFFFFFFFFA0
8FFFFFFFFFFFA0
ENDCHAR
STARTCHAR F
ENCODING 70
SWIDTH 480 0
DWIDTH 15 0
BBX 13 23 2 0
BITMAP
8FFFFFFFFFFF40
8FFFFFFFFFFF40
8FFA7777777720
8FF50000000000
8FF50000000000
8FF50000000000
8FF50000000000
8FF50000000000
8FF50000000000
8FF50000000000
8FFFFFFFFFF000
8FFFFFFFFFF000
8FF97777777000
8FF50000000000
8FF50000000000
8FF50000000000
8FF50000000000
8FF50000000000
8FF50000000000
8FF50000000000
8FF50000000000
8FF50000000000
8FF50000000000
ENDCHAR
STARTCHAR G
ENCODING 71
SWIDTH 590 0
DWIDTH 19 0
BBX 16 23 1 0
BITMAP
000017BEFEC81000
0004EFFFFFFFE500
004FFFD978DFFF30
00DFF8000009FFC0
05FFB0000000DFF3
09FF500000007FF7
0CFF100000004FF9
0EFE000000000000
0FFD000000000000
1FFC000000000000
1FFC000000000000
1FFC000000000000
1FFC00005FFFFFFA
1FFC00005FFFFFFA
0FFD000027778FFA
0EFE000000003FFA
0CFF200000003FFA
08FF700000003FFA
03FFE10000003FFA
00AFFC1000009FFA
001DFFEA779EFFF4
0002CFFFFFFFFD40
000005ADFEDA6000
ENDCHAR
STARTCHAR H
ENCODING 72
SWIDTH 620 0
DWIDTH 20 0
BBX 16 23 2 0
BITMAP
8FF5000000008FF5
8FF5000000008FF5
8FF5000000008FF5
8FF5000000008FF5
8FF5000000008FF5
8FF5000000008FF5
8FF5000000008FF5
8FF5000000008FF5
8FF5000000008FF5
8FF5000000008FF5
8FFFFFFFFFFFFFF5
8FFFFFFFFFFFFFF5
8FF977777777BFF5
8FF5000000008FF5
8FF5000000008FF5
8FF5000000008FF5
8FF5000000008FF5
8FF5000000008FF5
8FF5000000008FF5
8FF5000000008FF5
8FF5000000008FF5
8FF5000000008FF5
8FF5000000008FF5
ENDCHAR
STARTCHAR I
ENCODING 73
SWIDTH 250 0
DWIDTH 8 0
BBX 4 23 2 0
BITMAP
6FF7
6FF7
6FF7
6FF7
6FF7
6FF7
6FF7
6FF7
6FF7
6FF7
6FF7
6FF7
6FF7
6FF7
6FF7
6FF7
6FF7
6FF7
6FF7
6FF7
6FF7
6FF7
6FF7
ENDCHAR
STARTCHAR J
ENCODING 74
SWIDTH 483 0
DWIDTH 15 0
BBX 13 23 1 0
BITMAP
000000000BFF30
000000000BFF30
000000000BFF30
000000000BFF30
000000000BFF30
000000000BFF30
000000000BFF30
000000000BFF30
000000000BFF30
000000000BFF30
000000000BFF30
000000000BFF30
000000000BFF30
000000000BFF30
000000000BFF30
000000000BFF30
997000000BFF20
FFE000000DFF10
DFF300003FFD00
8FFB0000BFF800
1EFFC88DFFE100
04EFFFFFFE3000
0018DEED810000
ENDCHAR
STARTCHAR K
ENCODING 75
SWIDTH 544 0
DWIDTH 17 0
BBX 16 23 2 0
BITMAP
8FF50000002EFF60
8FF5000000BFFA00
8FF5000007FFD100
8FF500003FFF3000
8FF50001DFF70000
8FF50009FFB00000
8FF5005FFE100000
8FF502EFF4000000
8FF50BFF80000000
8FF57FFC00000000
8FF8FFF900000000
8FFFFFFF30000000
8FFFFBFFC0000000
8FFFA0CFF7000000
8FFC103FFE200000
8FF50009FFA00000
8FF50001EFF50000
8FF500006FFD1000
8FF500000CFF8000
8FF5000003FFF300
8FF50000009FFC00
8FF50000001EFF60
8FF500000006FFE1
ENDCHAR
STARTCHAR L
ENCODING 76
SWIDTH 475 0
DWIDTH 15 0
BBX 13 23 2 0
BITMAP
8FF50000000000
8FF50000000000
8FF50000000000
8FF50000000000
8FF50000000000
8FF50000000000
8FF50000000000
8FF50000000000
8FF50000000000
8FF50000000000
8FF50000000000
8FF50000000000
8FF50000000000
8FF50000000000
8FF50000000000
8FF50000000000
8FF50000000000
8FF50000000000
8FF50000000000
8FF50000000000
8FF97777777720
8FFFFFFFFFFF40
8FFFFFFFFFFF40
ENDCHAR
STARTCHAR M
ENCODING 77
SWIDTH 755 0
DWIDTH 24 0
BBX 20 23 2 0
BITMAP
8FFF400000000002FFFB
8FFF900000000007FFFB
8FFFE0000000000CFFFB
8FFFF4000000001FFFFB
8FFFF8000000006FFFFB
8FFDFD00000000BFEEFB
8FF9FF30000001FFAEFB
8FF4FF80000005FF5FFB
8FF2DFC000000AFE0FFB
8FF38FF200000EFA0FFB
8FF33FF700005FF51FFB
8FF40DFC00009FE01FFB
8FF408FF1000EFA02FFB
8FF403FF6004FF502FFB
8FF500DFB009FE002FFB
8FF5008FF10DFA002FFB
8FF5003FF53FF5002FFB
8FF5000DFA8FE0002FFB
8FF50008FEDFA0002FFB
8FF50003FFFF50002FFB
8FF50000DFFE00002FFB
8FF500008FFA00002FFB
8FF500003FF500002FFB
ENDCHAR
STARTCHAR N
ENCODING 78
SWIDTH 619 0
DWIDTH 20 0
BBX 16 23 2 0
BITMAP
8FF9000000008FF5
8FFF200000008FF5
8FFF900000008FF5
8FFFF20000008FF5
8FFFFA0000008FF5
8FFDFF2000008FF5
8FF6EFA000008FF5
8FF58FF300008FF5
8FF51EFA00008FF5
8FF508FF30008FF5
8FF501EFB0008FF5
8FF5007FF3008FF5
8FF5001EFB008FF5
8FF50007FF408FF5
8FF50001EFC08FF5
8FF500006FF48FF5
8FF500000DFC8FF5
8FF5000006FFDFF5
8FF5000000DFFFF5
8FF50000005FFFF5
8FF50000000DFFF5
8FF500000005FFF5
8FF500000000CFF5
ENDCHAR
STARTCHAR O
ENCODING 79
SWIDTH 600 0
DWIDTH 19 0
BBX 17 23 1 0
BITMAP
000006BDFEC7100000
0002CFFFFFFFE40000
001DFFFB9AEFFF3000
00AFFB100009FFD000
02FFD1000000BFF500
07FF600000003FFB00
0BFF200000000EFE00
0EFE000000000BFF20
0FFD000000000AFF30
1FFC0000000009FF40
1FFC0000000009FF40
1FFC0000000009FF40
1FFC0000000009FF40
1FFC0000000009FF40
0FFD000000000AFF30
0EFE000000000BFF20
0BFF200000000EFE00
08FF600000003FFB00
02FFD1000000AFF600
00AFFB100008FFD100
001DFFEA99DFFF4000
0002CFFFFFFFE50000
000006BEFEC7100000
ENDCHAR
STARTCHAR P
ENCODING 80
SWIDTH 554 0
DWIDTH 18 0
BBX 15 23 2 0
BITMAP
8FFFFFFFEC710000
8FFFFFFFFFFE3000
8FFA77779DFFE200
8FF5000000AFFA00
8FF50000001EFF10
8FF500000009FF50
8FF500000006FF70
8FF500000006FF70
8FF500000007FF60
8FF50000000BFF40
8FF50000003FFE00
8FF5000016EFF700
8FFFFFFFFFFFB000
8FFFFFFFFFE80000
8FF9777764000000
8FF5000000000000
8FF5000000000000
8FF5000000000000
8FF5000000000000
8FF5000000000000
8FF5000000000000
8FF5000000000000
8FF5000000000000
ENDCHAR
STARTCHAR Q
ENCODING 81
SWIDTH 600 0
DWIDTH 19 0
BBX 17 27 1 -4
BITMAP
000017BEFEB6000000
0003DFFFFFFFD30000
002EFFEA9AEFFE2000
00CFFA10001AFFB000
04FFC0000000CFF300
0AFF500000005FF900
0DFF000000001FFC00
1FFC000000000DFF00
2FFB000000000CFF10
3FFA000000000BFF20
3FFA000000000BFF20
3FFA000000000BFF20
3FFA000000000BFF20
3FFA000000000BFF20
2FFB000000000CFF10
1FFC000000000DFF00
0DFF000000001FFC00
0AFF500000005FF900
04FFC0000000CFF400
00CFFA100019FFB000
002EFFEA9AEFFE2000
0003DFFFFFFFF40000
000016BEFDEFFD2000
00000000001CFFE300
000000000001BFFE20
00000000000009F800
000000000000004000
ENDCHAR
STARTCHAR R
ENCODING 82
SWIDTH 530 0
DWIDTH 17 0
BBX 15 23 2 0
BITMAP
8FFFFFFED9300000
8FFFFFFFFFF90000
8FFA7778CFFF7000
8FF5000006FFE100
8FF5000000AFF500
8FF50000006FF800
8FF50000004FF900
8FF50000005FF800
8FF50000008FF600
8FF5000002EFF100
8FF500015DFF9000
8FFFFFFFFFFC0000
8FFFFFFFFF800000
8FF9777BFF500000
8FF50003FFC00000
8FF50000CFF40000
8FF500006FFA0000
8FF500000EFF2000
8FF5000008FF8000
8FF5000002FFE100
8FF5000000AFF700
8FF50000004FFD00
8FF50000000DFF50
ENDCHAR
STARTCHAR S
ENCODING 83
SWIDTH 518 0
DWIDTH 17 0
BBX 15 23 1 0
BITMAP
00006BEFDA500000
002CFFFFFFFB1000
01DFFE979EFFB000
08FFB10001BFF700
0DFF2000002FFD00
0FFE0000000BFF20
1FFD00000009DD30
0EFF200000000000
09FFD20000000000
01EFFE8100000000
003DFFFFA5000000
00019FFFFFD40000
0000027DFFFF7000
000000004CFFF500
00000000009FFC00
00000000000DFF20
8EE30000000AFF40
8FF60000000AFF40
3FFB0000000DFF10
0CFF8000008FFC00
02EFFD979DFFF300
003CFFFFFFFE5000
00005BDFEC810000
ENDCHAR
STARTCHAR T
ENCODING 84
SWIDTH 520 0
DWIDTH 17 0
BBX 16 23 0 0
BITMAP
1FFFFFFFFFFFFFFB
1FFFFFFFFFFFFFFB
0777778FFD777775
0000001FFC000000
0000001FFC000000
0000001FFC000000
0000001FFC000000
0000001FFC000000
0000001FFC000000
0000001FFC000000
0000001FFC000000
0000001FFC000000
0000001FFC000000
0000001FFC000000
0000001FFC000000
0000001FFC000000
0000001FFC000000
0000001FFC000000
0000001FFC000000
0000001FFC000000
0000001FFC000000
0000001FFC000000
0000001FFC000000
ENDCHAR
STARTCHAR U
ENCODING 85
SWIDTH 561 0
DWIDTH 18 0
BBX 14 23 2 0
BITMAP
FFD00000000DFF
FFD00000000DFF
FFD00000000DFF
FFD00000000DFF
FFD00000000DFF
FFD00000000DFF
FFD00000000DFF
FFD00000000DFF
FFD00000000DFF
FFD00000000DFF
FFD00000000DFF
FFD00000000DFF
FFD00000000DFF
FFD00000000DFF
FFD00000000DFF
FFD00000000DFF
EFE00000000DFF
DFF00000000FFD
AFF50000005FFA
4FFD200002DFF4
0BFFE9779EFFA0
01BFFFFFFFFA10
0005ADFFDA4000
ENDCHAR
STARTCHAR V
ENCODING 86
SWIDTH 560 0
DWIDTH 18 0
BBX 18 23 0 0
BITMAP
3FFE0000000000EFF2
0DFF3000000004FFD0
09FF7000000008FF80
04FFB00000000CFF30
00EFF10000002FFE00
00AFF50000006FF900
005FF9000000AFF400
001FFD000000EFE000
000BFF200003FFA000
0006FF600008FF6000
0002FFB0000CFF1000
0000CFE0001FFB0000
00008FF4005FF70000
00003FF8009FF20000
00000DFC00EFD00000
000009FF13FF800000
000004FF67FF300000
000000EFABFE000000
000000AFEFF9000000
0000005FFFF4000000
0000001FFFE0000000
0000000BFFA0000000
00000007FF60000000
ENDCHAR
STARTCHAR W
ENCODING 87
SWIDTH 761 0
DWIDTH 24 0
BBX 23 23 1 0
BITMAP
CFF1000000EFA0000006FF60
9FF4000002FFE0000009FF40
6FF6000006FFF200000CFF10
3FF9000009FFF500000EFD00
0FFC00000DFFF900002FFA00
0CFE00001FFCFC00005FF700
09FF20004FF6FF00007FF400
06FF50008FD1FF3000AFF100
03FF7000BF90DF7000DFD000
01FFA000EF60AFA000FFA000
00DFD003FF206FD003FF7000
00AFF106FE003FF205FF4000
007FF30AFA000EF508FF1000
004FF60DF7000BF80BFD0000
001FF92FF30008FC0DFA0000
000DFB5FE00004FF1FF70000
000AFD8FB00001FF6FF40000
0007FFBF800000CFBFF10000
0004FFFF4000009FFFD00000
0001FFFF1000006FFFA00000
0000DFFC0000002FFF700000
0000AFF90000000EFF400000
00007FF50000000AFF100000
ENDCHAR
STARTCHAR X
ENCODING 88
SWIDTH 550 0
DWIDTH 18 0
BBX 16 23 1 0
BITMAP
8FFC00000002FFF3
1EFF40000009FFB0
08FFB000002FFF30
01EFF400009FFA00
007FFB0001FFF200
001EFF3008FF9000
0006FFB01EFF2000
0000DFF38FF90000
00006FFBEFF20000
00000DFFFF800000
000005FFFE100000
000000EFFA000000
000007FFFF200000
00001EFFFFA00000
00007FFAEFF30000
0001EFF27FFA0000
0008FFA01EFF3000
001EFF2007FFB000
009FFA0001EFF400
02FFF300007FFC00
09FFA000001EFF50
2FFF30000008FFC0
AFFA00000001EFF5
ENDCHAR
STARTCHAR Y
ENCODING 89
SWIDTH 524 0
DWIDTH 17 0
BBX 17 23 0 0
BITMAP
5FFE000000003FFE10
0DFF500000009FF900
06FFB0000001EFF200
01EFF2000006FFA000
008FF800000CFF4000
001FFE00003FFC0000
0009FF50009FF50000
0003FFB001EFD00000
0000BFF206FF700000
00004FF80CFE100000
00000CFE3FF8000000
000006FFDFF2000000
000000EFFFA0000000
0000007FFF30000000
0000002FFD00000000
0000001FFC00000000
0000001FFC00000000
0000001FFC00000000
0000001FFC00000000
0000001FFC00000000
0000001FFC00000000
0000001FFC00000000
0000001FFC00000000
ENDCHAR
STARTCHAR Z
ENCODING 90
SWIDTH 522 0
DWIDTH 17 0
BBX 15 23 1 0
BITMAP
7FFFFFFFFFFFFF00
7FFFFFFFFFFFFF00
3777777777AFFC00
0000000000CFF400
0000000006FFA000
000000001DFF2000
000000008FF80000
00000002EFE10000
0000000AFF600000
0000003FFC000000
000000CFF4000000
000005FFB0000000
00000DFF20000000
00007FF900000000
0001EFE100000000
0009FF7000000000
003FFD0000000000
00BFF50000000000
05FFB00000000000
0DFF300000000000
6FFD777777777730
9FFFFFFFFFFFFF60
9FFFFFFFFFFFFF60
ENDCHAR
STARTCHAR bracketleft
ENCODING 91
SWIDTH 250 0
DWIDTH 8 0
BBX 6 31 2 -5
BITMAP
DFFFF5
DFFFF5
DFE662
DFE000
DFE000
DFE000
DFE000
DFE000
DFE000
DFE000
DFE000
DFE000
DFE000
DFE000
DFE000
DFE000
DFE000
DFE000
DFE000
DFE000
DFE000
DFE000
DFE000
DFE000
DFE000
DFE000
DFE000
DFE000
DFE662
DFFFF5
DFFFF5
ENDCHAR
STARTCHAR backslash
ENCODING 92
SWIDTH 369 0
DWIDTH 12 0
BBX 12 25 0 -2
BITMAP
1FF800000000
0BFD00000000
06FF30000000
01FF80000000
00CFD0000000
007FF2000000
002FF7000000
000CFC000000
0007FF200000
0003FF700000
0000DFB00000
00008FF10000
00003FF60000
00000DFB0000
000009FF1000
000004FF5000
000000EFA000
0000009FE000
0000004FF500
0000000EF900
0000000AFE00
00000005FF40
00000001FF90
00000000BFD0
000000006FF3
ENDCHAR
STARTCHAR bracketright
ENCODING 93
SWIDTH 250 0
DWIDTH 8 0
BBX 6 31 0 -5
BITMAP
8FFFFA
8FFFFA
366FFA
001FFA
001FFA
001FFA
001FFA
001FFA
001FFA
001FFA
001FFA
001FFA
001FFA
001FFA
001FFA
001FFA
001FFA
001FFA
001FFA
001FFA
001FFA
001FFA
001FFA
001FFA
001FFA
001FFA
001FFA
001FFA
366FFA
8FFFFA
8FFFFA
ENDCHAR
STARTCHAR asciicircum
ENCODING 94
SWIDTH 371 0
DWIDTH 12 0
BBX 10 11 1 12
BITMAP
0002FF1000
0008FF6000
000DFFB000
004FFFF200
009FBDF700
00EF68FC00
05FF13FF20
0AFB00DF80
1FF6008FD0
6FF2004FF3
BFC0000EF9
ENDCHAR
STARTCHAR underscore
ENCODING 95
SWIDTH 404 0
DWIDTH 13 0
BBX 13 3 0 -3
BITMAP
9FFFFFFFFFFF90
9FFFFFFFFFFF90
35555555555530
ENDCHAR
STARTCHAR grave
ENCODING 96
SWIDTH 309 0
DWIDTH 10 0
BBX 7 5 1 19
BITMAP
BFFB0000
1DFF6000
02EFE200
004FFB00
0007DA20
ENDCHAR
STARTCHAR a
ENCODING 97
SWIDTH 479 0
DWIDTH 15 0
BBX 13 17 1 0
BITMAP
00028DEEC71000
004EFFFFFFC100
02EFF967DFF900
09FF50001EFE00
0DFE00000BFF10
000000000AFF20
000000000AFF20
00028CEFFFFF20
007FFFFFFFFF20
06FFE8311AFF20
0DFE20000AFF20
2FF900000AFF20
3FF900000AFF20
1FFD00006FFF20
0CFFD99CFFFF30
03EFFFFFC9FF50
0029DFD815FF90
ENDCHAR
STARTCHAR b
ENCODING 98
SWIDTH 493 0
DWIDTH 16 0
BBX 13 24 2 0
BITMAP
EFC00000000000
EFC00000000000
EFC00000000000
EFC00000000000
EFC00000000000
EFC00000000000
EFC00000000000
EFC07CFEB50000
EFDAFFFFFF8000
EFFFD87BFFF400
EFFA00007FFA00
EFE100000DFE00
EFC0000009FF20
EFC0000008FF40
EFC0000007FF40
EFC0000007FF50
EFC0000007FF40
EFC0000007FF40
EFC0000009FF20
EFE100000DFE00
EFF900007FFA00
EFFFC87BFFF300
EFAAFFFFFF7000
EF907CFEB40000
ENDCHAR
STARTCHAR c
ENCODING 99
SWIDTH 461 0
DWIDTH 15 0
BBX 13 17 1 0
BITMAP
00039DEEC71000
006FFFFFFFC100
04FFF967CFFA00
0CFF40000BFF30
2FFB000004FF70
5FF7000001EE90
7FF50000000000
7FF40000000000
8FF40000000000
7FF40000000000
7FF50000000000
5FF60000007740
2FFA000002FF80
0CFF30000AFF30
04FFF967BFFA00
006FFFFFFFB100
00039DFEC60000
ENDCHAR
STARTCHAR d
ENCODING 100
SWIDTH 496 0
DWIDTH 16 0
BBX 13 24 1 0
BITMAP
0000000001FFA0
0000000001FFA0
0000000001FFA0
0000000001FFA0
0000000001FFA0
0000000001FFA0
0000000001FFA0
0005BEEC61FFA0
009FFFFFF9FFA0
05FFFA78DFFFA0
0DFF50001BFFA0
2FFB000002FFA0
5FF7000001FFA0
7FF5000001FFA0
8FF4000001FFA0
8FF4000001FFA0
8FF4000001FFA0
7FF5000001FFA0
5FF7000001FFA0
2FFB000002FFA0
0CFF50000BFFA0
05FFFA78DFFFA0
008FFFFFF8EFA0
0005BEEC50DFA0
ENDCHAR
STARTCHAR e
ENCODING 101
SWIDTH 468 0
DWIDTH 15 0
BBX 13 17 1 0
BITMAP
00029DFEC70000
004EFFFFFFC100
02EFF968DFFA00
09FF40001CFF20
1EFB000006FF60
3FF7000002FF90
6FF5000001FFA0
7FFFFFFFFFFFB0
7FFFFFFFFFFFB0
7FF86666666640
6FF50000000000
5FF70000000000
2FFB0000000000
0BFF6000008A00
04FFFB668DFF60
006FFFFFFFF900
00029DEEDA4000
ENDCHAR
STARTCHAR f
ENCODING 102
SWIDTH 316 0
DWIDTH 10 0
BBX 9 24 1 0
BITMAP
00005BEFA0
0007FFFFB0
002FFFA860
007FF80000
00AFF20000
00BFF10000
00BFF10000
EFFFFFFE00
EFFFFFFE00
34CFF44300
00BFF10000
00BFF10000
00BFF10000
00BFF10000
00BFF10000
00BFF10000
00BFF10000
00BFF10000
00BFF10000
00BFF10000
00BFF10000
00BFF10000
00BFF10000
00BFF10000
ENDCHAR
STARTCHAR g
ENCODING 103
SWIDTH 492 0
DWIDTH 16 0
BBX 13 24 1 -7
BITMAP
0005BEEC60CFB0
009FFFFFF8DFB0
05FFFB78DFFFB0
0CFF60001BFFB0
2FFC000002FFB0
5FF7000001FFB0
6FF5000001FFB0
7FF4000001FFB0
7FF4000001FFB0
7FF4000001FFB0
6FF5000001FFB0
5FF7000001FFB0
2FFB000002FFB0
0CFF50000BFFB0
05FFFA78DFFFB0
008FFFFFF9FFB0
0005BEEC61FFB0
0000000001FFB0
0000000002FFA0
0020000006FF70
00D900001DFF30
05FFD768DFFA00
008FFFFFFFC100
00028DFEB60000
ENDCHAR
STARTCHAR h
ENCODING 104
SWIDTH 482 0
DWIDTH 15 0
BBX 12 24 2 0
BITMAP
EFC000000000
EFC000000000
EFC000000000
EFC000000000
EFC000000000
EFC000000000
EFC000000000
EFC06CEEB300
EFDAFFFFFF30
EFFFD88DFFC0
EFFB1001DFF2
EFE200008FF5
EFC000006FF6
EFC000005FF6
EFC000005FF6
EFC000005FF6
EFC000005FF6
EFC000005FF6
EFC000005FF6
EFC000005FF6
EFC000005FF6
EFC000005FF6
EFC000005FF6
EFC000005FF6
ENDCHAR
STARTCHAR i
ENCODING 105
SWIDTH 229 0
DWIDTH 7 0
BBX 4 24 2 0
BITMAP
0420
AFE1
DFF3
6EB0
0000
0000
0000
BFF1
BFF1
BFF1
BFF1
BFF1
BFF1
BFF1
BFF1
BFF1
BFF1
BFF1
BFF1
BFF1
BFF1
BFF1
BFF1
BFF1
ENDCHAR
STARTCHAR j
ENCODING 106
SWIDTH 223 0
DWIDTH 7 0
BBX 6 31 -1 -7
BITMAP
000141
000DFB
001FFF
000AE8
000000
000000
000000
000DFD
000DFD
000DFD
000DFD
000DFD
000DFD
000DFD
000DFD
000DFD
000DFD
000DFD
000DFD
000DFD
000DFD
000DFD
000DFD
000DFD
000DFD
000DFD
000EFD
001FFC
38CFF9
5FFFF2
4EFC40
ENDCHAR
STARTCHAR k
ENCODING 107
SWIDTH 450 0
DWIDTH 14 0
BBX 12 24 2 0
BITMAP
EFD000000000
EFD000000000
EFD000000000
EFD000000000
EFD000000000
EFD000000000
EFD000000000
EFD00004FFE2
EFD0001DFF40
EFD000AFF800
EFD006FFB000
EFD02EFE2000
EFD0CFF40000
EFD8FF800000
EFEFFF400000
EFFFFFD00000
EFFEAFF80000
EFF41EFF2000
EFD005FFB000
EFD000CFF500
EFD0003FFE10
EFD00009FF90
EFD00001EFF3
EFD000006FFC
ENDCHAR
STARTCHAR l
ENCODING 108
SWIDTH 229 0
DWIDTH 7 0
BBX 4 24 2 0
BITMAP
BFF1
BFF1
BFF1
BFF1
BFF1
BFF1
BFF1
BFF1
BFF1
BFF1
BFF1
BFF1
BFF1
BFF1
BFF1
BFF1
BFF1
BFF1
BFF1
BFF1
BFF1
BFF1
BFF1
BFF1
ENDCHAR
STARTCHAR m
ENCODING 109
SWIDTH 752 0
DWIDTH 24 0
BBX 20 17 2 0
BITMAP
EFA17CEEA3004BEFD700
EFCCFFFFFE37FFFFFFB0
EFFFB79EFFDFFA8AFFF5
EFF70002EFFF50006FFA
EFD000009FFB00000EFD
EFC000006FF700000CFE
EFC000005FF600000CFF
EFC000005FF600000CFF
EFC000005FF600000CFF
EFC000005FF600000CFF
EFC000005FF600000CFF
EFC000005FF600000CFF
EFC000005FF600000CFF
EFC000005FF600000CFF
EFC000005FF600000CFF
EFC000005FF600000CFF
EFC000005FF600000CFF
ENDCHAR
STARTCHAR n
ENCODING 110
SWIDTH 483 0
DWIDTH 15 0
BBX 12 17 2 0
BITMAP
EFA06CEEB300
EFBAFFFFFF30
EFFFD88DFFC0
EFFB1001DFF2
EFE200008FF5
EFC000006FF6
EFC000005FF6
EFC000005FF6
EFC000005FF6
EFC000005FF6
EFC000005FF6
EFC000005FF6
EFC000005FF6
EFC000005FF6
EFC000005FF6
EFC000005FF6
EFC000005FF6
ENDCHAR
STARTCHAR o
ENCODING 111
SWIDTH 501 0
DWIDTH 16 0
BBX 14 17 1 0
BITMAP
00018CEEC81000
003EFFFFFFE300
01EFFB77BFFE20
09FF800008FFA0
1FFD000000DFF1
4FF80000007FF5
7FF50000004FF7
7FF40000003FF8
8FF40000003FF8
8FF40000003FF8
7FF50000004FF7
4FF80000006FF5
1FFD000000BFF1
0AFF800005FFA0
02EFFB66AFFE20
003EFFFFFFE300
00018CEED81000
ENDCHAR
STARTCHAR p
ENCODING 112
SWIDTH 493 0
DWIDTH 16 0
BBX 13 24 2 -7
BITMAP
EF907DFEB50000
EFABFFFFFF7000
EFFFB88CFFF300
EFF700009FFA00
EFD000001EFE00
EFC000000AFF20
EFC0000008FF30
EFC0000007FF40
EFC0000007FF40
EFC0000007FF40
EFC0000008FF30
EFC000000AFF20
EFD000000EFE00
EFF600008FFA00
EFFFA66BFFF300
EFDCFFFFFF7000
EFC18DFEB40000
EFC00000000000
EFC00000000000
EFC00000000000
EFC00000000000
EFC00000000000
EFC00000000000
EFC00000000000
ENDCHAR
STARTCHAR q
ENCODING 113
SWIDTH 500 0
DWIDTH 16 0
BBX 13 24 1 -7
BITMAP
0005BEEC60DFA0
009FFFFFFAEFA0
06FFFA67CFFFA0
0DFF50000AFFA0
2FFB000002FFA0
5FF7000001FFA0
7FF5000001FFA0
8FF4000001FFA0
8FF4000001FFA0
8FF4000001FFA0
7FF5000001FFA0
5FF7000001FFA0
2FFB000001FFA0
0DFF400009FFA0
05FFF967CFFFA0
009FFFFFFBFFA0
0005BEFC62FFA0
0000000001FFA0
0000000001FFA0
0000000001FFA0
0000000001FFA0
0000000001FFA0
0000000001FFA0
0000000001FFA0
ENDCHAR
STARTCHAR r
ENCODING 114
SWIDTH 304 0
DWIDTH 10 0
BBX 8 17 2 0
BITMAP
EFB1AED0
EFCCFFF1
EFFFFDD1
EFFC2000
EFF20000
EFC00000
EFC00000
EFC00000
EFC00000
EFC00000
EFC00000
EFC00000
EFC00000
EFC00000
EFC00000
EFC00000
EFC00000
ENDCHAR
STARTCHAR s
ENCODING 115
SWIDTH 455 0
DWIDTH 15 0
BBX 12 17 1 0
BITMAP
0004BEFEA300
009FFFFFFF70
06FFE869FFF4
0CFF20006FFA
0EFD00000EFC
0DFF20000000
08FFE7100000
00BFFFE82000
0006DFFFF910
000005CFFFD1
00000004DFFA
133100001EFE
6FF700000CFF
2FFD10002EFD
0AFFD868DFF7
01BFFFFFFFA0
0006BEFEB500
ENDCHAR
STARTCHAR t
ENCODING 116
SWIDTH 295 0
DWIDTH 9 0
BBX 9 21 0 0
BITMAP
001FFA0000
001FFA0000
001FFA0000
001FFA0000
AFFFFFFF40
AFFFFFFF40
244FFB4410
001FFA0000
001FFA0000
001FFA0000
001FFA0000
001FFA0000
001FFA0000
001FFA0000
001FFA0000
001FFA0000
001FFA0000
000EFC0000
000CFFA820
0005FFFF30
00007DFD20
ENDCHAR
STARTCHAR u
ENCODING 117
SWIDTH 483 0
DWIDTH 15 0
BBX 12 17 2 0
BITMAP
FFC000006FF6
FFC000006FF6
FFC000006FF6
FFC000006FF6
FFC000006FF6
FFC000006FF6
FFC000006FF6
FFC000006FF6
FFC000006FF6
FFC000006FF6
FFC000006FF6
EFD000006FF6
DFE000008FF6
AFF60004EFF6
5FFF97AFFFF6
0BFFFFFFAFF6
007DFEB44FF6
ENDCHAR
STARTCHAR v
ENCODING 118
SWIDTH 427 0
DWIDTH 14 0
BBX 13 17 0 0
BITMAP
2FFA000001FFB0
0DFE000005FF60
08FF300009FF20
04FF70000CFD00
00EFB0001FF800
00AFE0005FF400
005FF3009FE000
001FF700CFA000
000BFB01FF5000
0007FF05FF1000
0002FF49FC0000
0000DF8CF70000
00008FDFF30000
00004FFFD00000
00000EFF900000
00000AFF500000
000005FF100000
ENDCHAR
STARTCHAR w
ENCODING 119
SWIDTH 649 0
DWIDTH 21 0
BBX 20 17 0 0
BITMAP
1FF900000DF900000DFD
0DFC00002FFD00001FF9
09FF10006FFF20004FF5
06FF4000AFFF60008FF2
02FF7000EFFFA000BFD0
00DFB003FFAFE000EF90
00AFE007FD3FF302FF60
006FF20BF90EF705FF20
002FF60EF50AFB09FD00
000EF94FF106FE0CFA00
000AFC8FC002FF4FF600
0007FFDF8000DFBFF200
0003FFFF40009FFFE000
0000EFFF10005FFFA000
0000BFFC00001FFF7000
00007FF800000CFF3000
00003FF4000008FE0000
ENDCHAR
STARTCHAR x
ENCODING 120
SWIDTH 438 0
DWIDTH 14 0
BBX 12 17 1 0
BITMAP
CFF500006FFC
4FFC0000DFF3
0BFF4005FFA0
03FFB00CFF20
009FF34FF900
002EF9BFE100
0008FFFF7000
0001EFFE1000
00009FF90000
0002FFFE1000
000AFFFF9000
003FF99FF200
00BFF22FFA00
04FFA00AFF40
0CFF3003FFC0
6FFB0000BFF5
DFF400004FFD
ENDCHAR
STARTCHAR y
ENCODING 121
SWIDTH 416 0
DWIDTH 13 0
BBX 13 24 0 -7
BITMAP
5FFA000005FF80
1FFE000009FF40
0BFF30000DFE00
06FF70002FFB00
02FFA0005FF600
00DFE0009FF200
008FF300DFD000
004FF701FF9000
000EFA05FF4000
000AFE09FF1000
0006FF3DFB0000
0001FF8FF70000
0000CFEFF20000
00008FFFD00000
00003FFF900000
00000EFF500000
000009FF100000
00000AFB000000
00000EF7000000
00004FF3000000
0001CFC0000000
059DFF50000000
09FFFA00000000
08EE8000000000
ENDCHAR
STARTCHAR z
ENCODING 122
SWIDTH 438 0
DWIDTH 14 0
BBX 12 17 1 0
BITMAP
7FFFFFFFFFF7
7FFFFFFFFFF7
36666666EFF3
00000007FF80
0000002EFD10
000000BFF500
000005FFA000
00001DFE2000
00009FF70000
0003FFC00000
000CFF300000
007FF9000000
02EFE1000000
0AFF50000000
4FFD55555554
8FFFFFFFFFFC
8FFFFFFFFFFC
ENDCHAR
STARTCHAR braceleft
ENCODING 123
SWIDTH 306 0
DWIDTH 10 0
BBX 9 31 1 -6
BITMAP
0000018A00
00003DFF10
0001DFE300
0008FF5000
000DFE0000
001FFB0000
002FF90000
003FF90000
003FF90000
003FF90000
003FF80000
005FF70000
009FF40000
16FFC00000
DFFD200000
DFFA000000
5BFF900000
00CFF20000
006FF60000
004FF80000
003FF90000
003FF90000
003FF90000
003FF90000
002FFA0000
000FFB0000
000CFE1000
0006FF6000
0000CFE400
00002DFF00
0000018A00
ENDCHAR
STARTCHAR bar
ENCODING 124
SWIDTH 243 0
DWIDTH 8 0
BBX 4 27 2 -4
BITMAP
4FF1
4FF1
4FF1
4FF1
4FF1
4FF1
4FF1
4FF1
4FF1
4FF1
4FF1
4FF1
4FF1
4FF1
4FF1
4FF1
4FF1
4FF1
4FF1
4FF1
4FF1
4FF1
4FF1
4FF1
4FF1
4FF1
4FF1
ENDCHAR
STARTCHAR braceright
ENCODING 125
SWIDTH 306 0
DWIDTH 10 0
BBX 9 31 0 -6
BITMAP
0C60000000
4FFB100000
05FFA00000
009FF40000
003FF90000
000EFC0000
000DFE0000
000CFE0000
000CFE0000
000CFE0000
000CFE0000
000AFF1000
0007FF5000
0001EFE410
00004EFF90
00001BFF90
0000CFF930
0005FF8000
0009FF2000
000BFF0000
000CFE0000
000CFE0000
000CFE0000
000CFE0000
000DFD0000
000FFB0000
004FF80000
00AFF20000
07FF900000
4FFA000000
0C60000000
ENDCHAR
STARTCHAR asciitilde
ENCODING 126
SWIDTH 589 0
DWIDTH 19 0
BBX 15 7 2 6
BITMAP
0016850000001220
04EFFFC200006FD0
2EFFFFFD10008FB0
9FE418FFC101EF70
DF90008FFD9DFE20
FF600008FFFFF600
000000005CFD5000
ENDCHAR
STARTCHAR uni00A0
ENCODING 160
SWIDTH 229 0
DWIDTH 7 0
BBX 1 1 0 0
BITMAP
00
ENDCHAR
STARTCHAR exclamdown
ENCODING 161
SWIDTH 231 0
DWIDTH 7 0
BBX 4 23 2 -6
BITMAP
6EB0
DFF4
AFE1
0420
0000
0000
3770
7FF0
8FF1
8FF1
8FF1
8FF1
8FF1
9FF1
9FF2
9FF2
9FF2
9FF2
AFF2
AFF3
AFF3
AFF3
AFF3
ENDCHAR
STARTCHAR cent
ENCODING 162
SWIDTH 479 0
DWIDTH 15 0
BBX 13 25 1 -4
BITMAP
00000488200000
000008FF400000
000008FF400000
000008FF400000
00018EFFE81000
002DFFFFFFD100
00CFFA55BFFB00
06FF80000BFF40
0CFE100003FF80
1FFA000000EFB0
4FF70000000000
5FF60000000000
6FF60000000000
5FF60000000000
4FF70000000000
2FFA0000006750
0DFE000001FF90
07FF700009FF50
01DFF944AFFC00
003EFFFFFFD200
0002AEFFE91000
000008FF400000
000008FF400000
000008FF400000
000005BB300000
ENDCHAR
STARTCHAR sterling
ENCODING 163
SWIDTH 510 0
DWIDTH 16 0
BBX 15 23 1 0
BITMAP
000004AEFD920000
00008FFFFFFE4000
0006FFE98DFFE100
001EFF3000BFF700
005FFA00003FFB00
008FF600000FFD00
009FF40000011100
009FF40000000000
009FF40000000000
009FF50000000000
008FF50000000000
8FFFFFFFF6000000
8FFFFFFFF6000000
37AFFA7773000000
006FF70000000000
006FF70000000000
006FF80000000000
006FF70000000000
008FF50000000000
00CFF10000000000
39FFD77777777720
7FFFFFFFFFFFFF40
7FFFFFFFFFFFFF40
ENDCHAR
STARTCHAR currency
ENCODING 164
SWIDTH 712 0
DWIDTH 23 0
BBX 21 21 1 0
BITMAP
0030000000000000003000
04F90017BEFEB71009F500
2EFF97EFFFFFFFE68FFF30
09FFFFFFFCBDFFFFFFF900
009FFFF8100028FFFFA000
004FFE400000004EFF4000
00CFF50000000006FFC000
03FFA00000000000BFF300
08FF4000000000006FF700
0BFF1000000000001FFA00
0CFE0000000000000FFB00
0CFE0000000000000FFB00
0BFF1000000000002FFA00
08FF5000000000006FF700
03FFB00000000000CFF300
00CFF50000000006FFC000
005FFE400000004EFF5000
02DFFFF8100018FFFFD200
1DFFFFFFFCBCFFFFFFFD20
1CFE47EFFFFFFFE63EFC10
01C40017BEFEB71004C100
ENDCHAR
STARTCHAR yen
ENCODING 165
SWIDTH 463 0
DWIDTH 15 0
BBX 15 23 0 0
BITMAP
5FFD0000001EFF20
0DFF4000006FFB00
07FFA00000BFF400
01EFE10002FFD000
009FF60008FF6000
002FFC000DFE1000
000BFF204FF80000
0004FF80AFF20000
0000DFE1FFA00000
00006FFBFF400000
00001EFFFC000000
01FFFFFFFFFFD000
01EEEEFFFEEED000
000001FFC0000000
000001FFC0000000
000001FFC0000000
01FFFFFFFFFFD000
01EEEEFFFEEEC000
000001FFC0000000
000001FFC0000000
000001FFC0000000
000001FFC0000000
000001FFC0000000
ENDCHAR
STARTCHAR brokenbar
ENCODING 166
SWIDTH 239 0
DWIDTH 8 0
BBX 4 27 2 -4
BITMAP
BFF3
BFF3
BFF3
BFF3
BFF3
BFF3
BFF3
BFF3
BFF3
BFF3
BFF3
BFF3
0000
0000
0000
BFF3
BFF3
BFF3
BFF3
BFF3
BFF3
BFF3
BFF3
BFF3
BFF3
BFF3
BFF3
ENDCHAR
STARTCHAR section
ENCODING 167
SWIDTH 537 0
DWIDTH 17 0
BBX 15 31 1 -8
BITMAP
00006BEFEC710000
002DFFFFFFFD3000
01DFFD867DFFD100
07FFB00000BFF800
0CFF2000002FFD00
0DFE0000000BFF10
0DFF00000007CC10
0AFF500000000000
05FFE60000000000
00BFFFD820000000
007FFFFFFC500000
07FFDBFFFFFD3000
1FFC1017DFFFE300
5FF6000005EFFC00
7FF50000002EFF30
6FF600000007FF60
3FFD00000005FF70
0DFFC3000007FF50
04FFFFC6101DFF10
004DFFFFFADFF700
00006DFFFFFF6000
00000039EFFFA000
0000000019FFF500
00000000007FFA00
6CC30000001FFC00
7FF50000000EFD00
4FFB0000002FFB00
0DFF600001BFF700
05FFFB768EFFD100
006FFFFFFFFD2000
00028CEFEB610000
ENDCHAR
STARTCHAR dieresis
ENCODING 168
SWIDTH 417 0
DWIDTH 13 0
BBX 11 4 1 20
BITMAP
024000003300
3FFB0006FF60
6FFE000AFFA0
1CE70004EE40
ENDCHAR
STARTCHAR copyright
ENCODING 169
SWIDTH 785 0
DWIDTH 25 0
BBX 23 23 1 0
BITMAP
000000038CEFEC9300000000
000003BFFFEDEFFFC3000000
00007FFC6200026CFF700000
0007FF60000000006FF80000
005FE3000000000003EF5000
01EF50004BEFEA40004FE100
07F90008FFFFFFF60009F700
0DE1004FF9313BFF1001ED00
3FA000BFB00001EF6000AF30
6F6000FF5000007940006F60
8F4001FF3000000000004F80
8F3001FF2000000000003F90
8F4001FF3000000000004F80
6F6000FF5000008940006F60
3FA000BFB00001EF5000AF30
0DF1005FF9213BFF1001ED00
07F90008FFFFFFF60009F700
01DF50005BEFEA40004FE100
005FE3000000000003EF5000
0007FF60000000006FF70000
00006FFC6100016CFF600000
000003BFFFEDEFFFB3000000
000000039CEFEC9300000000
ENDCHAR
STARTCHAR ordfeminine
ENCODING 170
SWIDTH 395 0
DWIDTH 13 0
BBX 9 12 2 11
BITMAP
018DFD8000
1DFFFFF900
6FF73AFF10
5A9002FF40
000001FF50
03AEFFFF50
4FFECBFF50
AFD101FF50
CFA001FF50
AFE44BFF60
4FFFFFFF70
06DFD6DF90
ENDCHAR
STARTCHAR guillemotleft
ENCODING 171
SWIDTH 417 0
DWIDTH 13 0
BBX 11 13 1 2
BITMAP
0000DF307F90
0007FA02EF20
002FF30AF900
00BFA04FF200
05FF20DF9000
1DFA07FF2000
6FF40EFB0000
1DFA08FF2000
05FF20DF9000
00BFA04FF200
002FF30AF900
0007FA02EF20
0000DF307F90
ENDCHAR
STARTCHAR logicalnot
ENCODING 172
SWIDTH 487 0
DWIDTH 16 0
BBX 11 7 2 6
BITMAP
FFFFFFFFFFF0
FFFFFFFFFFF0
88888888DFF0
00000000CFF0
00000000CFF0
00000000CFF0
00000000CFF0
ENDCHAR
STARTCHAR uni00AD
ENCODING 173
SWIDTH 248 0
DWIDTH 8 0
BBX 8 3 0 8
BITMAP
4FFFFFF3
4FFFFFF3
15555551
ENDCHAR
STARTCHAR registered
ENCODING 174
SWIDTH 786 0
DWIDTH 25 0
BBX 23 23 1 0
BITMAP
000000039CEFEC9300000000
000003CFFFEDEFFFB3000000
00007FFC6200026CFF700000
0008FF60000000006FF70000
005FE3000000000003EF5000
01EF400FFFFFEA40005FE100
08F8000FFFFFFFF70009F700
0EE1000FF30028FF1001FD00
3FA0000FF30000EF4000AF30
6F60000FF30000EF40006F60
8F40000FF3002AFD00004F80
9F30000FFFFFFFD300004F80
8F40000FFFFFFFE400004F80
6F60000FF30019FE00007F60
3FA0000FF30001FF3000AF30
0DE1000FF30000EF4001FD00
07F9000FF30000EF4009F700
01EF400FF30000DF705FD100
005FE3000000000003EF5000
0007FF60000000006FF70000
00006FFC6100016CFF600000
000003BFFFEDEFFFB3000000
000000039CEFEC9300000000
ENDCHAR
STARTCHAR macron
ENCODING 175
SWIDTH 414 0
DWIDTH 13 0
BBX 10 3 2 20
BITMAP
CFFFFFFFF4
CFFFFFFFF4
3444444441
ENDCHAR
STARTCHAR degree
ENCODING 176
SWIDTH 373 0
DWIDTH 12 0
BBX 8 8 2 15
BITMAP
02AEEA20
2EFFFFE2
AFB11AF9
EF1001FD
EF1001FD
AFA21AFA
2EFFFFE2
02AEEA20
ENDCHAR
STARTCHAR plusminus
ENCODING 177
SWIDTH 469 0
DWIDTH 15 0
BBX 13 20 1 0
BITMAP
00000377000000
000007FF000000
000007FF000000
000007FF000000
000007FF000000
000007FF000000
000007FF000000
5FFFFFFFFFFFA0
5FFFFFFFFFFFA0
25555AFF655540
000007FF000000
000007FF000000
000007FF000000
000007FF000000
000007FF000000
00000488000000
00000000000000
05666666666600
0DFFFFFFFFFF10
0DFFFFFFFFFF10
ENDCHAR
STARTCHAR uni00B2
ENCODING 178
SWIDTH 329 0
DWIDTH 11 0
BBX 9 13 1 10
BITMAP
02AEFC5000
1EFFFFF400
8FE31CFC00
CF8006FE00
231007FD00
00001DF900
00009FE200
0006FF6000
004FF80000
03EF900000
1DFB000000
9FFFFFFF50
AFFFFFFF50
ENDCHAR
STARTCHAR uni00B3
ENCODING 179
SWIDTH 329 0
DWIDTH 11 0
BBX 9 13 1 10
BITMAP
03BEEC6000
3FFFFFF700
AFC21BFD00
453006FE00
00002BF700
003FFF9000
003CEFF700
000009FE00
000004FF10
DE7004FF10
AFD21BFC00
3FFFFFF400
03BEEB4000
ENDCHAR
STARTCHAR acute
ENCODING 180
SWIDTH 313 0
DWIDTH 10 0
BBX 7 5 2 19
BITMAP
006FFE20
02EFF300
0BFF5000
6FF80000
9DA00000
ENDCHAR
STARTCHAR mu
ENCODING 181
SWIDTH 498 0
DWIDTH 16 0
BBX 12 24 2 -7
BITMAP
BFF100002FFA
BFF100002FFA
BFF100002FFA
BFF100002FFA
BFF100002FFA
BFF100002FFA
BFF100002FFA
BFF100002FFA
BFF100002FFA
BFF100002FFA
BFF100002FFA
BFF200002FFA
BFF500003FFA
BFFB0000AFFA
BFFFA67CFFFA
BFFFFFFFBEFA
BFF5CFE91DFA
BFF100000000
BFF100000000
BFF100000000
BFF100000000
BFF100000000
BFF100000000
BFF100000000
ENDCHAR
STARTCHAR paragraph
ENCODING 182
SWIDTH 434 0
DWIDTH 14 0
BBX 11 23 1 0
BITMAP
00016ABBBB40
005EFFFFFF60
05FFFFFFFF60
1EFFFFFFFF60
6FFFFFFFFF60
AFFFFFFFFF60
CFFFFFFFFF60
DFFFFFFFFF60
CFFFFFFFFF60
AFFFFFFFFF60
6FFFFFFFFF60
1EFFFFFFFF60
06FFFFFFFF60
007FFFFFFF60
00028BDEFF60
00000006FF60
00000006FF60
00000006FF60
00000006FF60
00000006FF60
00000006FF60
00000006FF60
00000006FF60
ENDCHAR
STARTCHAR periodcentered
ENCODING 183
SWIDTH 243 0
DWIDTH 8 0
BBX 4 4 2 9
BITMAP
5EC2
CFF7
AFF4
1640
ENDCHAR
STARTCHAR cedilla
ENCODING 184
SWIDTH 229 0
DWIDTH 7 0
BBX 5 7 1 -7
BITMAP
0CF300
0FFD30
04BFC0
002FF0
005FE0
1BFF70
0EC500
ENDCHAR
STARTCHAR uni00B9
ENCODING 185
SWIDTH 329 0
DWIDTH 11 0
BBX 6 13 1 10
BITMAP
00027D
04AFFF
2FFFFF
2C77FF
0005FF
0005FF
0005FF
0005FF
0005FF
0005FF
0005FF
0005FF
0005FF
ENDCHAR
STARTCHAR ordmasculine
ENCODING 186
SWIDTH 402 0
DWIDTH 13 0
BBX 10 12 1 11
BITMAP
0018DFD800
01CFFFFFB0
08FF849FF6
0DFA000CFC
1FF50007FE
2FF40006FF
2FF40006FF
1FF50007FE
0DFA000CFC
08FF739FF6
01CFFFFFB0
0018DFD800
ENDCHAR
STARTCHAR guillemotright
ENCODING 187
SWIDTH 417 0
DWIDTH 13 0
BBX 12 13 1 2
BITMAP
3FD107FA0000
0AF800DF4000
02FF306FD000
00AFB00DF700
002FF606FF20
000AFE10DFB0
0004FF608FF2
0009FE10DFB0
002FF606FF20
00AFB00DF700
02FF306FD000
0AF800DF4000
3FD107FA0000
ENDCHAR
STARTCHAR onequarter
ENCODING 188
SWIDTH 637 0
DWIDTH 20 0
BBX 19 23 1 0
BITMAP
0005B500000000000000
28EFF500000000000000
BFFFF50000003B100000
A94FF5000000AF600000
000FF5000003FD000000
000FF500000BF5000000
000FF500004FC0000000
000FF50000CF40000000
000FF50004FC00000000
000FF5000CF400000000
000FF5005FB000CFD000
000FF500DF3006FFD000
000FF505FA001EFFD000
0000000DF3008FEFD000
0000006FA002FE8FD000
000000DF200AF67FD000
000007F9004FC07FD000
00001EF200CF307FD000
00007F8004FFFFFFFF20
0001EE1005FFFFFFFF20
000078000000007FD000
000000000000007FD000
000000000000007FD000
ENDCHAR
STARTCHAR onehalf
ENCODING 189
SWIDTH 677 0
DWIDTH 22 0
BBX 19 23 1 0
BITMAP
0005B500000000000000
28EFF500000000000000
BFFFF5000000A5000000
A94FF5000004FC000000
000FF500000CF4000000
000FF500005FB0000000
000FF50000CF30000000
000FF50005FB00000000
000FF5000DF300000000
000FF5006FA000000000
000FF500DF205CFEA200
000FF506F906FFFFFD10
000FF51EF20EFA14FF60
0000007F903FF300CF80
000001EF20144000DF80
000008F800000004FF30
00001EE10000001DFB00
00008F80000000BFE200
0001EE1000000AFE3000
0009F70000007FF40000
0003B1000005FF600000
00000000000FFFFFFFF0
00000000000FFFFFFFF0
ENDCHAR
STARTCHAR threequarters
ENCODING 190
SWIDTH 673 0
DWIDTH 22 0
BBX 20 23 1 0
BITMAP
006CEDA2000000000000
09FFFFFE200000000000
1FF813EF800000860000
044100BF900002FE1000
000004EF500009F60000
0008FFF600002FD00000
0007CEFB1000AF600000
000001DF7003FD000000
0000009FB00BF5000000
3BB1009FB03FC0000000
1FF913EF80BF500BFE00
09FFFFFE14FC004FFE00
007DFEA20CF400DFFE00
000000005FB007FEFE00
00000000CF301EE7FE00
00000005FB009F76FE00
0000000DF303FD06FE00
0000006FA00BF406FE00
000000DF203FFFFFFFF4
000006F9003FFFFFFFF4
000002B200000006FE00
0000000000000006FE00
0000000000000006FE00
ENDCHAR
STARTCHAR questiondown
ENCODING 191
SWIDTH 421 0
DWIDTH 13 0
BBX 12 23 1 -6
BITMAP
00006EB00000
0000CFF40000
00009FE10000
000004200000
000000000000
000000000000
000047710000
0000AFF20000
0000CFF10000
0003FFB00000
000CFF400000
009FF9000000
04FFC1000000
0DFE20000000
5FF800000000
AFF100000000
CFE000000000
DFE00000AFF1
CFF10000DFE0
8FF90007FFA0
2FFFC9BFFF30
06FFFFFFF600
003AEFEA3000
ENDCHAR
STARTCHAR Agrave
ENCODING 192
SWIDTH 576 0
DWIDTH 18 0
BBX 18 30 0 0
BITMAP
00003FFF4000000000
000006FFD100000000
0000008FF900000000
0000000BFF40000000
00000001DC70000000
000000000000000000
000000000000000000
00000002FF90000000
00000007FFE0000000
0000000CFFF4000000
0000002FFFF9000000
0000007FFBFD000000
000000BFC5FF300000
000001FF71FF800000
000006FF20BFD00000
00000BFD006FF20000
00001FF8001FF70000
00005FF3000CFC0000
0000AFD00007FF2000
0000EF900002FF7000
0005FF400000CFB000
0009FFFFFFFFFFF100
000EFFFFFFFFFFF600
004FF97777777EFB00
009FF10000000AFF10
00DFC000000006FF50
03FF8000000002FFA0
08FF4000000000CFE1
0DFF10000000008FF5
3FFB00000000004FFA
ENDCHAR
STARTCHAR Aacute
ENCODING 193
SWIDTH 576 0
DWIDTH 18 0
BBX 18 30 0 0
BITMAP
0000000000AFFB0000
0000000005FFD10000
000000001EFE200000
00000000AFF4000000
00000001AD70000000
000000000000000000
000000000000000000
00000002FF90000000
00000007FFE0000000
0000000CFFF4000000
0000002FFFF9000000
0000007FFBFD000000
000000BFC5FF300000
000001FF71FF800000
000006FF20BFD00000
00000BFD006FF20000
00001FF8001FF70000
00005FF3000CFC0000
0000AFD00007FF2000
0000EF900002FF7000
0005FF400000CFB000
0009FFFFFFFFFFF100
000EFFFFFFFFFFF600
004FF97777777EFB00
009FF10000000AFF10
00DFC000000006FF50
03FF8000000002FFA0
08FF4000000000CFE1
0DFF10000000008FF5
3FFB00000000004FFA
ENDCHAR
STARTCHAR Acircumflex
ENCODING 194
SWIDTH 576 0
DWIDTH 18 0
BBX 18 29 0 0
BITMAP
00000002DF90000000
0000002DFDF8000000
000002DF92EF800000
000006CB004EB20000
000000000000000000
000000000000000000
00000002FF90000000
00000007FFE0000000
0000000CFFF4000000
0000002FFFF9000000
0000007FFBFD000000
000000BFC5FF300000
000001FF71FF800000
000006FF20BFD00000
00000BFD006FF20000
00001FF8001FF70000
00005FF3000CFC0000
0000AFD00007FF2000
0000EF900002FF7000
0005FF400000CFB000
0009FFFFFFFFFFF100
000EFFFFFFFFFFF600
004FF97777777EFB00
009FF10000000AFF10
00DFC000000006FF50
03FF8000000002FFA0
08FF4000000000CFE1
0DFF10000000008FF5
3FFB00000000004FFA
ENDCHAR
STARTCHAR Atilde
ENCODING 195
SWIDTH 576 0
DWIDTH 18 0
BBX 18 29 0 0
BITMAP
000000131000650000
000006EFE946FD0000
00002FFFFFFFF80000
00005E9139EE800000
000000000000000000
000000000000000000
00000002FF90000000
00000007FFE0000000
0000000CFFF4000000
0000002FFFF9000000
0000007FFBFD000000
000000BFC5FF300000
000001FF71FF800000
000006FF20BFD00000
00000BFD006FF20000
00001FF8001FF70000
00005FF3000CFC0000
0000AFD00007FF2000
0000EF900002FF7000
0005FF400000CFB000
0009FFFFFFFFFFF100
000EFFFFFFFFFFF600
004FF97777777EFB00
009FF10000000AFF10
00DFC000000006FF50
03FF8000000002FFA0
08FF4000000000CFE1
0DFF10000000008FF5
3FFB00000000004FFA
ENDCHAR
STARTCHAR Adieresis
ENCODING 196
SWIDTH 576 0
DWIDTH 18 0
BBX 18 29 0 0
BITMAP
000003300000310000
00007FF6000BFE2000
0000BFF9000FFF5000
00004ED30008EC1000
000000000000000000
000000000000000000
00000002FF90000000
00000007FFE0000000
0000000CFFF4000000
0000002FFFF9000000
0000007FFBFD000000
000000BFC5FF300000
000001FF71FF800000
000006FF20BFD00000
00000BFD006FF20000
00001FF8001FF70000
00005FF3000CFC0000
0000AFD00007FF2000
0000EF900002FF7000
0005FF400000CFB000
0009FFFFFFFFFFF100
000EFFFFFFFFFFF600
004FF97777777EFB00
009FF10000000AFF10
00DFC000000006FF50
03FF8000000002FFA0
08FF4000000000CFE1
0DFF10000000008FF5
3FFB00000000004FFA
ENDCHAR
STARTCHAR Aring
ENCODING 197
SWIDTH 576 0
DWIDTH 18 0
BBX 18 31 0 0
BITMAP
00000007DEB3000000
0000008F97DE200000
000000E9001F800000
000000E9001F800000
0000009F97CF300000
00000008DEC4000000
000000000000000000
000000000000000000
00000002FF90000000
00000007FFE0000000
0000000CFFF4000000
0000002FFFF9000000
0000007FFBFD000000
000000BFC5FF300000
000001FF71FF800000
000006FF20BFD00000
00000BFD006FF20000
00001FF8001FF70000
00005FF3000CFC0000
0000AFD00007FF2000
0000EF900002FF7000
0005FF400000CFB000
0009FFFFFFFFFFF100
000EFFFFFFFFFFF600
004FF97777777EFB00
009FF10000000AFF10
00DFC000000006FF50
03FF8000000002FFA0
08FF4000000000CFE1
0DFF10000000008FF5
3FFB00000000004FFA
ENDCHAR
STARTCHAR AE
ENCODING 198
SWIDTH 812 0
DWIDTH 26 0
BBX 26 23 0 0
BITMAP
00000000000BFFFFFFFFFFFF70
00000000004FFFFFFFFFFFFF70
0000000000BFFFF96666666620
0000000004FFDFF60000000000
000000000BFF6FF70000000000
000000004FF94FF70000000000
00000000BFF24FF80000000000
00000004FFA03FF80000000000
0000000BFF403FF90000000000
0000004FFC002FF90000000000
000000BFF5002FFFFFFFFFF600
000004FFD0001FFFFFFFFFF600
00000BFF60001FFC5555555200
00004FFE10000FFB0000000000
0000BFF700000FFC0000000000
0004FFFFFFFFFFFC0000000000
000CFFFFFFFFFFFD0000000000
004FFFBBBBBBBEFE0000000000
00CFF90000000DFE0000000000
04FFF20000000CFF0000000000
0CFF900000000CFF5555555551
4FFF200000000BFFFFFFFFFFF4
CFF9000000000AFFFFFFFFFFF4
ENDCHAR
STARTCHAR Ccedilla
ENCODING 199
SWIDTH 566 0
DWIDTH 18 0
BBX 16 30 1 -7
BITMAP
000005ADFEC81000
0001CFFFFFFFE400
001DFFE978CFFE20
009FFB100008FFB0
02FFD1000000DFF2
08FF700000008FF6
0BFF200000005FF9
0EFE000000002996
0FFD000000000000
1FFD000000000000
1FFC000000000000
1FFC000000000000
1FFC000000000000
1FFC000000000000
0FFD000000000000
0EFE000000002885
0BFF200000005FF9
08FF600000008FF6
02FFD0000000CFF2
00AFF9000007FFB0
001DFFD878CFFE20
0002CFFFFFFFE300
000006BEFEB71000
0000000BF3000000
0000000EFD300000
00000004BFD00000
000000001FF10000
000000004FE00000
0000000BFF800000
0000000EC6000000
ENDCHAR
STARTCHAR Egrave
ENCODING 200
SWIDTH 496 0
DWIDTH 16 0
BBX 13 30 2 0
BITMAP
02EFF600000000
004FFE20000000
0006FFB0000000
00009FF6000000
00000BC9000000
00000000000000
00000000000000
8FFFFFFFFFFF80
8FFFFFFFFFFF80
8FFA7777777740
8FF50000000000
8FF50000000000
8FF50000000000
8FF50000000000
8FF50000000000
8FF50000000000
8FF50000000000
8FFFFFFFFFF500
8FFFFFFFFFF500
8FF97777777200
8FF50000000000
8FF50000000000
8FF50000000000
8FF50000000000
8FF50000000000
8FF50000000000
8FF50000000000
8FF97777777750
8FFFFFFFFFFFA0
8FFFFFFFFFFFA0
ENDCHAR
STARTCHAR Eacute
ENCODING 201
SWIDTH 496 0
DWIDTH 16 0
BBX 13 30 2 0
BITMAP
00000007FFD100
0000003FFE2000
000000CFF40000
000007FF600000
000009D9000000
00000000000000
00000000000000
8FFFFFFFFFFF80
8FFFFFFFFFFF80
8FFA7777777740
8FF50000000000
8FF50000000000
8FF50000000000
8FF50000000000
8FF50000000000
8FF50000000000
8FF50000000000
8FFFFFFFFFF500
8FFFFFFFFFF500
8FF97777777200
8FF50000000000
8FF50000000000
8FF50000000000
8FF50000000000
8FF50000000000
8FF50000000000
8FF50000000000
8FF97777777750
8FFFFFFFFFFFA0
8FFFFFFFFFFFA0
ENDCHAR
STARTCHAR Ecircumflex
ENCODING 202
SWIDTH 496 0
DWIDTH 16 0
BBX 13 29 2 0
BITMAP
00001CFB000000
0001CFDFA00000
001CFB1CFA0000
005BD102DB3000
00000000000000
00000000000000
8FFFFFFFFFFF80
8FFFFFFFFFFF80
8FFA7777777740
8FF50000000000
8FF50000000000
8FF50000000000
8FF50000000000
8FF50000000000
8FF50000000000
8FF50000000000
8FFFFFFFFFF500
8FFFFFFFFFF500
8FF97777777200
8FF50000000000
8FF50000000000
8FF50000000000
8FF50000000000
8FF50000000000
8FF50000000000
8FF50000000000
8FF97777777750
8FFFFFFFFFFFA0
8FFFFFFFFFFFA0
ENDCHAR
STARTCHAR Edieresis
ENCODING 203
SWIDTH 496 0
DWIDTH 16 0
BBX 13 29 2 0
BITMAP
00230000032000
05FF80009FF400
08FFC000DFF800
03DE50006ED200
00000000000000
00000000000000
8FFFFFFFFFFF80
8FFFFFFFFFFF80
8FFA7777777740
8FF50000000000
8FF50000000000
8FF50000000000
8FF50000000000
8FF50000000000
8FF50000000000
8FF50000000000
8FFFFFFFFFF500
8FFFFFFFFFF500
8FF97777777200
8FF50000000000
8FF50000000000
8FF50000000000
8FF50000000000
8FF50000000000
8FF50000000000
8FF50000000000
8FF97777777750
8FFFFFFFFFFFA0
8FFFFFFFFFFFA0
ENDCHAR
STARTCHAR Igrave
ENCODING 204
SWIDTH 250 0
DWIDTH 8 0
BBX 7 30 -1 0
BITMAP
7FFD1000
0AFFA000
01CFF500
002EFE10
0004EB40
00000000
00000000
0006FF70
0006FF70
0006FF70
0006FF70
0006FF70
0006FF70
0006FF70
0006FF70
0006FF70
0006FF70
0006FF70
0006FF70
0006FF70
0006FF70
0006FF70
0006FF70
0006FF70
0006FF70
0006FF70
0006FF70
0006FF70
0006FF70
0006FF70
ENDCHAR
STARTCHAR Iacute
ENCODING 205
SWIDTH 250 0
DWIDTH 8 0
BBX 7 30 2 0
BITMAP
001DFF70
009FFA00
04FFC000
1DFD1000
4BD30000
00000000
00000000
6FF70000
6FF70000
6FF70000
6FF70000
6FF70000
6FF70000
6FF70000
6FF70000
6FF70000
6FF70000
6FF70000
6FF70000
6FF70000
6FF70000
6FF70000
6FF70000
6FF70000
6FF70000
6FF70000
6FF70000
6FF70000
6FF70000
6FF70000
ENDCHAR
STARTCHAR Icircumflex
ENCODING 206
SWIDTH 250 0
DWIDTH 8 0
BBX 8 29 0 0
BITMAP
005FF500
05FEEF40
4FF55FF4
9D8008D9
00000000
00000000
006FF700
006FF700
006FF700
006FF700
006FF700
006FF700
006FF700
006FF700
006FF700
006FF700
006FF700
006FF700
006FF700
006FF700
006FF700
006FF700
006FF700
006FF700
006FF700
006FF700
006FF700
006FF700
006FF700
ENDCHAR
STARTCHAR Idieresis
ENCODING 207
SWIDTH 250 0
DWIDTH 8 0
BBX 11 29 -1 0
BITMAP
142000014100
BFE2001EFC00
FFF5004FFF10
8EC1001BE900
000000000000
000000000000
0006FF700000
0006FF700000
0006FF700000
0006FF700000
0006FF700000
0006FF700000
0006FF700000
0006FF700000
0006FF700000
0006FF700000
0006FF700000
0006FF700000
0006FF700000
0006FF700000
0006FF700000
0006FF700000
0006FF700000
0006FF700000
0006FF700000
0006FF700000
0006FF700000
0006FF700000
0006FF700000
ENDCHAR
STARTCHAR Eth
ENCODING 208
SWIDTH 585 0
DWIDTH 19 0
BBX 17 23 0 0
BITMAP
001FFFFFFEB7100000
001FFFFFFFFFE60000
001FFD7779CFFF7000
001FFC000005EFF300
001FFC0000004FFB00
001FFC0000000BFF20
001FFC00000006FF60
001FFC00000004FF90
001FFC00000002FFA0
001FFC00000001FFB0
BFFFFFFFB00001FFB0
BFFFFFFFB00001FFB0
456FFD55400001FFB0
001FFC00000001FFB0
001FFC00000002FFA0
001FFC00000004FF90
001FFC00000007FF60
001FFC0000000CFF20
001FFC0000005FFB00
001FFC000005EFF300
001FFD7779DFFF7000
001FFFFFFFFFE60000
001FFFFFEDB7100000
ENDCHAR
STARTCHAR Ntilde
ENCODING 209
SWIDTH 619 0
DWIDTH 20 0
BBX 16 29 2 0
BITMAP
0000022000263000
0001BFFC64BF7000
0008FFFFFFFE2000
000BE316CEC40000
0000000000000000
0000000000000000
8FF9000000008FF5
8FFF200000008FF5
8FFF900000008FF5
8FFFF20000008FF5
8FFFFA0000008FF5
8FFDFF2000008FF5
8FF6EFA000008FF5
8FF58FF300008FF5
8FF51EFA00008FF5
8FF508FF30008FF5
8FF501EFB0008FF5
8FF5007FF3008FF5
8FF5001EFB008FF5
8FF50007FF408FF5
8FF50001EFC08FF5
8FF500006FF48FF5
8FF500000DFC8FF5
8FF5000006FFDFF5
8FF5000000DFFFF5
8FF50000005FFFF5
8FF50000000DFFF5
8FF500000005FFF5
8FF500000000CFF5
ENDCHAR
STARTCHAR Ograve
ENCODING 210
SWIDTH 600 0
DWIDTH 19 0
BBX 17 30 1 0
BITMAP
0000CFF90000000000
00001DFF4000000000
000003FFD100000000
0000006FFA00000000
00000009DA10000000
000000000000000000
000000000000000000
000006BDFEC7100000
0002CFFFFFFFE40000
001DFFFB9AEFFF3000
00AFFB100009FFD000
02FFD1000000BFF500
07FF600000003FFB00
0BFF200000000EFE00
0EFE000000000BFF20
0FFD000000000AFF30
1FFC0000000009FF40
1FFC0000000009FF40
1FFC0000000009FF40
1FFC0000000009FF40
1FFC0000000009FF40
0FFD000000000AFF30
0EFE000000000BFF20
0BFF200000000EFE00
08FF600000003FFB00
02FFD1000000AFF600
00AFFB100008FFD100
001DFFEA99DFFF4000
0002CFFFFFFFE50000
000006BEFEC7100000
ENDCHAR
STARTCHAR Oacute
ENCODING 211
SWIDTH 600 0
DWIDTH 19 0
BBX 17 30 1 0
BITMAP
0000000004FFE30000
000000001DFF500000
000000009FF7000000
00000004FFA0000000
00000007CB00000000
000000000000000000
000000000000000000
000006BDFEC7100000
0002CFFFFFFFE40000
001DFFFB9AEFFF3000
00AFFB100009FFD000
02FFD1000000BFF500
07FF600000003FFB00
0BFF200000000EFE00
0EFE000000000BFF20
0FFD000000000AFF30
1FFC0000000009FF40
1FFC0000000009FF40
1FFC0000000009FF40
1FFC0000000009FF40
1FFC0000000009FF40
0FFD000000000AFF30
0EFE000000000BFF20
0BFF200000000EFE00
08FF600000003FFB00
02FFD1000000AFF600
00AFFB100008FFD100
001DFFEA99DFFF4000
0002CFFFFFFFE50000
000006BEFEC7100000
ENDCHAR
STARTCHAR Ocircumflex
ENCODING 212
SWIDTH 600 0
DWIDTH 19 0
BBX 17 29 1 0
BITMAP
0000000AFD10000000
0000009FDFD1000000
000009FD1AFC100000
00003BE301CC600000
000000000000000000
000000000000000000
000006BDFEC7100000
0002CFFFFFFFE40000
001DFFFB9AEFFF3000
00AFFB100009FFD000
02FFD1000000BFF500
07FF600000003FFB00
0BFF200000000EFE00
0EFE000000000BFF20
0FFD000000000AFF30
1FFC0000000009FF40
1FFC0000000009FF40
1FFC0000000009FF40
1FFC0000000009FF40
1FFC0000000009FF40
0FFD000000000AFF30
0EFE000000000BFF20
0BFF200000000EFE00
08FF600000003FFB00
02FFD1000000AFF600
00AFFB100008FFD100
001DFFEA99DFFF4000
0002CFFFFFFFE50000
000006BEFEC7100000
ENDCHAR
STARTCHAR Otilde
ENCODING 213
SWIDTH 600 0
DWIDTH 19 0
BBX 17 29 1 0
BITMAP
000000220003620000
00002CFFB54CF40000
0000BFFFFFFFD00000
0000ED217DEB200000
000000000000000000
000000000000000000
000006BDFEC7100000
0002CFFFFFFFE40000
001DFFFB9AEFFF3000
00AFFB100009FFD000
02FFD1000000BFF500
07FF600000003FFB00
0BFF200000000EFE00
0EFE000000000BFF20
0FFD000000000AFF30
1FFC0000000009FF40
1FFC0000000009FF40
1FFC0000000009FF40
1FFC0000000009FF40
1FFC0000000009FF40
0FFD000000000AFF30
0EFE000000000BFF20
0BFF200000000EFE00
08FF600000003FFB00
02FFD1000000AFF600
00AFFB100008FFD100
001DFFEA99DFFF4000
0002CFFFFFFFE50000
000006BEFEC7100000
ENDCHAR
STARTCHAR Odieresis
ENCODING 214
SWIDTH 600 0
DWIDTH 19 0
BBX 17 29 1 0
BITMAP
000024100003300000
0002EFC0006FF70000
0005FFF0009FFB0000
0001CE80004DE50000
000000000000000000
000000000000000000
000006BDFEC7100000
0002CFFFFFFFE40000
001DFFFB9AEFFF3000
00AFFB100009FFD000
02FFD1000000BFF500
07FF600000003FFB00
0BFF200000000EFE00
0EFE000000000BFF20
0FFD000000000AFF30
1FFC0000000009FF40
1FFC0000000009FF40
1FFC0000000009FF40
1FFC0000000009FF40
1FFC0000000009FF40
0FFD000000000AFF30
0EFE000000000BFF20
0BFF200000000EFE00
08FF600000003FFB00
02FFD1000000AFF600
00AFFB100008FFD100
001DFFEA99DFFF4000
0002CFFFFFFFE50000
000006BEFEC7100000
ENDCHAR
STARTCHAR multiply
ENCODING 215
SWIDTH 470 0
DWIDTH 15 0
BBX 13 15 1 3
BITMAP
0480000000A300
3EF6000007FD20
3FFE30004FFE20
06FFD102EFF400
009FFB1CFF7000
001CFFDFFA0000
0002EFFFD10000
00007FFF400000
0002EFFFC10000
000CFFEFFA0000
009FFB1DFF7000
06FFD103EFF400
3FFF30005FFE20
2EF6000008FD10
0490000000A200
ENDCHAR
STARTCHAR Oslash
ENCODING 216
SWIDTH 600 0
DWIDTH 19 0
BBX 17 26 1 -2
BITMAP
000000000000005950
000004ADFEB601EE20
00009FFFFFFFC9F800
000AFFFB9AEFFFE100
006FFD30001BFFA000
00DFF3000003FFF200
05FFA000000AFFF800
09FF4000003FDFFD00
0DFF000000BF5CFF10
0FFC000004FC09FF30
1FFB00000CF408FF50
2FFA00005FB007FF50
3FFA0000CF3007FF60
2FFA0006FA0007FF50
1FFB000DF20008FF50
0FFC007F900009FF30
0DFE01EF20000BFF10
0AFF38F800001FFD00
05FFAEE100005FF800
00EFFF700001DFF300
005FFF40001BFF9000
000CFFFB9AEFFD1000
003FEFFFFFFFC20000
00AF54ADFEB6000000
03FC00000000000000
012100000000000000
ENDCHAR
STARTCHAR Ugrave
ENCODING 217
SWIDTH 561 0
DWIDTH 18 0
BBX 14 30 2 0
BITMAP
007FFD10000000
000AFF90000000
0001CFF4000000
00002EFD100000
000004EB400000
00000000000000
00000000000000
FFD00000000DFF
FFD00000000DFF
FFD00000000DFF
FFD00000000DFF
FFD00000000DFF
FFD00000000DFF
FFD00000000DFF
FFD00000000DFF
FFD00000000DFF
FFD00000000DFF
FFD00000000DFF
FFD00000000DFF
FFD00000000DFF
FFD00000000DFF
FFD00000000DFF
FFD00000000DFF
EFE00000000DFF
DFF00000000FFD
AFF50000005FFA
4FFD200002DFF4
0BFFE9779EFFA0
01BFFFFFFFFA10
0005ADFFDA4000
ENDCHAR
STARTCHAR Uacute
ENCODING 218
SWIDTH 561 0
DWIDTH 18 0
BBX 14 30 2 0
BITMAP
00000001DFF700
00000009FFA000
0000004FFC0000
000001DFD10000
000004BD300000
00000000000000
00000000000000
FFD00000000DFF
FFD00000000DFF
FFD00000000DFF
FFD00000000DFF
FFD00000000DFF
FFD00000000DFF
FFD00000000DFF
FFD00000000DFF
FFD00000000DFF
FFD00000000DFF
FFD00000000DFF
FFD00000000DFF
FFD00000000DFF
FFD00000000DFF
FFD00000000DFF
FFD00000000DFF
EFE00000000DFF
DFF00000000FFD
AFF50000005FFA
4FFD200002DFF4
0BFFE9779EFFA0
01BFFFFFFFFA10
0005ADFFDA4000
ENDCHAR
STARTCHAR Ucircumflex
ENCODING 219
SWIDTH 561 0
DWIDTH 18 0
BBX 14 29 2 0
BITMAP
000005FF500000
00005FEEF40000
0004FF45FE4000
0009D7008D9000
00000000000000
00000000000000
FFD00000000DFF
FFD00000000DFF
FFD00000000DFF
FFD00000000DFF
FFD00000000DFF
FFD00000000DFF
FFD00000000DFF
FFD00000000DFF
FFD00000000DFF
FFD00000000DFF
FFD00000000DFF
FFD00000000DFF
FFD00000000DFF
FFD00000000DFF
FFD00000000DFF
FFD00000000DFF
EFE00000000DFF
DFF00000000FFD
AFF50000005FFA
4FFD200002DFF4
0BFFE9779EFFA0
01BFFFFFFFFA10
0005ADFFDA4000
ENDCHAR
STARTCHAR Udieresis
ENCODING 220
SWIDTH 561 0
DWIDTH 18 0
BBX 14 29 2 0
BITMAP
00142000014100
00CFE2002EFC00
00FFF5004FFF10
008EC1001CE900
00000000000000
00000000000000
FFD00000000DFF
FFD00000000DFF
FFD00000000DFF
FFD00000000DFF
FFD00000000DFF
FFD00000000DFF
FFD00000000DFF
FFD00000000DFF
FFD00000000DFF
FFD00000000DFF
FFD00000000DFF
FFD00000000DFF
FFD00000000DFF
FFD00000000DFF
FFD00000000DFF
FFD00000000DFF
EFE00000000DFF
DFF00000000FFD
AFF50000005FFA
4FFD200002DFF4
0BFFE9779EFFA0
01BFFFFFFFFA10
0005ADFFDA4000
ENDCHAR
STARTCHAR Yacute
ENCODING 221
SWIDTH 524 0
DWIDTH 17 0
BBX 17 30 0 0
BITMAP
0000000007FFD10000
000000003FFE200000
00000000CFF4000000
00000007FF60000000
00000009D900000000
000000000000000000
000000000000000000
5FFE000000003FFE10
0DFF500000009FF900
06FFB0000001EFF200
01EFF2000006FFA000
008FF800000CFF4000
001FFE00003FFC0000
0009FF50009FF50000
0003FFB001EFD00000
0000BFF206FF700000
00004FF80CFE100000
00000CFE3FF8000000
000006FFDFF2000000
000000EFFFA0000000
0000007FFF30000000
0000002FFD00000000
0000001FFC00000000
0000001FFC00000000
0000001FFC00000000
0000001FFC00000000
0000001FFC00000000
0000001FFC00000000
0000001FFC00000000
0000001FFC00000000
ENDCHAR
STARTCHAR Thorn
ENCODING 222
SWIDTH 515 0
DWIDTH 16 0
BBX 14 23 2 0
BITMAP
9FF30000000000
9FF30000000000
9FF30000000000
9FF30000000000
9FF30000000000
9FFFFFFEB60000
9FFFFFFFFFC200
9FF76667DFFC00
9FF300001CFF60
9FF3000003FFC0
9FF3000000DFF0
9FF3000000BFF1
9FF3000000CFF0
9FF3000001EFD0
9FF3000008FF90
9FF300028FFE20
9FFFFFFFFFF500
9FFFFFFFFC4000
9FF76654200000
9FF30000000000
9FF30000000000
9FF30000000000
9FF30000000000
ENDCHAR
STARTCHAR germandbls
ENCODING 223
SWIDTH 521 0
DWIDTH 17 0
BBX 14 24 2 0
BITMAP
002AEFDA300000
03EFFFFFF40000
1DFF96AFFE0000
6FF80009FF4000
AFF20003FF7000
DFE00002FF7000
EFD00004FF5000
EFC0000AFF1000
EFC0002FFA0000
EFC0009FF40000
EFC000DFE00000
EFC000EFD00000
EFC000BFF30000
EFC0005FFD1000
EFC0000AFFD100
EFC00000BFFC10
EFC000000BFF90
EFC0000001DFF1
EFC00000008FF4
EFC00000008FF4
EFC0130000CFF2
EFC05FA67CFFC0
EFC09FFFFFFE30
EFC017CEFD9200
ENDCHAR
STARTCHAR agrave
ENCODING 224
SWIDTH 479 0
DWIDTH 15 0
BBX 13 24 1 0
BITMAP
008FFD10000000
000AFF90000000
0001DFF4000000
00002EFD100000
000004EB400000
00000000000000
00000000000000
00028DEEC71000
004EFFFFFFC100
02EFF967DFF900
09FF50001EFE00
0DFE00000BFF10
000000000AFF20
000000000AFF20
00028CEFFFFF20
007FFFFFFFFF20
06FFE8311AFF20
0DFE20000AFF20
2FF900000AFF20
3FF900000AFF20
1FFD00006FFF20
0CFFD99CFFFF30
03EFFFFFC9FF50
0029DFD815FF90
ENDCHAR
STARTCHAR aacute
ENCODING 225
SWIDTH 479 0
DWIDTH 15 0
BBX 13 24 1 0
BITMAP
00000001DFF700
0000000AFF9000
0000005FFB0000
000001EFD10000
000004BD200000
00000000000000
00000000000000
00028DEEC71000
004EFFFFFFC100
02EFF967DFF900
09FF50001EFE00
0DFE00000BFF10
000000000AFF20
000000000AFF20
00028CEFFFFF20
007FFFFFFFFF20
06FFE8311AFF20
0DFE20000AFF20
2FF900000AFF20
3FF900000AFF20
1FFD00006FFF20
0CFFD99CFFFF30
03EFFFFFC9FF50
0029DFD815FF90
ENDCHAR
STARTCHAR acircumflex
ENCODING 226
SWIDTH 479 0
DWIDTH 15 0
BBX 13 23 1 0
BITMAP
000006FF400000
00005FEEE40000
0005FF45FE4000
0009D7008D9000
00000000000000
00000000000000
00028DEEC71000
004EFFFFFFC100
02EFF967DFF900
09FF50001EFE00
0DFE00000BFF10
000000000AFF20
000000000AFF20
00028CEFFFFF20
007FFFFFFFFF20
06FFE8311AFF20
0DFE20000AFF20
2FF900000AFF20
3FF900000AFF20
1FFD00006FFF20
0CFFD99CFFFF30
03EFFFFFC9FF50
0029DFD815FF90
ENDCHAR
STARTCHAR atilde
ENCODING 227
SWIDTH 479 0
DWIDTH 15 0
BBX 13 23 1 0
BITMAP
00001200016300
000AFFD749F800
007FFFFFFFF300
00AF515BED5000
00000000000000
00000000000000
00028DEEC71000
004EFFFFFFC100
02EFF967DFF900
09FF50001EFE00
0DFE00000BFF10
000000000AFF20
000000000AFF20
00028CEFFFFF20
007FFFFFFFFF20
06FFE8311AFF20
0DFE20000AFF20
2FF900000AFF20
3FF900000AFF20
1FFD00006FFF20
0CFFD99CFFFF30
03EFFFFFC9FF50
0029DFD815FF90
ENDCHAR
STARTCHAR adieresis
ENCODING 228
SWIDTH 479 0
DWIDTH 15 0
BBX 13 23 1 0
BITMAP
00141000014000
00CFE2002EFC00
01FFF4005FFF00
009EB1001CE800
00000000000000
00000000000000
00028DEEC71000
004EFFFFFFC100
02EFF967DFF900
09FF50001EFE00
0DFE00000BFF10
000000000AFF20
000000000AFF20
00028CEFFFFF20
007FFFFFFFFF20
06FFE8311AFF20
0DFE20000AFF20
2FF900000AFF20
3FF900000AFF20
1FFD00006FFF20
0CFFD99CFFFF30
03EFFFFFC9FF50
0029DFD815FF90
ENDCHAR
STARTCHAR aring
ENCODING 229
SWIDTH 479 0
DWIDTH 15 0
BBX 13 25 1 0
BITMAP
00002AEE910000
0001DE78EC0000
0004F4006F3000
0005F4006F3000
0001DE78EC0000
00002AEEA10000
00000000000000
00000000000000
00028DEEC71000
004EFFFFFFC100
02EFF967DFF900
09FF50001EFE00
0DFE00000BFF10
000000000AFF20
000000000AFF20
00028CEFFFFF20
007FFFFFFFFF20
06FFE8311AFF20
0DFE20000AFF20
2FF900000AFF20
3FF900000AFF20
1FFD00006FFF20
0CFFD99CFFFF30
03EFFFFFC9FF50
0029DFD815FF90
ENDCHAR
STARTCHAR ae
ENCODING 230
SWIDTH 728 0
DWIDTH 23 0
BBX 22 17 1 0
BITMAP
0006BEFD92003AEFD81000
01BFFFFFFE36FFFFFFE300
0AFFE86AFFEFFE86AFFD00
2FFE2000AFFFE20007FF60
4FF800003FFF700001EFB0
002100001FFF100000BFE0
000000000FFD000000AFF1
0028BDEEEFFFFFFFFFFFF2
04EFFFFFFFFFFFFFFFFFF2
2EFFB6444FFC4444444440
7FF900000FFC0000000000
AFF300000FFF1000000000
AFF200000FFF7000000000
8FF60001AFFFE300001820
3FFF868DFFAFFF9669EF90
09FFFFFFF806FFFFFFFF70
006CFED9300029DEEC8200
ENDCHAR
STARTCHAR ccedilla
ENCODING 231
SWIDTH 461 0
DWIDTH 15 0
BBX 13 24 1 -7
BITMAP
00039DEEC71000
006FFFFFFFC100
04FFF967CFFA00
0CFF40000BFF30
2FFB000004FF70
5FF7000001EE90
7FF50000000000
7FF40000000000
8FF40000000000
7FF40000000000
7FF50000000000
5FF60000007740
2FFA000002FF80
0CFF30000AFF30
04FFF967BFFA00
006FFFFFFFB100
00039DFEC60000
00000BF4000000
00000EFD300000
000004AFD00000
0000001FF10000
0000004FE00000
00000BFF800000
00000DC6000000
ENDCHAR
STARTCHAR egrave
ENCODING 232
SWIDTH 468 0
DWIDTH 15 0
BBX 13 24 1 0
BITMAP
00BFFA00000000
001DFF50000000
0003EFE1000000
00005FFA000000
000008DA200000
00000000000000
00000000000000
00029DFEC70000
004EFFFFFFC100
02EFF968DFFA00
09FF40001CFF20
1EFB000006FF60
3FF7000002FF90
6FF5000001FFA0
7FFFFFFFFFFFB0
7FFFFFFFFFFFB0
7FF86666666640
6FF50000000000
5FF70000000000
2FFB0000000000
0BFF6000008A00
04FFFB668DFF60
006FFFFFFFF900
00029DEEDA4000
ENDCHAR
STARTCHAR eacute
ENCODING 233
SWIDTH 468 0
DWIDTH 15 0
BBX 13 24 1 0
BITMAP
00000003FFF400
0000000DFF6000
0000008FF80000
000003FFA00000
000007CC100000
00000000000000
00000000000000
00029DFEC70000
004EFFFFFFC100
02EFF968DFFA00
09FF40001CFF20
1EFB000006FF60
3FF7000002FF90
6FF5000001FFA0
7FFFFFFFFFFFB0
7FFFFFFFFFFFB0
7FF86666666640
6FF50000000000
5FF70000000000
2FFB0000000000
0BFF6000008A00
04FFFB668DFF60
006FFFFFFFF900
00029DEEDA4000
ENDCHAR
STARTCHAR ecircumflex
ENCODING 234
SWIDTH 468 0
DWIDTH 15 0
BBX 13 23 1 0
BITMAP
000009FD200000
00008FDFD20000
0008FE29FD2000
002BE400BC6000
00000000000000
00000000000000
00029DFEC70000
004EFFFFFFC100
02EFF968DFFA00
09FF40001CFF20
1EFB000006FF60
3FF7000002FF90
6FF5000001FFA0
7FFFFFFFFFFFB0
7FFFFFFFFFFFB0
7FF86666666640
6FF50000000000
5FF70000000000
2FFB0000000000
0BFF6000008A00
04FFFB668DFF60
006FFFFFFFF900
00029DEEDA4000
ENDCHAR
STARTCHAR edieresis
ENCODING 235
SWIDTH 468 0
DWIDTH 15 0
BBX 13 23 1 0
BITMAP
00141000023000
01EFC0005FF800
04FFF1008FFC00
01BE90003DE500
00000000000000
00000000000000
00029DFEC70000
004EFFFFFFC100
02EFF968DFFA00
09FF40001CFF20
1EFB000006FF60
3FF7000002FF90
6FF5000001FFA0
7FFFFFFFFFFFB0
7FFFFFFFFFFFB0
7FF86666666640
6FF50000000000
5FF70000000000
2FFB0000000000
0BFF6000008A00
04FFFB668DFF60
006FFFFFFFF900
00029DEEDA4000
ENDCHAR
STARTCHAR igrave
ENCODING 236
SWIDTH 234 0
DWIDTH 8 0
BBX 7 24 -1 0
BITMAP
BFFB0000
1DFF6000
02EFE200
004FFB00
0007DA20
00000000
00000000
000BFF10
000BFF10
000BFF10
000BFF10
000BFF10
000BFF10
000BFF10
000BFF10
000BFF10
000BFF10
000BFF10
000BFF10
000BFF10
000BFF10
000BFF10
000BFF10
000BFF10
ENDCHAR
STARTCHAR iacute
ENCODING 237
SWIDTH 234 0
DWIDTH 8 0
BBX 7 24 2 0
BITMAP
003FFF40
00CFF600
08FF8000
3FFB0000
6CC10000
00000000
00000000
BFF10000
BFF10000
BFF10000
BFF10000
BFF10000
BFF10000
BFF10000
BFF10000
BFF10000
BFF10000
BFF10000
BFF10000
BFF10000
BFF10000
BFF10000
BFF10000
BFF10000
ENDCHAR
STARTCHAR icircumflex
ENCODING 238
SWIDTH 234 0
DWIDTH 8 0
BBX 9 23 -1 0
BITMAP
0008FE2000
008FDFD200
08FE28FD20
2AE400BC70
0000000000
0000000000
000BFF1000
000BFF1000
000BFF1000
000BFF1000
000BFF1000
000BFF1000
000BFF1000
000BFF1000
000BFF1000
000BFF1000
000BFF1000
000BFF1000
000BFF1000
000BFF1000
000BFF1000
000BFF1000
000BFF1000
ENDCHAR
STARTCHAR idieresis
ENCODING 239
SWIDTH 234 0
DWIDTH 8 0
BBX 11 23 -2 0
BITMAP
014100002300
1EFD0004FF90
4FFF1008FFC0
0BE90003DE60
000000000000
000000000000
0000BFF10000
0000BFF10000
0000BFF10000
0000BFF10000
0000BFF10000
0000BFF10000
0000BFF10000
0000BFF10000
0000BFF10000
0000BFF10000
0000BFF10000
0000BFF10000
0000BFF10000
0000BFF10000
0000BFF10000
0000BFF10000
0000BFF10000
ENDCHAR
STARTCHAR eth
ENCODING 240
SWIDTH 513 0
DWIDTH 16 0
BBX 14 24 1 0
BITMAP
000C9300000000
004FFFB2008900
004CFFFE6BFE10
00004CFFFFC200
000000CFFF4000
00001AFEFFD100
0000BFC29FF900
000049001DFE10
0000000006FF70
00006CEEA3FFB0
001CFFFFFEEFE0
00AFFE868EFFF3
04FFD10002DFF4
0AFF4000006FF5
0EFD0000005FF6
1FFA0000005FF6
2FF90000006FF5
1FFA0000008FF4
0EFD000000BFF1
0AFF400002FFB0
04FFC1000AFF50
00AFFD76BFFB00
001AFFFFFFB100
00005BEFC70000
ENDCHAR
STARTCHAR ntilde
ENCODING 241
SWIDTH 483 0
DWIDTH 15 0
BBX 12 23 2 0
BITMAP
000220002630
01BFFC64BF60
09FFFFFFFE10
0CE316CEC400
000000000000
000000000000
EFA06CEEB300
EFBAFFFFFF30
EFFFD88DFFC0
EFFB1001DFF2
EFE200008FF5
EFC000006FF6
EFC000005FF6
EFC000005FF6
EFC000005FF6
EFC000005FF6
EFC000005FF6
EFC000005FF6
EFC000005FF6
EFC000005FF6
EFC000005FF6
EFC000005FF6
EFC000005FF6
ENDCHAR
STARTCHAR ograve
ENCODING 242
SWIDTH 501 0
DWIDTH 16 0
BBX 14 24 1 0
BITMAP
009FFC00000000
000BFF80000000
0001DFF3000000
00003FFC000000
000005EB300000
00000000000000
00000000000000
00018CEEC81000
003EFFFFFFE300
01EFFB77BFFE20
09FF800008FFA0
1FFD000000DFF1
4FF80000007FF5
7FF50000004FF7
7FF40000003FF8
8FF40000003FF8
8FF40000003FF8
7FF50000004FF7
4FF80000006FF5
1FFD000000BFF1
0AFF800005FFA0
02EFFB66AFFE20
003EFFFFFFE300
00018CEED81000
ENDCHAR
STARTCHAR oacute
ENCODING 243
SWIDTH 501 0
DWIDTH 16 0
BBX 14 24 1 0
BITMAP
00000002EFF600
0000000BFF8000
0000006FFA0000
000002EFC10000
000005BD200000
00000000000000
00000000000000
00018CEEC81000
003EFFFFFFE300
01EFFB77BFFE20
09FF800008FFA0
1FFD000000DFF1
4FF80000007FF5
7FF50000004FF7
7FF40000003FF8
8FF40000003FF8
8FF40000003FF8
7FF50000004FF7
4FF80000006FF5
1FFD000000BFF1
0AFF800005FFA0
02EFFB66AFFE20
003EFFFFFFE300
00018CEED81000
ENDCHAR
STARTCHAR ocircumflex
ENCODING 244
SWIDTH 501 0
DWIDTH 16 0
BBX 14 23 1 0
BITMAP
000007FE300000
00006FEFE30000
0006FF36FE3000
001AD600AD8000
00000000000000
00000000000000
00018CEEC81000
003EFFFFFFE300
01EFFB77BFFE20
09FF800008FFA0
1FFD000000DFF1
4FF80000007FF5
7FF50000004FF7
7FF40000003FF8
8FF40000003FF8
8FF40000003FF8
7FF50000004FF7
4FF80000006FF5
1FFD000000BFF1
0AFF800005FFA0
02EFFB66AFFE20
003EFFFFFFE300
00018CEED81000
ENDCHAR
STARTCHAR otilde
ENCODING 245
SWIDTH 501 0
DWIDTH 16 0
BBX 14 23 1 0
BITMAP
00002200026300
001BFFC64AF700
008FFFFFFFF200
00BF415CEC4000
00000000000000
00000000000000
00018CEEC81000
003EFFFFFFE300
01EFFB77BFFE20
09FF800008FFA0
1FFD000000DFF1
4FF80000007FF5
7FF50000004FF7
7FF40000003FF8
8FF40000003FF8
8FF40000003FF8
7FF50000004FF7
4FF80000006FF5
1FFD000000BFF1
0AFF800005FFA0
02EFFB66AFFE20
003EFFFFFFE300
00018CEED81000
ENDCHAR
STARTCHAR odieresis
ENCODING 246
SWIDTH 501 0
DWIDTH 16 0
BBX 14 23 1 0
BITMAP
00141000023000
00DFE1003FFA00
02FFF3006FFE00
00AEB0001CE700
00000000000000
00000000000000
00018CEEC81000
003EFFFFFFE300
01EFFB77BFFE20
09FF800008FFA0
1FFD000000DFF1
4FF80000007FF5
7FF50000004FF7
7FF40000003FF8
8FF40000003FF8
8FF40000003FF8
7FF50000004FF7
4FF80000006FF5
1FFD000000BFF1
0AFF800005FFA0
02EFFB66AFFE20
003EFFFFFFE300
00018CEED81000
ENDCHAR
STARTCHAR divide
ENCODING 247
SWIDTH 500 0
DWIDTH 16 0
BBX 14 17 1 2
BITMAP
00000297000000
00000AFF600000
00000BFF700000
000003BA100000
00000000000000
00000000000000
00000000000000
CFFFFFFFFFFFF5
CFFFFFFFFFFFF5
ADDDDDDDDDDDD5
00000000000000
00000000000000
00000000000000
000004CB100000
00000BFF700000
00000AFF500000
00000176000000
ENDCHAR
STARTCHAR oslash
ENCODING 248
SWIDTH 498 0
DWIDTH 16 0
BBX 14 21 1 -2
BITMAP
00000000006A20
0000000000ED00
00007CEEC9F600
001CFFFFFFF200
00CFFC76CFFC00
06FFA000AFFF60
0DFE1001FCEFD0
2FFA0007F5AFF2
5FF7000ED06FF6
7FF5005F705FF7
7FF400CE104FF8
6FF503F9004FF7
5FF609F3006FF6
2FF91FB0009FF3
0DFE8F5001EFD0
06FFFD0009FF70
00CFFC66BFFC00
001EFFFFFFD200
003FCCEEC70000
009F3000000000
00B90000000000
ENDCHAR
STARTCHAR ugrave
ENCODING 249
SWIDTH 483 0
DWIDTH 15 0
BBX 12 24 2 0
BITMAP
0BFFA0000000
01DFF5000000
003EFE100000
0005FFA00000
00008DA20000
000000000000
000000000000
FFC000006FF6
FFC000006FF6
FFC000006FF6
FFC000006FF6
FFC000006FF6
FFC000006FF6
FFC000006FF6
FFC000006FF6
FFC000006FF6
FFC000006FF6
FFC000006FF6
EFD000006FF6
DFE000008FF6
AFF60004EFF6
5FFF97AFFFF6
0BFFFFFFAFF6
007DFEB44FF6
ENDCHAR
STARTCHAR uacute
ENCODING 250
SWIDTH 483 0
DWIDTH 15 0
BBX 12 24 2 0
BITMAP
0000003FFF40
000000DFF600
000008FF8000
00003FFA0000
00007CC10000
000000000000
000000000000
FFC000006FF6
FFC000006FF6
FFC000006FF6
FFC000006FF6
FFC000006FF6
FFC000006FF6
FFC000006FF6
FFC000006FF6
FFC000006FF6
FFC000006FF6
FFC000006FF6
EFD000006FF6
DFE000008FF6
AFF60004EFF6
5FFF97AFFFF6
0BFFFFFFAFF6
007DFEB44FF6
ENDCHAR
STARTCHAR ucircumflex
ENCODING 251
SWIDTH 483 0
DWIDTH 15 0
BBX 12 23 2 0
BITMAP
00009FD20000
0008FDFD2000
008FE29FD200
02BE400BC600
000000000000
000000000000
FFC000006FF6
FFC000006FF6
FFC000006FF6
FFC000006FF6
FFC000006FF6
FFC000006FF6
FFC000006FF6
FFC000006FF6
FFC000006FF6
FFC000006FF6
FFC000006FF6
EFD000006FF6
DFE000008FF6
AFF60004EFF6
5FFF97AFFFF6
0BFFFFFFAFF6
007DFEB44FF6
ENDCHAR
STARTCHAR udieresis
ENCODING 252
SWIDTH 483 0
DWIDTH 15 0
BBX 12 23 2 0
BITMAP
014100002300
1EFC0005FF80
4FFF1008FFC0
1BE90003DE50
000000000000
000000000000
FFC000006FF6
FFC000006FF6
FFC000006FF6
FFC000006FF6
FFC000006FF6
FFC000006FF6
FFC000006FF6
FFC000006FF6
FFC000006FF6
FFC000006FF6
FFC000006FF6
EFD000006FF6
DFE000008FF6
AFF60004EFF6
5FFF97AFFFF6
0BFFFFFFAFF6
007DFEB44FF6
ENDCHAR
STARTCHAR yacute
ENCODING 253
SWIDTH 416 0
DWIDTH 13 0
BBX 13 31 0 -7
BITMAP
00000001DFF700
0000000AFF9000
0000005FFB0000
000001EFD10000
000004BD200000
00000000000000
00000000000000
5FFA000005FF80
1FFE000009FF40
0BFF30000DFE00
06FF70002FFB00
02FFA0005FF600
00DFE0009FF200
008FF300DFD000
004FF701FF9000
000EFA05FF4000
000AFE09FF1000
0006FF3DFB0000
0001FF8FF70000
0000CFEFF20000
00008FFFD00000
00003FFF900000
00000EFF500000
000009FF100000
00000AFB000000
00000EF7000000
00004FF3000000
0001CFC0000000
059DFF50000000
09FFFA00000000
08EE8000000000
ENDCHAR
STARTCHAR thorn
ENCODING 254
SWIDTH 508 0
DWIDTH 16 0
BBX 13 31 2 -7
BITMAP
CFF00000000000
CFF00000000000
CFF00000000000
CFF00000000000
CFF00000000000
CFF00000000000
CFF00000000000
CFF07CEEA30000
CFFBFFFFFF5000
CFFFD88DFFE100
CFFA0000BFF800
CFF100002FFD00
CFF000000BFF20
CFF0000007FF40
CFF0000006FF50
CFF0000005FF60
CFF0000006FF60
CFF0000007FF50
CFF000000AFF20
CFF000001EFE00
CFF90000AFF800
CFFFB66CFFE100
CFFCFFFFFF5000
CFF17CFEB30000
CFF00000000000
CFF00000000000
CFF00000000000
CFF00000000000
CFF00000000000
CFF00000000000
CFF00000000000
ENDCHAR
STARTCHAR ydieresis
ENCODING 255
SWIDTH 416 0
DWIDTH 13 0
BBX 13 30 0 -7
BITMAP
00141000014000
00CFE2002EFC00
01FFF4005FFF00
009EB1001CE800
00000000000000
00000000000000
5FFA000005FF80
1FFE000009FF40
0BFF30000DFE00
06FF70002FFB00
02FFA0005FF600
00DFE0009FF200
008FF300DFD000
004FF701FF9000
000EFA05FF4000
000AFE09FF1000
0006FF3DFB0000
0001FF8FF70000
0000CFEFF20000
00008FFFD00000
00003FFF900000
00000EFF500000
000009FF100000
00000AFB000000
00000EF7000000
00004FF3000000
0001CFC0000000
059DFF50000000
09FFFA00000000
08EE8000000000
ENDCHAR
STARTCHAR Amacron
ENCODING 256
SWIDTH 576 0
DWIDTH 18 0
BBX 18 29 0 0
BITMAP
000014444444430000
00003FFFFFFFFD0000
00003FFFFFFFFD0000
000000000000000000
000000000000000000
000000000000000000
00000002FF90000000
00000007FFE0000000
0000000CFFF4000000
0000002FFFF9000000
0000007FFBFD000000
000000BFC5FF300000
000001FF71FF800000
000006FF20BFD00000
00000BFD006FF20000
00001FF8001FF70000
00005FF3000CFC0000
0000AFD00007FF2000
0000EF900002FF7000
0005FF400000CFB000
0009FFFFFFFFFFF100
000EFFFFFFFFFFF600
004FF97777777EFB00
009FF10000000AFF10
00DFC000000006FF50
03FF8000000002FFA0
08FF4000000000CFE1
0DFF10000000008FF5
3FFB00000000004FFA
ENDCHAR
STARTCHAR amacron
ENCODING 257
SWIDTH 479 0
DWIDTH 15 0
BBX 13 24 1 0
BITMAP
00244444444200
008FFFFFFFF800
008FFFFFFFF800
00000000000000
00000000000000
00000000000000
00000000000000
00028DEEC71000
004EFFFFFFC100
02EFF967DFF900
09FF50001EFE00
0DFE00000BFF10
000000000AFF20
000000000AFF20
00028CEFFFFF20
007FFFFFFFFF20
06FFE8311AFF20
0DFE20000AFF20
2FF900000AFF20
3FF900000AFF20
1FFD00006FFF20
0CFFD99CFFFF30
03EFFFFFC9FF50
0029DFD815FF90
ENDCHAR
STARTCHAR Abreve
ENCODING 258
SWIDTH 576 0
DWIDTH 18 0
BBX 18 28 0 0
BITMAP
00005DD10006DC0000
00002FF8002DFB0000
000008FFEDFFE20000
0000005BEFD9200000
000000000000000000
00000002FF90000000
00000007FFE0000000
0000000CFFF4000000
0000002FFFF9000000
0000007FFBFD000000
000000BFC5FF300000
000001FF71FF800000
000006FF20BFD00000
00000BFD006FF20000
00001FF8001FF70000
00005FF3000CFC0000
0000AFD00007FF2000
0000EF900002FF7000
0005FF400000CFB000
0009FFFFFFFFFFF100
000EFFFFFFFFFFF600
004FF97777777EFB00
009FF10000000AFF10
00DFC000000006FF50
03FF8000000002FFA0
08FF4000000000CFE1
0DFF10000000008FF5
3FFB00000000004FFA
ENDCHAR
STARTCHAR abreve
ENCODING 259
SWIDTH 479 0
DWIDTH 15 0
BBX 13 23 1 0
BITMAP
009D90000AD800
007FF4005FF600
001CFFEEFFB000
00017CFFC70000
00000000000000
00000000000000
00028DEEC71000
004EFFFFFFC100
02EFF967DFF900
09FF50001EFE00
0DFE00000BFF10
000000000AFF20
000000000AFF20
00028CEFFFFF20
007FFFFFFFFF20
06FFE8311AFF20
0DFE20000AFF20
2FF900000AFF20
3FF900000AFF20
1FFD00006FFF20
0CFFD99CFFFF30
03EFFFFFC9FF50
0029DFD815FF90
ENDCHAR
STARTCHAR Aogonek
ENCODING 260
SWIDTH 576 0
DWIDTH 18 0
BBX 18 30 0 -7
BITMAP
00000002FF90000000
00000007FFE0000000
0000000CFFF4000000
0000002FFFF9000000
0000007FFBFD000000
000000BFC5FF300000
000001FF71FF800000
000006FF20BFD00000
00000BFD006FF20000
00001FF8001FF70000
00005FF3000CFC0000
0000AFD00007FF2000
0000EF900002FF7000
0005FF400000CFB000
0009FFFFFFFFFFF100
000EFFFFFFFFFFF600
004FF97777777EFB00
009FF10000000AFF10
00DFC000000006FF50
03FF8000000002FFA0
08FF4000000000DFE1
0DFF10000000009FF5
3FFB00000000005FFA
00000000000000AFA0
00000000000009FC00
0000000000002FF400
0000000000005FF100
0000000000005FF642
0000000000001EFFF6
00000000000004DEB3
ENDCHAR
STARTCHAR aogonek
ENCODING 261
SWIDTH 479 0
DWIDTH 15 0
BBX 13 24 1 -7
BITMAP
00028DEEC71000
004EFFFFFFC100
02EFF967DFF900
09FF50001EFE00
0DFE00000BFF10
000000000AFF20
000000000AFF20
00028CEFFFFF20
007FFFFFFFFF20
06FFE8311AFF20
0DFE20000AFF20
2FF900000AFF20
3FF900000AFF20
1FFD00006FFF20
0CFFD99CFFFF30
03EFFFFFC9FF50
0029DFD816FF90
000000001BF900
00000000AFB000
00000003FF3000
00000006FE0000
00000006FF5420
00000002FFFF40
000000005DEB20
ENDCHAR
STARTCHAR Cacute
ENCODING 262
SWIDTH 566 0
DWIDTH 18 0
BBX 16 30 1 0
BITMAP
000000000AFFB000
000000005FFD1000
00000001EFE20000
0000000AFF400000
0000002AE6000000
0000000000000000
0000000000000000
000005ADFEC81000
0001CFFFFFFFE400
001DFFE978CFFE20
009FFB100008FFB0
02FFD1000000DFF2
08FF700000008FF6
0BFF200000005FF9
0EFE000000002996
0FFD000000000000
1FFD000000000000
1FFC000000000000
1FFC000000000000
1FFC000000000000
1FFC000000000000
0FFD000000000000
0EFE000000002885
0BFF200000005FF9
08FF600000008FF6
02FFD0000000CFF2
00AFF9000007FFB0
001DFFD878CFFE20
0002CFFFFFFFE300
000006BEFEB71000
ENDCHAR
STARTCHAR cacute
ENCODING 263
SWIDTH 461 0
DWIDTH 15 0
BBX 13 24 1 0
BITMAP
0000000AFFB000
0000005FFD1000
000001EFE20000
00000AFF400000
00002AD6000000
00000000000000
00000000000000
00039DEEC71000
006FFFFFFFC100
04FFF967CFFA00
0CFF40000BFF30
2FFB000004FF70
5FF7000001EE90
7FF50000000000
7FF40000000000
8FF40000000000
7FF40000000000
7FF50000000000
5FF60000007740
2FFA000002FF80
0CFF30000AFF30
04FFF967BFFA00
006FFFFFFFB100
00039DFEC60000
ENDCHAR
STARTCHAR Ccircumflex
ENCODING 264
SWIDTH 566 0
DWIDTH 18 0
BBX 16 29 1 0
BITMAP
0000002EF8000000
000002EFDF800000
00002DF82EF70000
00007CB004EA2000
0000000000000000
0000000000000000
000005ADFEC81000
0001CFFFFFFFE400
001DFFE978CFFE20
009FFB100008FFB0
02FFD1000000DFF2
08FF700000008FF6
0BFF200000005FF9
0EFE000000002996
0FFD000000000000
1FFD000000000000
1FFC000000000000
1FFC000000000000
1FFC000000000000
1FFC000000000000
0FFD000000000000
0EFE000000002885
0BFF200000005FF9
08FF600000008FF6
02FFD0000000CFF2
00AFF9000007FFB0
001DFFD878CFFE20
0002CFFFFFFFE300
000006BEFEB71000
ENDCHAR
STARTCHAR ccircumflex
ENCODING 265
SWIDTH 461 0
DWIDTH 15 0
BBX 13 23 1 0
BITMAP
00002EF8000000
0002DFDF800000
002DF82EF70000
007CB004EA2000
00000000000000
00000000000000
00039DEEC71000
006FFFFFFFC100
04FFF967CFFA00
0CFF40000BFF30
2FFB000004FF70
5FF7000001EE90
7FF50000000000
7FF40000000000
8FF40000000000
7FF40000000000
7FF50000000000
5FF60000007740
2FFA000002FF80
0CFF30000AFF30
04FFF967BFFA00
006FFFFFFFB100
00039DFEC60000
ENDCHAR
STARTCHAR Cdotaccent
ENCODING 266
SWIDTH 566 0
DWIDTH 18 0
BBX 16 29 1 0
BITMAP
0000000240000000
0000003FFA000000
0000006FFE000000
0000002CE7000000
0000000000000000
0000000000000000
000005ADFEC81000
0001CFFFFFFFE400
001DFFE978CFFE20
009FFB100008FFB0
02FFD1000000DFF2
08FF700000008FF6
0BFF200000005FF9
0EFE000000002996
0FFD000000000000
1FFD000000000000
1FFC000000000000
1FFC000000000000
1FFC000000000000
1FFC000000000000
0FFD000000000000
0EFE000000002885
0BFF200000005FF9
08FF600000008FF6
02FFD0000000CFF2
00AFF9000007FFB0
001DFFD878CFFE20
0002CFFFFFFFE300
000006BEFEB71000
ENDCHAR
STARTCHAR cdotaccent
ENCODING 267
SWIDTH 461 0
DWIDTH 15 0
BBX 13 23 1 0
BITMAP
00000240000000
00003FFA000000
00006FFE000000
00002CE7000000
00000000000000
00000000000000
00039DEEC71000
006FFFFFFFC100
04FFF967CFFA00
0CFF40000BFF30
2FFB000004FF70
5FF7000001EE90
7FF50000000000
7FF40000000000
8FF40000000000
7FF40000000000
7FF50000000000
5FF60000007740
2FFA000002FF80
0CFF30000AFF30
04FFF967BFFA00
006FFFFFFFB100
00039DFEC60000
ENDCHAR
STARTCHAR Ccaron
ENCODING 268
SWIDTH 566 0
DWIDTH 18 0
BBX 16 29 1 0
BITMAP
00009FB005FE3000
00000BF82EF40000
000001DFDF500000
0000002EF7000000
0000000000000000
0000000000000000
000005ADFEC81000
0001CFFFFFFFE400
001DFFE978CFFE20
009FFB100008FFB0
02FFD1000000DFF2
08FF700000008FF6
0BFF200000005FF9
0EFE000000002996
0FFD000000000000
1FFD000000000000
1FFC000000000000
1FFC000000000000
1FFC000000000000
1FFC000000000000
0FFD000000000000
0EFE000000002885
0BFF200000005FF9
08FF600000008FF6
02FFD0000000CFF2
00AFF9000007FFB0
001DFFD878CFFE20
0002CFFFFFFFE300
000006BEFEB71000
ENDCHAR
STARTCHAR ccaron
ENCODING 269
SWIDTH 461 0
DWIDTH 15 0
BBX 13 23 1 0
BITMAP
009FB004FE3000
000BF82EF40000
0001CFDF600000
00002EF7000000
00000000000000
00000000000000
00039DEEC71000
006FFFFFFFC100
04FFF967CFFA00
0CFF40000BFF30
2FFB000004FF70
5FF7000001EE90
7FF50000000000
7FF40000000000
8FF40000000000
7FF40000000000
7FF50000000000
5FF60000007740
2FFA000002FF80
0CFF30000AFF30
04FFF967BFFA00
006FFFFFFFB100
00039DFEC60000
ENDCHAR
STARTCHAR Dcaron
ENCODING 270
SWIDTH 570 0
DWIDTH 18 0
BBX 15 29 2 0
BITMAP
008FC103FF400000
000AFA1DF5000000
0000BFDF70000000
00001DF900000000
0000000000000000
0000000000000000
8FFFFFED94000000
8FFFFFFFFFB20000
8FFA778AEFFD2000
8FF500001AFFB000
8FF5000000BFF400
8FF50000003FFA00
8FF50000000DFE00
8FF50000000BFF20
8FF500000009FF30
8FF500000009FF40
8FF500000008FF40
8FF500000008FF40
8FF500000008FF40
8FF500000009FF40
8FF500000009FF30
8FF50000000BFF20
8FF50000000EFE00
8FF50000004FFA00
8FF5000000CFF400
8FF500001BFFB000
8FF9778AEFFD2000
8FFFFFFFFFB10000
8FFFFFEC94000000
ENDCHAR
STARTCHAR dcaron
ENCODING 271
SWIDTH 569 0
DWIDTH 18 0
BBX 17 24 1 0
BITMAP
0000000001FFA09FF0
0000000001FFA0AFE0
0000000001FFA0CFD0
0000000001FFA1EF80
0000000001FFA6FF20
0000000001FFA1A600
0000000001FFA00000
0005BEEC61FFA00000
009FFFFFF9FFA00000
05FFFA78DFFFA00000
0DFF50001BFFA00000
2FFB000002FFA00000
5FF7000001FFA00000
7FF5000001FFA00000
8FF4000001FFA00000
8FF4000001FFA00000
8FF4000001FFA00000
7FF5000001FFA00000
5FF7000001FFA00000
2FFB000002FFA00000
0CFF50000BFFA00000
05FFFA78DFFFA00000
008FFFFFF8EFA00000
0005BEEC50DFA00000
ENDCHAR
STARTCHAR Dcroat
ENCODING 272
SWIDTH 585 0
DWIDTH 19 0
BBX 17 23 0 0
BITMAP
001FFFFFFEB7100000
001FFFFFFFFFE60000
001FFD7779CFFF7000
001FFC000005EFF300
001FFC0000004FFB00
001FFC0000000BFF20
001FFC00000006FF60
001FFC00000004FF90
001FFC00000002FFA0
001FFC00000001FFB0
BFFFFFFFB00001FFB0
BFFFFFFFB00001FFB0
456FFD55400001FFB0
001FFC00000001FFB0
001FFC00000002FFA0
001FFC00000004FF90
001FFC00000007FF60
001FFC0000000CFF20
001FFC0000005FFB00
001FFC000005EFF300
001FFD7779DFFF7000
001FFFFFFFFFE60000
001FFFFFEDB7100000
ENDCHAR
STARTCHAR dcroat
ENCODING 273
SWIDTH 529 0
DWIDTH 17 0
BBX 16 24 1 0
BITMAP
0000000001FFA000
0000000001FFA000
0000004FFFFFFFF3
0000004FFFFFFFF3
0000001556FFC551
0000000001FFA000
0000000001FFA000
0003AEEC61FFA000
004FFFFFFBFFA000
01EFFC88DFFFA000
09FF90001CFFA000
0EFE100003FFA000
3FF9000001FFA000
6FF6000001FFA000
7FF4000001FFA000
7FF4000001FFA000
7FF4000001FFA000
5FF6000001FFA000
3FF9000001FFA000
0EFE100003FFA000
08FF90001CFFA000
01EFFC78DFFFA000
003EFFFFFDFFA000
0003AEFD81DFA000
ENDCHAR
STARTCHAR Emacron
ENCODING 274
SWIDTH 496 0
DWIDTH 16 0
BBX 13 29 2 0
BITMAP
00444444444000
00FFFFFFFFF100
00FFFFFFFFF100
00000000000000
00000000000000
00000000000000
8FFFFFFFFFFF80
8FFFFFFFFFFF80
8FFA7777777740
8FF50000000000
8FF50000000000
8FF50000000000
8FF50000000000
8FF50000000000
8FF50000000000
8FF50000000000
8FFFFFFFFFF500
8FFFFFFFFFF500
8FF97777777200
8FF50000000000
8FF50000000000
8FF50000000000
8FF50000000000
8FF50000000000
8FF50000000000
8FF50000000000
8FF97777777750
8FFFFFFFFFFFA0
8FFFFFFFFFFFA0
ENDCHAR
STARTCHAR emacron
ENCODING 275
SWIDTH 468 0
DWIDTH 15 0
BBX 13 24 1 0
BITMAP
00344444444100
00BFFFFFFFF500
00BFFFFFFFF500
00000000000000
00000000000000
00000000000000
00000000000000
00029DFEC70000
004EFFFFFFC100
02EFF968DFFA00
09FF40001CFF20
1EFB000006FF60
3FF7000002FF90
6FF5000001FFA0
7FFFFFFFFFFFB0
7FFFFFFFFFFFB0
7FF86666666640
6FF50000000000
5FF70000000000
2FFB0000000000
0BFF6000008A00
04FFFB668DFF60
006FFFFFFFF900
00029DEEDA4000
ENDCHAR
STARTCHAR Ebreve
ENCODING 276
SWIDTH 496 0
DWIDTH 16 0
BBX 13 28 2 0
BITMAP
02DD30004DD100
00EFA101BFD000
005FFFDFFF4000
0003AEFEA30000
00000000000000
8FFFFFFFFFFF80
8FFFFFFFFFFF80
8FFA7777777740
8FF50000000000
8FF50000000000
8FF50000000000
8FF50000000000
8FF50000000000
8FF50000000000
8FF50000000000
8FFFFFFFFFF500
8FFFFFFFFFF500
8FF97777777200
8FF50000000000
8FF50000000000
8FF50000000000
8FF50000000000
8FF50000000000
8FF50000000000
8FF50000000000
8FF97777777750
8FFFFFFFFFFFA0
8FFFFFFFFFFFA0
ENDCHAR
STARTCHAR ebreve
ENCODING 277
SWIDTH 468 0
DWIDTH 15 0
BBX 13 23 1 0
BITMAP
00CD60000DD500
00AFD2008FF200
002EFFEEFF8000
00029DFEB50000
00000000000000
00000000000000
00029DFEC70000
004EFFFFFFC100
02EFF968DFFA00
09FF40001CFF20
1EFB000006FF60
3FF7000002FF90
6FF5000001FFA0
7FFFFFFFFFFFB0
7FFFFFFFFFFFB0
7FF86666666640
6FF50000000000
5FF70000000000
2FFB0000000000
0BFF6000008A00
04FFFB668DFF60
006FFFFFFFF900
00029DEEDA4000
ENDCHAR
STARTCHAR Edotaccent
ENCODING 278
SWIDTH 496 0
DWIDTH 16 0
BBX 13 29 2 0
BITMAP
00000141000000
00001EFD000000
00003FFF200000
00000BE9000000
00000000000000
00000000000000
8FFFFFFFFFFF80
8FFFFFFFFFFF80
8FFA7777777740
8FF50000000000
8FF50000000000
8FF50000000000
8FF50000000000
8FF50000000000
8FF50000000000
8FF50000000000
8FFFFFFFFFF500
8FFFFFFFFFF500
8FF97777777200
8FF50000000000
8FF50000000000
8FF50000000000
8FF50000000000
8FF50000000000
8FF50000000000
8FF50000000000
8FF97777777750
8FFFFFFFFFFFA0
8FFFFFFFFFFFA0
ENDCHAR
STARTCHAR edotaccent
ENCODING 279
SWIDTH 468 0
DWIDTH 15 0
BBX 13 23 1 0
BITMAP
00000042000000
00000BFF300000
00000EFF600000
000007EC100000
00000000000000
00000000000000
00029DFEC70000
004EFFFFFFC100
02EFF968DFFA00
09FF40001CFF20
1EFB000006FF60
3FF7000002FF90
6FF5000001FFA0
7FFFFFFFFFFFB0
7FFFFFFFFFFFB0
7FF86666666640
6FF50000000000
5FF70000000000
2FFB0000000000
0BFF6000008A00
04FFFB668DFF60
006FFFFFFFF900
00029DEEDA4000
ENDCHAR
STARTCHAR Eogonek
ENCODING 280
SWIDTH 496 0
DWIDTH 16 0
BBX 13 30 2 -7
BITMAP
8FFFFFFFFFFF80
8FFFFFFFFFFF80
8FFA7777777740
8FF50000000000
8FF50000000000
8FF50000000000
8FF50000000000
8FF50000000000
8FF50000000000
8FF50000000000
8FFFFFFFFFF500
8FFFFFFFFFF500
8FF97777777200
8FF50000000000
8FF50000000000
8FF50000000000
8FF50000000000
8FF50000000000
8FF50000000000
8FF50000000000
8FF97777777750
8FFFFFFFFFFFA0
8FFFFFFFFFFFA0
000000005FE400
00000003FF5000
00000009FC0000
0000000CF80000
0000000CFC3500
00000008FFFD00
00000001AED800
ENDCHAR
STARTCHAR eogonek
ENCODING 281
SWIDTH 468 0
DWIDTH 15 0
BBX 13 23 1 -6
BITMAP
00029DFEC70000
004EFFFFFFC100
02EFF968DFFA00
09FF40001CFF20
1EFB000006FF60
3FF7000002FF90
6FF5000001FFA0
6FFFFFFFFFFFB0
7FFFFFFFFFFFB0
7FF86666666640
6FF50000000000
5FF70000000000
2FFB0000000000
0BFF6000008A00
03FFFA667DFF50
006FFFFFFFF900
00029DFFFB3000
000000BFB00000
000005FF100000
000009FB000000
000009FE460000
000005FFFF1000
0000008EEA1000
ENDCHAR
STARTCHAR Ecaron
ENCODING 282
SWIDTH 496 0
DWIDTH 16 0
BBX 13 29 2 0
BITMAP
006FD102EF5000
0009FB1CF70000
0000AFDF800000
00001CFA000000
00000000000000
00000000000000
8FFFFFFFFFFF80
8FFFFFFFFFFF80
8FFA7777777740
8FF50000000000
8FF50000000000
8FF50000000000
8FF50000000000
8FF50000000000
8FF50000000000
8FF50000000000
8FFFFFFFFFF500
8FFFFFFFFFF500
8FF97777777200
8FF50000000000
8FF50000000000
8FF50000000000
8FF50000000000
8FF50000000000
8FF50000000000
8FF50000000000
8FF97777777750
8FFFFFFFFFFFA0
8FFFFFFFFFFFA0
ENDCHAR
STARTCHAR ecaron
ENCODING 283
SWIDTH 468 0
DWIDTH 15 0
BBX 13 23 1 0
BITMAP
003EF400CF9000
0004FE29FB0000
00006FDFC10000
000008FD100000
00000000000000
00000000000000
00029DFEC70000
004EFFFFFFC100
02EFF968DFFA00
09FF40001CFF20
1EFB000006FF60
3FF7000002FF90
6FF5000001FFA0
7FFFFFFFFFFFB0
7FFFFFFFFFFFB0
7FF86666666640
6FF50000000000
5FF70000000000
2FFB0000000000
0BFF6000008A00
04FFFB668DFF60
006FFFFFFFF900
00029DEEDA4000
ENDCHAR
STARTCHAR Gcircumflex
ENCODING 284
SWIDTH 590 0
DWIDTH 19 0
BBX 16 29 1 0
BITMAP
0000004FF5000000
000004FEEF500000
00004EF54FF50000
00009D8007D90000
0000000000000000
0000000000000000
000017BEFEC81000
0004EFFFFFFFE500
004FFFD978DFFF30
00DFF8000009FFC0
05FFB0000000DFF3
09FF500000007FF7
0CFF100000004FF9
0EFE000000000000
0FFD000000000000
1FFC000000000000
1FFC000000000000
1FFC000000000000
1FFC00005FFFFFFA
1FFC00005FFFFFFA
0FFD000027778FFA
0EFE000000003FFA
0CFF200000003FFA
08FF700000003FFA
03FFE10000003FFA
00AFFC1000009FFA
001DFFEA779EFFF4
0002CFFFFFFFFD40
000005ADFEDA6000
ENDCHAR
STARTCHAR gcircumflex
ENCODING 285
SWIDTH 492 0
DWIDTH 16 0
BBX 13 30 1 -7
BITMAP
00000BFC100000
0000AFDFC10000
000AFC1BFC1000
003BD201DC5000
00000000000000
00000000000000
0005BEEC60CFB0
009FFFFFF8DFB0
05FFFB78DFFFB0
0CFF60001BFFB0
2FFC000002FFB0
5FF7000001FFB0
6FF5000001FFB0
7FF4000001FFB0
7FF4000001FFB0
7FF4000001FFB0
6FF5000001FFB0
5FF7000001FFB0
2FFB000002FFB0
0CFF50000BFFB0
05FFFA78DFFFB0
008FFFFFF9FFB0
0005BEEC61FFB0
0000000001FFB0
0000000002FFA0
0020000006FF70
00D900001DFF30
05FFD768DFFA00
008FFFFFFFC100
00028DFEB60000
ENDCHAR
STARTCHAR Gbreve
ENCODING 286
SWIDTH 590 0
DWIDTH 19 0
BBX 16 28 1 0
BITMAP
0008DA00009D9000
0005FF5004FF7000
0000BFFEEFFC1000
000007CEFD810000
0000000000000000
000017BEFEC81000
0004EFFFFFFFE500
004FFFD978DFFF30
00DFF8000009FFC0
05FFB0000000DFF3
09FF500000007FF7
0CFF100000004FF9
0EFE000000000000
0FFD000000000000
1FFC000000000000
1FFC000000000000
1FFC000000000000
1FFC00005FFFFFFA
1FFC00005FFFFFFA
0FFD000027778FFA
0EFE000000003FFA
0CFF200000003FFA
08FF700000003FFA
03FFE10000003FFA
00AFFC1000009FFA
001DFFEA779EFFF4
0002CFFFFFFFFD40
000005ADFEDA6000
ENDCHAR
STARTCHAR gbreve
ENCODING 287
SWIDTH 492 0
DWIDTH 16 0
BBX 13 30 1 -7
BITMAP
01DD40002DD300
00CFC101AFE100
004EFFDFFF6000
0002AEFEB40000
00000000000000
00000000000000
0005BEEC60CFB0
009FFFFFF8DFB0
05FFFB78DFFFB0
0CFF60001BFFB0
2FFC000002FFB0
5FF7000001FFB0
6FF5000001FFB0
7FF4000001FFB0
7FF4000001FFB0
7FF4000001FFB0
6FF5000001FFB0
5FF7000001FFB0
2FFB000002FFB0
0CFF50000BFFB0
05FFFA78DFFFB0
008FFFFFF9FFB0
0005BEEC61FFB0
0000000001FFB0
0000000002FFA0
0020000006FF70
00D900001DFF30
05FFD768DFFA00
008FFFFFFFC100
00028DFEB60000
ENDCHAR
STARTCHAR Gdotaccent
ENCODING 288
SWIDTH 590 0
DWIDTH 19 0
BBX 16 29 1 0
BITMAP
0000000330000000
0000006FF7000000
0000009FFB000000
0000003DE4000000
0000000000000000
0000000000000000
000017BEFEC81000
0004EFFFFFFFE500
004FFFD978DFFF30
00DFF8000009FFC0
05FFB0000000DFF3
09FF500000007FF7
0CFF100000004FF9
0EFE000000000000
0FFD000000000000
1FFC000000000000
1FFC000000000000
1FFC000000000000
1FFC00005FFFFFFA
1FFC00005FFFFFFA
0FFD000027778FFA
0EFE000000003FFA
0CFF200000003FFA
08FF700000003FFA
03FFE10000003FFA
00AFFC1000009FFA
001DFFEA779EFFF4
0002CFFFFFFFFD40
000005ADFEDA6000
ENDCHAR
STARTCHAR gdotaccent
ENCODING 289
SWIDTH 492 0
DWIDTH 16 0
BBX 13 30 1 -7
BITMAP
00000141000000
00000DFE100000
00001FFF400000
000009EB000000
00000000000000
00000000000000
0005BEEC60CFB0
009FFFFFF8DFB0
05FFFB78DFFFB0
0CFF60001BFFB0
2FFC000002FFB0
5FF7000001FFB0
6FF5000001FFB0
7FF4000001FFB0
7FF4000001FFB0
7FF4000001FFB0
6FF5000001FFB0
5FF7000001FFB0
2FFB000002FFB0
0CFF50000BFFB0
05FFFA78DFFFB0
008FFFFFF9FFB0
0005BEEC61FFB0
0000000001FFB0
0000000002FFA0
0020000006FF70
00D900001DFF30
05FFD768DFFA00
008FFFFFFFC100
00028DFEB60000
ENDCHAR
STARTCHAR uni0122
ENCODING 290
SWIDTH 590 0
DWIDTH 19 0
BBX 16 31 1 -8
BITMAP
000017BEFEC81000
0004EFFFFFFFE500
004FFFD978DFFF30
00DFF8000009FFC0
05FFB0000000DFF3
09FF500000007FF7
0CFF100000004FF9
0EFE000000000000
0FFD000000000000
1FFC000000000000
1FFC000000000000
1FFC000000000000
1FFC00005FFFFFFA
1FFC00005FFFFFFA
0FFD000027778FFA
0EFE000000003FFA
0CFF200000003FFA
08FF700000003FFA
03FFE10000003FFA
00AFFC1000009FFA
001DFFEA779EFFF4
0002CFFFFFFFFD40
000005ADFEDA6000
0000000000000000
0000000000000000
00000007FF300000
00000007FF200000
00000009FF000000
0000000DFB000000
0000004FF4000000
0000001980000000
ENDCHAR
STARTCHAR uni0123
ENCODING 291
SWIDTH 492 0
DWIDTH 16 0
BBX 13 33 1 -7
BITMAP
0000004A100000
000000DF800000
000006FF400000
00000AFF000000
00000DFE000000
00000DFD000000
00000DFD000000
00000000000000
00000000000000
0005BEEC60CFB0
009FFFFFF8DFB0
05FFFB78DFFFB0
0CFF60001BFFB0
2FFC000002FFB0
5FF7000001FFB0
6FF5000001FFB0
7FF4000001FFB0
7FF4000001FFB0
7FF4000001FFB0
6FF5000001FFB0
5FF7000001FFB0
2FFB000002FFB0
0CFF50000BFFB0
05FFFA78DFFFB0
008FFFFFF9FFB0
0005BEEC61FFB0
0000000001FFB0
0000000002FFA0
0020000006FF70
00D900001DFF30
05FFD768DFFA00
008FFFFFFFC100
00028DFEB60000
ENDCHAR
STARTCHAR Hcircumflex
ENCODING 292
SWIDTH 620 0
DWIDTH 20 0
BBX 16 29 2 0
BITMAP
000000AFD1000000
00000AFDFC100000
00009FD1AFC10000
0003BE301CC50000
0000000000000000
0000000000000000
8FF5000000008FF5
8FF5000000008FF5
8FF5000000008FF5
8FF5000000008FF5
8FF5000000008FF5
8FF5000000008FF5
8FF5000000008FF5
8FF5000000008FF5
8FF5000000008FF5
8FF5000000008FF5
8FFFFFFFFFFFFFF5
8FFFFFFFFFFFFFF5
8FF977777777BFF5
8FF5000000008FF5
8FF5000000008FF5
8FF5000000008FF5
8FF5000000008FF5
8FF5000000008FF5
8FF5000000008FF5
8FF5000000008FF5
8FF5000000008FF5
8FF5000000008FF5
8FF5000000008FF5
ENDCHAR
STARTCHAR hcircumflex
ENCODING 293
SWIDTH 482 0
DWIDTH 15 0
BBX 12 29 2 0
BITMAP
0006FF400000
005FEEE40000
05FF45FE3000
19D7009D8000
000000000000
EFC000000000
EFC000000000
EFC000000000
EFC000000000
EFC000000000
EFC000000000
EFC000000000
EFC06CEEB300
EFDAFFFFFF30
EFFFD88DFFC0
EFFB1001DFF2
EFE200008FF5
EFC000006FF6
EFC000005FF6
EFC000005FF6
EFC000005FF6
EFC000005FF6
EFC000005FF6
EFC000005FF6
EFC000005FF6
EFC000005FF6
EFC000005FF6
EFC000005FF6
EFC000005FF6
ENDCHAR
STARTCHAR Hbar
ENCODING 294
SWIDTH 611 0
DWIDTH 20 0
BBX 20 23 0 0
BITMAP
008FF5000000008FF500
008FF5000000008FF500
008FF5000000008FF500
008FF5000000008FF500
008FF5000000008FF500
4FFFFFFFFFFFFFFFFFF1
4FFFFFFFFFFFFFFFFFF1
13AFF733333333AFF730
008FF5000000008FF500
008FF5000000008FF500
008FFFFFFFFFFFFFF500
008FFFFFFFFFFFFFF500
008FFA77777777BFF500
008FF5000000008FF500
008FF5000000008FF500
008FF5000000008FF500
008FF5000000008FF500
008FF5000000008FF500
008FF5000000008FF500
008FF5000000008FF500
008FF5000000008FF500
008FF5000000008FF500
008FF5000000008FF500
ENDCHAR
STARTCHAR hbar
ENCODING 295
SWIDTH 497 0
DWIDTH 16 0
BBX 15 24 -1 0
BITMAP
0007FF4000000000
0007FF4000000000
4FFFFFFFF4000000
4FFFFFFFF4000000
155AFF8551000000
0007FF4000000000
0007FF4000000000
0007FF42AEFD7000
0007FF8EFFFFFA00
0007FFFFA7AFFF40
0007FFF40007FF90
0007FF800001FFC0
0007FF400000EFD0
0007FF400000DFD0
0007FF400000DFD0
0007FF400000DFD0
0007FF400000DFD0
0007FF400000DFD0
0007FF400000DFD0
0007FF400000DFD0
0007FF400000DFD0
0007FF400000DFD0
0007FF400000DFD0
0007FF400000DFD0
ENDCHAR
STARTCHAR Itilde
ENCODING 296
SWIDTH 250 0
DWIDTH 8 0
BBX 10 29 -1 0
BITMAP
0012000164
09FFD749F9
6FFFFFFFF3
9F515BED60
0000000000
0000000000
0006FF7000
0006FF7000
0006FF7000
0006FF7000
0006FF7000
0006FF7000
0006FF7000
0006FF7000
0006FF7000
0006FF7000
0006FF7000
0006FF7000
0006FF7000
0006FF7000
0006FF7000
0006FF7000
0006FF7000
0006FF7000
0006FF7000
0006FF7000
0006FF7000
0006FF7000
0006FF7000
ENDCHAR
STARTCHAR itilde
ENCODING 297
SWIDTH 234 0
DWIDTH 8 0
BBX 10 23 -1 0
BITMAP
0022000362
1CFFC64CF5
AFFFFFFFE1
DE216CEC30
0000000000
0000000000
000BFF1000
000BFF1000
000BFF1000
000BFF1000
000BFF1000
000BFF1000
000BFF1000
000BFF1000
000BFF1000
000BFF1000
000BFF1000
000BFF1000
000BFF1000
000BFF1000
000BFF1000
000BFF1000
000BFF1000
ENDCHAR
STARTCHAR Imacron
ENCODING 298
SWIDTH 250 0
DWIDTH 8 0
BBX 10 29 -1 0
BITMAP
2444444442
7FFFFFFFF9
7FFFFFFFF9
0000000000
0000000000
0000000000
0006FF7000
0006FF7000
0006FF7000
0006FF7000
0006FF7000
0006FF7000
0006FF7000
0006FF7000
0006FF7000
0006FF7000
0006FF7000
0006FF7000
0006FF7000
0006FF7000
0006FF7000
0006FF7000
0006FF7000
0006FF7000
0006FF7000
0006FF7000
0006FF7000
0006FF7000
0006FF7000
ENDCHAR
STARTCHAR imacron
ENCODING 299
SWIDTH 234 0
DWIDTH 8 0
BBX 10 24 -1 0
BITMAP
3444444441
BFFFFFFFF5
BFFFFFFFF5
0000000000
0000000000
0000000000
0000000000
000BFF1000
000BFF1000
000BFF1000
000BFF1000
000BFF1000
000BFF1000
000BFF1000
000BFF1000
000BFF1000
000BFF1000
000BFF1000
000BFF1000
000BFF1000
000BFF1000
000BFF1000
000BFF1000
000BFF1000
ENDCHAR
STARTCHAR Ibreve
ENCODING 300
SWIDTH 250 0
DWIDTH 8 0
BBX 10 28 -1 0
BITMAP
8DA00009D8
6FF5004FF6
0BFFEEFFC0
007CFFC700
0000000000
0006FF7000
0006FF7000
0006FF7000
0006FF7000
0006FF7000
0006FF7000
0006FF7000
0006FF7000
0006FF7000
0006FF7000
0006FF7000
0006FF7000
0006FF7000
0006FF7000
0006FF7000
0006FF7000
0006FF7000
0006FF7000
0006FF7000
0006FF7000
0006FF7000
0006FF7000
0006FF7000
ENDCHAR
STARTCHAR ibreve
ENCODING 301
SWIDTH 234 0
DWIDTH 8 0
BBX 10 23 -1 0
BITMAP
BD70000DD5
AFD2008FF3
2EFFEEFF80
019DFEB500
0000000000
0000000000
000BFF1000
000BFF1000
000BFF1000
000BFF1000
000BFF1000
000BFF1000
000BFF1000
000BFF1000
000BFF1000
000BFF1000
000BFF1000
000BFF1000
000BFF1000
000BFF1000
000BFF1000
000BFF1000
000BFF1000
ENDCHAR
STARTCHAR Iogonek
ENCODING 302
SWIDTH 250 0
DWIDTH 8 0
BBX 6 30 0 -7
BITMAP
006FF7
006FF7
006FF7
006FF7
006FF7
006FF7
006FF7
006FF7
006FF7
006FF7
006FF7
006FF7
006FF7
006FF7
006FF7
006FF7
006FF7
006FF7
006FF7
006FF7
006FF7
006FF7
007FF7
01CFA0
0AFC00
3FF300
6FF000
5FF542
2FFFF5
05DEB2
ENDCHAR
STARTCHAR iogonek
ENCODING 303
SWIDTH 229 0
DWIDTH 7 0
BBX 6 31 0 -7
BITMAP
000420
00AFE1
00DFF3
006EB0
000000
000000
000000
00BFF1
00BFF1
00BFF1
00BFF1
00BFF1
00BFF1
00BFF1
00BFF1
00BFF1
00BFF1
00BFF1
00BFF1
00BFF1
00BFF1
00BFF1
00BFF1
00DFF1
03EF60
1EF700
7FD000
AFA000
AFD350
6FFFF0
08EE90
ENDCHAR
STARTCHAR Idotaccent
ENCODING 304
SWIDTH 250 0
DWIDTH 8 0
BBX 4 29 2 0
BITMAP
0330
7FF6
AFFA
4EE4
0000
0000
6FF7
6FF7
6FF7
6FF7
6FF7
6FF7
6FF7
6FF7
6FF7
6FF7
6FF7
6FF7
6FF7
6FF7
6FF7
6FF7
6FF7
6FF7
6FF7
6FF7
6FF7
6FF7
6FF7
ENDCHAR
STARTCHAR dotlessi
ENCODING 305
SWIDTH 234 0
DWIDTH 8 0
BBX 4 17 2 0
BITMAP
BFF1
BFF1
BFF1
BFF1
BFF1
BFF1
BFF1
BFF1
BFF1
BFF1
BFF1
BFF1
BFF1
BFF1
BFF1
BFF1
BFF1
ENDCHAR
STARTCHAR IJ
ENCODING 306
SWIDTH 733 0
DWIDTH 23 0
BBX 20 23 2 0
BITMAP
6FF7000000000000BFF3
6FF7000000000000BFF3
6FF7000000000000BFF3
6FF7000000000000BFF3
6FF7000000000000BFF3
6FF7000000000000BFF3
6FF7000000000000BFF3
6FF7000000000000BFF3
6FF7000000000000BFF3
6FF7000000000000BFF3
6FF7000000000000BFF3
6FF7000000000000BFF3
6FF7000000000000BFF3
6FF7000000000000BFF3
6FF7000000000000BFF3
6FF7000000000000BFF3
6FF7000997000000BFF2
6FF7000FFE000000DFF1
6FF7000DFF300003FFD0
6FF70008FFB0000BFF80
6FF70001EFFC88DFFE10
6FF700004EFFFFFFE300
6FF70000018DEED81000
ENDCHAR
STARTCHAR ij
ENCODING 307
SWIDTH 452 0
DWIDTH 14 0
BBX 11 31 2 -7
BITMAP
042000004200
AFE10008FE20
DFF3000BFF50
6EB00005EC10
000000000000
000000000000
000000000000
BFF10008FF30
BFF10008FF30
BFF10008FF30
BFF10008FF30
BFF10008FF30
BFF10008FF30
BFF10008FF30
BFF10008FF30
BFF10008FF30
BFF10008FF30
BFF10008FF30
BFF10008FF30
BFF10008FF30
BFF10008FF30
BFF10008FF30
BFF10008FF30
BFF10008FF30
00000008FF30
00000008FF30
00000009FF30
0000000BFF20
0000089FFD00
00000FFFF700
00000DFD7000
ENDCHAR
STARTCHAR Jcircumflex
ENCODING 308
SWIDTH 483 0
DWIDTH 15 0
BBX 15 29 1 0
BITMAP
000000001DFA0000
00000001DFDF9000
0000001CFA1DF900
0000005CC103EB30
0000000000000000
0000000000000000
000000000BFF3000
000000000BFF3000
000000000BFF3000
000000000BFF3000
000000000BFF3000
000000000BFF3000
000000000BFF3000
000000000BFF3000
000000000BFF3000
000000000BFF3000
000000000BFF3000
000000000BFF3000
000000000BFF3000
000000000BFF3000
000000000BFF3000
000000000BFF3000
997000000BFF2000
FFE000000DFF1000
DFF300003FFD0000
8FFB0000BFF80000
1EFFC88DFFE10000
04EFFFFFFE300000
0018DEED81000000
ENDCHAR
STARTCHAR jcircumflex
ENCODING 309
SWIDTH 237 0
DWIDTH 8 0
BBX 9 30 -1 -7
BITMAP
0006FF4000
005FEEE400
05FF45FE40
09D7008D90
0000000000
0000000000
0007FF4000
0007FF4000
0007FF4000
0007FF4000
0007FF4000
0007FF4000
0007FF4000
0007FF4000
0007FF4000
0007FF4000
0007FF4000
0007FF4000
0007FF4000
0007FF4000
0007FF4000
0007FF4000
0007FF4000
0007FF4000
0007FF4000
0008FF3000
000CFF1000
369FFC0000
6FFFF30000
5EEB300000
ENDCHAR
STARTCHAR uni0136
ENCODING 310
SWIDTH 544 0
DWIDTH 17 0
BBX 16 29 2 -6
BITMAP
8FF50000002EFF60
8FF5000000BFFA00
8FF5000007FFD100
8FF500003FFF3000
8FF50001DFF70000
8FF50009FFB00000
8FF5005FFE100000
8FF502EFF4000000
8FF50BFF80000000
8FF57FFC00000000
8FF8FFF900000000
8FFFFFFF30000000
8FFFFBFFC0000000
8FFFA0CFF7000000
8FFC103FFE200000
8FF50009FFA00000
8FF50001EFF50000
8FF500006FFD1000
8FF500000CFF8000
8FF5000003FFF300
8FF50000009FFC00
8FF50000001EFF60
8FF500000006FFE1
000004FF50000000
000005FF50000000
000007FF30000000
00000AFD00000000
00001FF600000000
000007A000000000
ENDCHAR
STARTCHAR uni0137
ENCODING 311
SWIDTH 450 0
DWIDTH 14 0
BBX 12 30 2 -6
BITMAP
EFD000000000
EFD000000000
EFD000000000
EFD000000000
EFD000000000
EFD000000000
EFD000000000
EFD00004FFE2
EFD0001DFF40
EFD000AFF800
EFD006FFB000
EFD02EFE2000
EFD0CFF40000
EFD8FF800000
EFEFFF400000
EFFFFFD00000
EFFEAFF80000
EFF41EFF2000
EFD005FFB000
EFD000CFF500
EFD0003FFE10
EFD00009FF90
EFD00001EFF3
EFD000006FFC
0001FF800000
0001FF800000
0003FF600000
0007FF200000
000DFA000000
0005C1000000
ENDCHAR
STARTCHAR kgreenlandic
ENCODING 312
SWIDTH 491 0
DWIDTH 16 0
BBX 13 17 2 0
BITMAP
BFF100005FFD10
BFF10002EFF300
BFF1000BFF7000
BFF1007FFB0000
BFF103FFE10000
BFF11DFF400000
BFF19FF8000000
BFFFFFB0000000
BFFFFFB0000000
BFF9CFF7000000
BFF12EFF300000
BFF107FFD00000
BFF100BFF90000
BFF1002EFF4000
BFF10006FFE100
BFF10000BFFA00
BFF100002EFF60
ENDCHAR
STARTCHAR Lacute
ENCODING 313
SWIDTH 475 0
DWIDTH 15 0
BBX 13 30 2 0
BITMAP
002EFF50000000
00BFF800000000
06FFA000000000
2EFC1000000000
5CD20000000000
00000000000000
00000000000000
8FF50000000000
8FF50000000000
8FF50000000000
8FF50000000000
8FF50000000000
8FF50000000000
8FF50000000000
8FF50000000000
8FF50000000000
8FF50000000000
8FF50000000000
8FF50000000000
8FF50000000000
8FF50000000000
8FF50000000000
8FF50000000000
8FF50000000000
8FF50000000000
8FF50000000000
8FF50000000000
8FF97777777720
8FFFFFFFFFFF40
8FFFFFFFFFFF40
ENDCHAR
STARTCHAR lacute
ENCODING 314
SWIDTH 229 0
DWIDTH 7 0
BBX 7 30 2 0
BITMAP
004FFE30
01DFF500
09FF7000
4FFA0000
7CC10000
00000000
BFF10000
BFF10000
BFF10000
BFF10000
BFF10000
BFF10000
BFF10000
BFF10000
BFF10000
BFF10000
BFF10000
BFF10000
BFF10000
BFF10000
BFF10000
BFF10000
BFF10000
BFF10000
BFF10000
BFF10000
BFF10000
BFF10000
BFF10000
BFF10000
ENDCHAR
STARTCHAR uni013B
ENCODING 315
SWIDTH 475 0
DWIDTH 15 0
BBX 13 30 2 -7
BITMAP
8FF50000000000
8FF50000000000
8FF50000000000
8FF50000000000
8FF50000000000
8FF50000000000
8FF50000000000
8FF50000000000
8FF50000000000
8FF50000000000
8FF50000000000
8FF50000000000
8FF50000000000
8FF50000000000
8FF50000000000
8FF50000000000
8FF50000000000
8FF50000000000
8FF50000000000
8FF50000000000
8FF97777777720
8FFFFFFFFFFF40
8FFFFFFFFFFF40
00000000000000
00000EFB000000
00000EFA000000
00001FF8000000
00004FF4000000
0000BFC0000000
00003C30000000
ENDCHAR
STARTCHAR uni013C
ENCODING 316
SWIDTH 229 0
DWIDTH 7 0
BBX 5 31 1 -7
BITMAP
0BFF10
0BFF10
0BFF10
0BFF10
0BFF10
0BFF10
0BFF10
0BFF10
0BFF10
0BFF10
0BFF10
0BFF10
0BFF10
0BFF10
0BFF10
0BFF10
0BFF10
0BFF10
0BFF10
0BFF10
0BFF10
0BFF10
0BFF10
0BFF10
000000
0AFF00
0AFE00
0CFC00
1EF800
7FE200
1B6000
ENDCHAR
STARTCHAR Lcaron
ENCODING 317
SWIDTH 475 0
DWIDTH 15 0
BBX 13 23 2 0
BITMAP
8FF5004FF50000
8FF5005FF50000
8FF5007FF30000
8FF500AFD00000
8FF501FF600000
8FF5007A000000
8FF50000000000
8FF50000000000
8FF50000000000
8FF50000000000
8FF50000000000
8FF50000000000
8FF50000000000
8FF50000000000
8FF50000000000
8FF50000000000
8FF50000000000
8FF50000000000
8FF50000000000
8FF50000000000
8FF97777777720
8FFFFFFFFFFF40
8FFFFFFFFFFF40
ENDCHAR
STARTCHAR lcaron
ENCODING 318
SWIDTH 302 0
DWIDTH 10 0
BBX 8 24 2 0
BITMAP
BFF10DFB
BFF10EFA
BFF11FF9
BFF14FF4
BFF1AFC0
BFF13C30
BFF10000
BFF10000
BFF10000
BFF10000
BFF10000
BFF10000
BFF10000
BFF10000
BFF10000
BFF10000
BFF10000
BFF10000
BFF10000
BFF10000
BFF10000
BFF10000
BFF10000
BFF10000
ENDCHAR
STARTCHAR Ldot
ENCODING 319
SWIDTH 475 0
DWIDTH 15 0
BBX 13 23 2 0
BITMAP
8FF50000000000
8FF50000000000
8FF50000000000
8FF50000000000
8FF50000000000
8FF50000000000
8FF50000000000
8FF50000000000
8FF50014200000
8FF500CFE20000
8FF500FFF50000
8FF5008EC10000
8FF50000000000
8FF50000000000
8FF50000000000
8FF50000000000
8FF50000000000
8FF50000000000
8FF50000000000
8FF50000000000
8FF97777777720
8FFFFFFFFFFF40
8FFFFFFFFFFF40
ENDCHAR
STARTCHAR ldot
ENCODING 320
SWIDTH 336 0
DWIDTH 11 0
BBX 8 24 2 0
BITMAP
BFF10000
BFF10000
BFF10000
BFF10000
BFF10000
BFF10000
BFF10000
BFF10000
BFF10000
BFF10340
BFF15FF8
BFF19FFC
BFF13DE5
BFF10000
BFF10000
BFF10000
BFF10000
BFF10000
BFF10000
BFF10000
BFF10000
BFF10000
BFF10000
BFF10000
ENDCHAR
STARTCHAR Lslash
ENCODING 321
SWIDTH 475 0
DWIDTH 15 0
BBX 15 23 0 0
BITMAP
008FF50000000000
008FF50000000000
008FF50000000000
008FF50000000000
008FF50000000000
008FF50000000000
008FF50000000000
008FF50000000000
008FF53980000000
008FFEFF80000000
05CFFFB510000000
3FFFF50000000000
29BFF50000000000
008FF50000000000
008FF50000000000
008FF50000000000
008FF50000000000
008FF50000000000
008FF50000000000
008FF50000000000
008FF97777777720
008FFFFFFFFFFF40
008FFFFFFFFFFF40
ENDCHAR
STARTCHAR lslash
ENCODING 322
SWIDTH 250 0
DWIDTH 8 0
BBX 8 24 0 0
BITMAP
007FF400
007FF400
007FF400
007FF400
007FF400
007FF400
007FF400
007FF400
007FF400
007FF7A4
007FFFF4
06DFFB40
3FFFF400
289FF400
007FF400
007FF400
007FF400
007FF400
007FF400
007FF400
007FF400
007FF400
007FF400
007FF400
ENDCHAR
STARTCHAR Nacute
ENCODING 323
SWIDTH 619 0
DWIDTH 20 0
BBX 16 30 2 0
BITMAP
000000002EFF5000
00000000BFF80000
00000006FFA00000
0000002EFC100000
0000005CD2000000
0000000000000000
0000000000000000
8FF9000000008FF5
8FFF200000008FF5
8FFF900000008FF5
8FFFF20000008FF5
8FFFFA0000008FF5
8FFDFF2000008FF5
8FF6EFA000008FF5
8FF58FF300008FF5
8FF51EFA00008FF5
8FF508FF30008FF5
8FF501EFB0008FF5
8FF5007FF3008FF5
8FF5001EFB008FF5
8FF50007FF408FF5
8FF50001EFC08FF5
8FF500006FF48FF5
8FF500000DFC8FF5
8FF5000006FFDFF5
8FF5000000DFFFF5
8FF50000005FFFF5
8FF50000000DFFF5
8FF500000005FFF5
8FF500000000CFF5
ENDCHAR
STARTCHAR nacute
ENCODING 324
SWIDTH 483 0
DWIDTH 15 0
BBX 12 24 2 0
BITMAP
0000002EFF50
000000BFF700
000007FFA000
00002EFC0000
00006CD10000
000000000000
000000000000
EFA06CEEB300
EFBAFFFFFF30
EFFFD88DFFC0
EFFB1001DFF2
EFE200008FF5
EFC000006FF6
EFC000005FF6
EFC000005FF6
EFC000005FF6
EFC000005FF6
EFC000005FF6
EFC000005FF6
EFC000005FF6
EFC000005FF6
EFC000005FF6
EFC000005FF6
EFC000005FF6
ENDCHAR
STARTCHAR uni0145
ENCODING 325
SWIDTH 619 0
DWIDTH 20 0
BBX 16 30 2 -7
BITMAP
8FF9000000008FF5
8FFF200000008FF5
8FFF900000008FF5
8FFFF20000008FF5
8FFFFA0000008FF5
8FFDFF2000008FF5
8FF6EFA000008FF5
8FF58FF300008FF5
8FF51EFA00008FF5
8FF508FF30008FF5
8FF501EFB0008FF5
8FF5007FF3008FF5
8FF5001EFB008FF5
8FF50007FF408FF5
8FF50001EFC08FF5
8FF500006FF48FF5
8FF500000DFC8FF5
8FF5000006FFDFF5
8FF5000000DFFFF5
8FF50000005FFFF5
8FF50000000DFFF5
8FF500000005FFF5
8FF500000000CFF5
0000000000000000
0000009FF0000000
0000009FF0000000
000000BFD0000000
000001EF90000000
000006FF20000000
000001A600000000
ENDCHAR
STARTCHAR uni0146
ENCODING 326
SWIDTH 483 0
DWIDTH 15 0
BBX 12 24 2 -7
BITMAP
EFA06CEEB300
EFBAFFFFFF30
EFFFD88DFFC0
EFFB1001DFF2
EFE200008FF5
EFC000006FF6
EFC000005FF6
EFC000005FF6
EFC000005FF6
EFC000005FF6
EFC000005FF6
EFC000005FF6
EFC000005FF6
EFC000005FF6
EFC000005FF6
EFC000005FF6
EFC000005FF6
000000000000
0000AFE00000
0000AFE00000
0000DFC00000
0001FF700000
0007FE100000
0002B5000000
ENDCHAR
STARTCHAR Ncaron
ENCODING 327
SWIDTH 619 0
DWIDTH 20 0
BBX 16 29 2 0
BITMAP
0002EF500AFB0000
00003EE37FC10000
000005FDFD100000
0000006FE2000000
0000000000000000
0000000000000000
8FF9000000008FF5
8FFF200000008FF5
8FFF900000008FF5
8FFFF20000008FF5
8FFFFA0000008FF5
8FFDFF2000008FF5
8FF6EFA000008FF5
8FF58FF300008FF5
8FF51EFA00008FF5
8FF508FF30008FF5
8FF501EFB0008FF5
8FF5007FF3008FF5
8FF5001EFB008FF5
8FF50007FF408FF5
8FF50001EFC08FF5
8FF500006FF48FF5
8FF500000DFC8FF5
8FF5000006FFDFF5
8FF5000000DFFFF5
8FF50000005FFFF5
8FF50000000DFFF5
8FF500000005FFF5
8FF500000000CFF5
ENDCHAR
STARTCHAR ncaron
ENCODING 328
SWIDTH 483 0
DWIDTH 15 0
BBX 12 23 2 0
BITMAP
02EF500BFA00
003FE27FC100
0005FDFD1000
00007FE20000
000000000000
000000000000
EFA06CEEB300
EFBAFFFFFF30
EFFFD88DFFC0
EFFB1001DFF2
EFE200008FF5
EFC000006FF6
EFC000005FF6
EFC000005FF6
EFC000005FF6
EFC000005FF6
EFC000005FF6
EFC000005FF6
EFC000005FF6
EFC000005FF6
EFC000005FF6
EFC000005FF6
EFC000005FF6
ENDCHAR
STARTCHAR napostrophe
ENCODING 329
SWIDTH 483 0
DWIDTH 15 0
BBX 15 24 -1 0
BITMAP
0AFE000000000000
0BFE000000000000
0DFC000000000000
1FF7000000000000
7FE1000000000000
2B50000000000000
0000000000000000
000EFA06CEEB3000
000EFBAFFFFFF300
000EFFFD88DFFC00
000EFFB1001DFF20
000EFE200008FF50
000EFC000006FF60
000EFC000005FF60
000EFC000005FF60
000EFC000005FF60
000EFC000005FF60
000EFC000005FF60
000EFC000005FF60
000EFC000005FF60
000EFC000005FF60
000EFC000005FF60
000EFC000005FF60
000EFC000005FF60
ENDCHAR
STARTCHAR Eng
ENCODING 330
SWIDTH 599 0
DWIDTH 19 0
BBX 15 30 2 -7
BITMAP
AFF700000000EFE0
AFFE10000000EFE0
AFFF70000000EFE0
AFFFE1000000EFE0
AFFFF8000000EFE0
AFFFFE100000EFE0
AFF9FF800000EFE0
AFF3DFE10000EFE0
AFF36FF80000EFE0
AFF30DFF2000EFE0
AFF305FF9000EFE0
AFF300DFF200EFE0
AFF3005FF900EFE0
AFF3000CFF20EFE0
AFF30005FFA0EFE0
AFF30000CFF2EFE0
AFF300004FFAEFE0
AFF300000CFFFFE0
AFF3000004FFFFE0
AFF3000000CFFFE0
AFF30000004FFFE0
AFF30000000BFFE0
AFF300000004FFE0
000000000000EFE0
000000000000EFE0
000000000001FFD0
000000000004FFB0
00000000078DFF60
000000000DFFFC00
000000000CFD8100
ENDCHAR
STARTCHAR eng
ENCODING 331
SWIDTH 498 0
DWIDTH 16 0
BBX 12 24 2 -7
BITMAP
DFA04BEEB300
DFB6FFFFFF40
DFEFC88DFFD0
DFF80001CFF4
DFE000005FF7
DFE000002FF9
DFE000001FFA
DFE000001FFA
DFE000001FFA
DFE000001FFA
DFE000001FFA
DFE000001FFA
DFE000001FFA
DFE000001FFA
DFE000001FFA
DFE000001FFA
DFE000001FFA
000000001FFA
000000001FFA
000000002FF9
000000006FF7
00000099EFF2
000000FFFF90
000001DFD700
ENDCHAR
STARTCHAR Omacron
ENCODING 332
SWIDTH 600 0
DWIDTH 19 0
BBX 17 29 1 0
BITMAP
000034444444410000
0000CFFFFFFFF40000
0000CFFFFFFFF40000
000000000000000000
000000000000000000
000000000000000000
000006BDFEC7100000
0002CFFFFFFFE40000
001DFFFB9AEFFF3000
00AFFB100009FFD000
02FFD1000000BFF500
07FF600000003FFB00
0BFF200000000EFE00
0EFE000000000BFF20
0FFD000000000AFF30
1FFC0000000009FF40
1FFC0000000009FF40
1FFC0000000009FF40
1FFC0000000009FF40
1FFC0000000009FF40
0FFD000000000AFF30
0EFE000000000BFF20
0BFF200000000EFE00
08FF600000003FFB00
02FFD1000000AFF600
00AFFB100008FFD100
001DFFEA99DFFF4000
0002CFFFFFFFE50000
000006BEFEC7100000
ENDCHAR
STARTCHAR omacron
ENCODING 333
SWIDTH 501 0
DWIDTH 16 0
BBX 14 24 1 0
BITMAP
00244444444200
009FFFFFFFF700
009FFFFFFFF700
00000000000000
00000000000000
00000000000000
00000000000000
00018CEEC81000
003EFFFFFFE300
01EFFB77BFFE20
09FF800008FFA0
1FFD000000DFF1
4FF80000007FF5
7FF50000004FF7
7FF40000003FF8
8FF40000003FF8
8FF40000003FF8
7FF50000004FF7
4FF80000006FF5
1FFD000000BFF1
0AFF800005FFA0
02EFFB66AFFE20
003EFFFFFFE300
00018CEED81000
ENDCHAR
STARTCHAR Obreve
ENCODING 334
SWIDTH 600 0
DWIDTH 19 0
BBX 17 28 1 0
BITMAP
0000DD50001DD40000
0000BFC2009FF10000
00003EFFDEFF700000
0000029DFEB5000000
000000000000000000
000006BDFEC7100000
0002CFFFFFFFE40000
001DFFFB9AEFFF3000
00AFFB100009FFD000
02FFD1000000BFF500
07FF600000003FFB00
0BFF200000000EFE00
0EFE000000000BFF20
0FFD000000000AFF30
1FFC0000000009FF40
1FFC0000000009FF40
1FFC0000000009FF40
1FFC0000000009FF40
1FFC0000000009FF40
0FFD000000000AFF30
0EFE000000000BFF20
0BFF200000000EFE00
08FF600000003FFB00
02FFD1000000AFF600
00AFFB100008FFD100
001DFFEA99DFFF4000
0002CFFFFFFFE50000
000006BEFEC7100000
ENDCHAR
STARTCHAR obreve
ENCODING 335
SWIDTH 501 0
DWIDTH 16 0
BBX 14 23 1 0
BITMAP
00AD80000BD700
008FE3006FF400
001DFFEEFFA000
00018DFEC60000
00000000000000
00000000000000
00018CEEC81000
003EFFFFFFE300
01EFFB77BFFE20
09FF800008FFA0
1FFD000000DFF1
4FF80000007FF5
7FF50000004FF7
7FF40000003FF8
8FF40000003FF8
8FF40000003FF8
7FF50000004FF7
4FF80000006FF5
1FFD000000BFF1
0AFF800005FFA0
02EFFB66AFFE20
003EFFFFFFE300
00018CEED81000
ENDCHAR
STARTCHAR Ohungarumlaut
ENCODING 336
SWIDTH 600 0
DWIDTH 19 0
BBX 17 29 1 0
BITMAP
0000000DFD16FF9000
0000006FF52EFD1000
000000DFC0AFF30000
000005FF45FF800000
000006CA08CC000000
000000000000000000
000006BDFEC7100000
0002CFFFFFFFE40000
001DFFFB9AEFFF3000
00AFFB100009FFD000
02FFD1000000BFF500
07FF600000003FFB00
0BFF200000000EFE00
0EFE000000000BFF20
0FFD000000000AFF30
1FFC0000000009FF40
1FFC0000000009FF40
1FFC0000000009FF40
1FFC0000000009FF40
1FFC0000000009FF40
0FFD000000000AFF30
0EFE000000000BFF20
0BFF200000000EFE00
08FF600000003FFB00
02FFD1000000AFF600
00AFFB100008FFD100
001DFFEA99DFFF4000
0002CFFFFFFFE50000
000006BEFEC7100000
ENDCHAR
STARTCHAR ohungarumlaut
ENCODING 337
SWIDTH 501 0
DWIDTH 16 0
BBX 14 24 1 0
BITMAP
00000BFF23FFC0
00003FF90CFE20
00009FE17FF600
0002FF72FFB000
0004BC05BD2000
00000000000000
00000000000000
00018CEEC81000
003EFFFFFFE300
01EFFB77BFFE20
09FF800008FFA0
1FFD000000DFF1
4FF80000007FF5
7FF50000004FF7
7FF40000003FF8
8FF40000003FF8
8FF40000003FF8
7FF50000004FF7
4FF80000006FF5
1FFD000000BFF1
0AFF800005FFA0
02EFFB66AFFE20
003EFFFFFFE300
00018CEED81000
ENDCHAR
STARTCHAR OE
ENCODING 338
SWIDTH 826 0
DWIDTH 26 0
BBX 23 23 1 0
BITMAP
000018CEFFFFFFFFFFFFFFC0
0004EFFFFFFFFFFFFFFFFFC0
004EFFA667AFFC7777777760
00DFE400004FF90000000000
06FF7000004FF90000000000
0CFE0000004FF90000000000
1FFA0000004FF90000000000
3FF80000004FF90000000000
4FF70000004FF90000000000
5FF60000004FF90000000000
5FF60000004FFFFFFFFFF900
5FF60000004FFFFFFFFFF900
5FF60000004FFC7777777400
5FF60000004FF90000000000
4FF70000004FF90000000000
3FF80000004FF90000000000
1FFB0000004FF90000000000
0BFE1000004FF90000000000
06FF7000004FF90000000000
00DFF400004FF90000000000
004EFFA667AFFC7777777760
0003EFFFFFFFFFFFFFFFFFE0
000018CEFFFFFFFFFFFFFFE0
ENDCHAR
STARTCHAR oe
ENCODING 339
SWIDTH 777 0
DWIDTH 25 0
BBX 23 17 1 0
BITMAP
00007CEEC600005CEEB60000
001CFFFFFFB10AFFFFFFA000
00BFFC77CFFA8FFC67DFF700
06FFA0000BFFFFC1001EFE10
0CFF100002FFFF400007FF50
1FFB000000CFFD000003FF80
4FF80000009FFA000002FF90
5FF60000007FFFFFFFFFFFA0
6FF60000007FFFFFFFFFFFA0
5FF60000007FFA6666666640
4FF70000009FF90000000000
1FFA000000CFFC0000000000
0CFE100002FFFF2000000000
06FFA0000BFFFFB000005600
00CFFB66CFFBAFFD767CFE10
001CFFFFFFB11BFFFFFFFA10
00007CEEC600005BEFEA5000
ENDCHAR
STARTCHAR Racute
ENCODING 340
SWIDTH 530 0
DWIDTH 17 0
BBX 15 30 2 0
BITMAP
00000009FFC00000
0000004FFD100000
000001DFE3000000
000009FF50000000
00001AD700000000
0000000000000000
0000000000000000
8FFFFFFED9300000
8FFFFFFFFFF90000
8FFA7778CFFF7000
8FF5000006FFE100
8FF5000000AFF500
8FF50000006FF800
8FF50000004FF900
8FF50000005FF800
8FF50000008FF600
8FF5000002EFF100
8FF500015DFF9000
8FFFFFFFFFFC0000
8FFFFFFFFF800000
8FF9777BFF500000
8FF50003FFC00000
8FF50000CFF40000
8FF500006FFA0000
8FF500000EFF2000
8FF5000008FF8000
8FF5000002FFE100
8FF5000000AFF700
8FF50000004FFD00
8FF50000000DFF50
ENDCHAR
STARTCHAR racute
ENCODING 341
SWIDTH 304 0
DWIDTH 10 0
BBX 9 24 2 0
BITMAP
00004FFE30
0001DFF500
0009FF7000
004FF90000
007CB00000
0000000000
0000000000
EFB1AED000
EFCCFFF100
EFFFFDD100
EFFC200000
EFF2000000
EFC0000000
EFC0000000
EFC0000000
EFC0000000
EFC0000000
EFC0000000
EFC0000000
EFC0000000
EFC0000000
EFC0000000
EFC0000000
EFC0000000
ENDCHAR
STARTCHAR uni0156
ENCODING 342
SWIDTH 530 0
DWIDTH 17 0
BBX 15 30 2 -7
BITMAP
8FFFFFFED9300000
8FFFFFFFFFF90000
8FFA7778CFFF7000
8FF5000006FFE100
8FF5000000AFF500
8FF50000006FF800
8FF50000004FF900
8FF50000005FF800
8FF50000008FF600
8FF5000002EFF100
8FF500015DFF9000
8FFFFFFFFFFC0000
8FFFFFFFFF800000
8FF9777BFF500000
8FF50003FFC00000
8FF50000CFF40000
8FF500006FFA0000
8FF500000EFF2000
8FF5000008FF8000
8FF5000002FFE100
8FF5000000AFF700
8FF50000004FFD00
8FF50000000DFF50
0000000000000000
00000FF900000000
00000FF900000000
00002FF700000000
00006FF300000000
0000CFB000000000
00004C2000000000
ENDCHAR
STARTCHAR uni0157
ENCODING 343
SWIDTH 304 0
DWIDTH 10 0
BBX 9 24 1 -7
BITMAP
0EFB1AED00
0EFCCFFF10
0EFFFFDD10
0EFFC20000
0EFF200000
0EFC000000
0EFC000000
0EFC000000
0EFC000000
0EFC000000
0EFC000000
0EFC000000
0EFC000000
0EFC000000
0EFC000000
0EFC000000
0EFC000000
0000000000
0AFE000000
0AFE000000
0DFC000000
1FF7000000
7FE1000000
2B50000000
ENDCHAR
STARTCHAR Rcaron
ENCODING 344
SWIDTH 530 0
DWIDTH 17 0
BBX 15 29 2 0
BITMAP
008FC004FF300000
000AF91EF5000000
0001CFDF70000000
00001DF800000000
0000000000000000
0000000000000000
8FFFFFFED9300000
8FFFFFFFFFF90000
8FFA7778CFFF7000
8FF5000006FFE100
8FF5000000AFF500
8FF50000006FF800
8FF50000004FF900
8FF50000005FF800
8FF50000008FF600
8FF5000002EFF100
8FF500015DFF9000
8FFFFFFFFFFC0000
8FFFFFFFFF800000
8FF9777BFF500000
8FF50003FFC00000
8FF50000CFF40000
8FF500006FFA0000
8FF500000EFF2000
8FF5000008FF8000
8FF5000002FFE100
8FF5000000AFF700
8FF50000004FFD00
8FF50000000DFF50
ENDCHAR
STARTCHAR rcaron
ENCODING 345
SWIDTH 304 0
DWIDTH 10 0
BBX 9 23 1 0
BITMAP
4FF301CF80
05FD1AFA00
007FDFB000
0009FC1000
0000000000
0000000000
0EFB1AED00
0EFCCFFF10
0EFFFFDD10
0EFFC20000
0EFF200000
0EFC000000
0EFC000000
0EFC000000
0EFC000000
0EFC000000
0EFC000000
0EFC000000
0EFC000000
0EFC000000
0EFC000000
0EFC000000
0EFC000000
ENDCHAR
STARTCHAR Sacute
ENCODING 346
SWIDTH 518 0
DWIDTH 17 0
BBX 15 30 1 0
BITMAP
000000007FFD1000
00000002FFE30000
0000000CFF400000
0000007FF7000000
0000009D90000000
0000000000000000
0000000000000000
00006BEFDA500000
002CFFFFFFFB1000
01DFFE979EFFB000
08FFB10001BFF700
0DFF2000002FFD00
0FFE0000000BFF20
1FFD00000009DD30
0EFF200000000000
09FFD20000000000
01EFFE8100000000
003DFFFFA5000000
00019FFFFFD40000
0000027DFFFF7000
000000004CFFF500
00000000009FFC00
00000000000DFF20
8EE30000000AFF40
8FF60000000AFF40
3FFB0000000DFF10
0CFF8000008FFC00
02EFFD979DFFF300
003CFFFFFFFE5000
00005BDFEC810000
ENDCHAR
STARTCHAR sacute
ENCODING 347
SWIDTH 455 0
DWIDTH 15 0
BBX 12 24 1 0
BITMAP
00000002EFF5
0000000BFF70
0000007FFA00
000002EFC000
000006CD1000
000000000000
000000000000
0004BEFEA300
009FFFFFFF70
06FFE869FFF4
0CFF20006FFA
0EFD00000EFC
0DFF20000000
08FFE7100000
00BFFFE82000
0006DFFFF910
000005CFFFD1
00000004DFFA
133100001EFE
6FF700000CFF
2FFD10002EFD
0AFFD868DFF7
01BFFFFFFFA0
0006BEFEB500
ENDCHAR
STARTCHAR Scircumflex
ENCODING 348
SWIDTH 518 0
DWIDTH 17 0
BBX 15 29 1 0
BITMAP
000001CFB0000000
00001CFDFA000000
0001BFB1CFA00000
0005BD102DB40000
0000000000000000
0000000000000000
00006BEFDA500000
002CFFFFFFFB1000
01DFFE979EFFB000
08FFB10001BFF700
0DFF2000002FFD00
0FFE0000000BFF20
1FFD00000009DD30
0EFF200000000000
09FFD20000000000
01EFFE8100000000
003DFFFFA5000000
00019FFFFFD40000
0000027DFFFF7000
000000004CFFF500
00000000009FFC00
00000000000DFF20
8EE30000000AFF40
8FF60000000AFF40
3FFB0000000DFF10
0CFF8000008FFC00
02EFFD979DFFF300
003CFFFFFFFE5000
00005BDFEC810000
ENDCHAR
STARTCHAR scircumflex
ENCODING 349
SWIDTH 455 0
DWIDTH 15 0
BBX 12 23 1 0
BITMAP
000008FE3000
00007FDFE200
0007FE27FE20
001AE500AC70
000000000000
000000000000
0004BEFEA300
009FFFFFFF70
06FFE869FFF4
0CFF20006FFA
0EFD00000EFC
0DFF20000000
08FFE7100000
00BFFFE82000
0006DFFFF910
000005CFFFD1
00000004DFFA
133100001EFE
6FF700000CFF
2FFD10002EFD
0AFFD868DFF7
01BFFFFFFFA0
0006BEFEB500
ENDCHAR
STARTCHAR Scedilla
ENCODING 350
SWIDTH 518 0
DWIDTH 17 0
BBX 15 30 1 -7
BITMAP
00006BEFDA500000
002CFFFFFFFB1000
01DFFE979EFFB000
08FFB10001BFF700
0DFF2000002FFD00
0FFE0000000BFF20
1FFD00000009DD30
0EFF200000000000
09FFD20000000000
01EFFE8100000000
003DFFFFA5000000
00019FFFFFD40000
0000027DFFFF7000
000000004CFFF500
00000000009FFC00
00000000000DFF20
8EE30000000AFF40
8FF60000000AFF40
3FFB0000000DFF10
0CFF8000008FFC00
02EFFD979DFFF300
003CFFFFFFFE5000
00005BDFEC810000
0000007F80000000
000000AFE7000000
00000038FF200000
00000000CF500000
00000001EF400000
0000007EFC000000
0000009D81000000
ENDCHAR
STARTCHAR scedilla
ENCODING 351
SWIDTH 455 0
DWIDTH 15 0
BBX 12 24 1 -7
BITMAP
0004BEFEA300
009FFFFFFF70
06FFE869FFF4
0CFF20006FFA
0EFD00000EFC
0DFF20000000
08FFE7100000
00BFFFE82000
0006DFFFF910
000005CFFFD1
00000004DFFA
133100001EFE
6FF700000CFF
2FFD10002EFD
0AFFD868DFF7
01BFFFFFFFA0
0006BEFEB500
000003FC0000
000006FF9000
0000026EF600
00000008F900
0000000AF800
000005DFE200
000006DA3000
ENDCHAR
STARTCHAR Scaron
ENCODING 352
SWIDTH 518 0
DWIDTH 17 0
BBX 15 29 1 0
BITMAP
0006FD102EF50000
00008FB1CF700000
00000AFDF9000000
000000CFA0000000
0000000000000000
0000000000000000
00006BEFDA500000
002CFFFFFFFB1000
01DFFE979EFFB000
08FFB10001BFF700
0DFF2000002FFD00
0FFE0000000BFF20
1FFD00000009DD30
0EFF200000000000
09FFD20000000000
01EFFE8100000000
003DFFFFA5000000
00019FFFFFD40000
0000027DFFFF7000
000000004CFFF500
00000000009FFC00
00000000000DFF20
8EE30000000AFF40
8FF60000000AFF40
3FFB0000000DFF10
0CFF8000008FFC00
02EFFD979DFFF300
003CFFFFFFFE5000
00005BDFEC810000
ENDCHAR
STARTCHAR scaron
ENCODING 353
SWIDTH 455 0
DWIDTH 15 0
BBX 12 23 1 0
BITMAP
002EF500BFA0
0003FE27FC10
00005FDFD100
000007FE2000
000000000000
000000000000
0004BEFEA300
009FFFFFFF70
06FFE869FFF4
0CFF20006FFA
0EFD00000EFC
0DFF20000000
08FFE7100000
00BFFFE82000
0006DFFFF910
000005CFFFD1
00000004DFFA
133100001EFE
6FF700000CFF
2FFD10002EFD
0AFFD868DFF7
01BFFFFFFFA0
0006BEFEB500
ENDCHAR
STARTCHAR uni0162
ENCODING 354
SWIDTH 520 0
DWIDTH 17 0
BBX 16 30 0 -7
BITMAP
1FFFFFFFFFFFFFFB
1FFFFFFFFFFFFFFB
0777778FFD777775
0000001FFC000000
0000001FFC000000
0000001FFC000000
0000001FFC000000
0000001FFC000000
0000001FFC000000
0000001FFC000000
0000001FFC000000
0000001FFC000000
0000001FFC000000
0000001FFC000000
0000001FFC000000
0000001FFC000000
0000001FFC000000
0000001FFC000000
0000001FFC000000
0000001FFC000000
0000001FFC000000
0000001FFC000000
0000001FFC000000
0000000AF5000000
0000000DFD400000
000000049FE00000
000000000EF20000
000000002FF10000
0000000AEFA00000
0000000CC7000000
ENDCHAR
STARTCHAR uni0163
ENCODING 355
SWIDTH 295 0
DWIDTH 9 0
BBX 10 28 0 -7
BITMAP
001FFA0000
001FFA0000
001FFA0000
001FFA0000
AFFFFFFF40
AFFFFFFF40
244FFB4410
001FFA0000
001FFA0000
001FFA0000
001FFA0000
001FFA0000
001FFA0000
001FFA0000
001FFA0000
001FFA0000
001FFA0000
000EFC0000
000CFFA820
0005FFFF30
00007DFD20
00000AF500
00000DFD40
0000049FE0
0000000FF2
0000002FF1
00000AEFA0
00000CC700
ENDCHAR
STARTCHAR Tcaron
ENCODING 356
SWIDTH 520 0
DWIDTH 17 0
BBX 16 29 0 0
BITMAP
00008FC103FF4000
00000AFA1DF50000
000000BFDF700000
0000001DF9000000
0000000000000000
0000000000000000
1FFFFFFFFFFFFFFB
1FFFFFFFFFFFFFFB
0777778FFD777775
0000001FFC000000
0000001FFC000000
0000001FFC000000
0000001FFC000000
0000001FFC000000
0000001FFC000000
0000001FFC000000
0000001FFC000000
0000001FFC000000
0000001FFC000000
0000001FFC000000
0000001FFC000000
0000001FFC000000
0000001FFC000000
0000001FFC000000
0000001FFC000000
0000001FFC000000
0000001FFC000000
0000001FFC000000
0000001FFC000000
ENDCHAR
STARTCHAR tcaron
ENCODING 357
SWIDTH 314 0
DWIDTH 10 0
BBX 11 26 0 0
BITMAP
00000001FF80
00000001FF80
00000003FF60
00000007FF20
0000000DFA00
001FFA05C100
001FFA000000
001FFA000000
001FFA000000
AFFFFFFF4000
AFFFFFFF4000
244FFB441000
001FFA000000
001FFA000000
001FFA000000
001FFA000000
001FFA000000
001FFA000000
001FFA000000
001FFA000000
001FFA000000
001FFA000000
000EFC000000
000CFFA82000
0005FFFF3000
00007DFD2000
ENDCHAR
STARTCHAR Tbar
ENCODING 358
SWIDTH 520 0
DWIDTH 17 0
BBX 16 23 0 0
BITMAP
1FFFFFFFFFFFFFFB
1FFFFFFFFFFFFFFB
0777778FFD777775
0000001FFC000000
0000001FFC000000
0000001FFC000000
0000001FFC000000
0000001FFC000000
0000BFFFFFFFB000
0000BFFFFFFFB000
0000456FFD554000
0000001FFC000000
0000001FFC000000
0000001FFC000000
0000001FFC000000
0000001FFC000000
0000001FFC000000
0000001FFC000000
0000001FFC000000
0000001FFC000000
0000001FFC000000
0000001FFC000000
0000001FFC000000
ENDCHAR
STARTCHAR tbar
ENCODING 359
SWIDTH 295 0
DWIDTH 9 0
BBX 9 21 0 0
BITMAP
001FFA0000
001FFA0000
001FFA0000
001FFA0000
AFFFFFFF40
AFFFFFFF40
244FFB4410
001FFA0000
001FFA0000
FFFFFFFF80
FFFFFFFF80
556FFC5530
001FFA0000
001FFA0000
001FFA0000
001FFA0000
001FFA0000
000EFC0000
000CFFA820
0005FFFF30
00007DFD20
ENDCHAR
STARTCHAR Utilde
ENCODING 360
SWIDTH 561 0
DWIDTH 18 0
BBX 14 29 2 0
BITMAP
00001200016400
0009FFD749F900
006FFFFFFFF300
009F515BED5000
00000000000000
00000000000000
FFD00000000DFF
FFD00000000DFF
FFD00000000DFF
FFD00000000DFF
FFD00000000DFF
FFD00000000DFF
FFD00000000DFF
FFD00000000DFF
FFD00000000DFF
FFD00000000DFF
FFD00000000DFF
FFD00000000DFF
FFD00000000DFF
FFD00000000DFF
FFD00000000DFF
FFD00000000DFF
EFE00000000DFF
DFF00000000FFD
AFF50000005FFA
4FFD200002DFF4
0BFFE9779EFFA0
01BFFFFFFFFA10
0005ADFFDA4000
ENDCHAR
STARTCHAR utilde
ENCODING 361
SWIDTH 483 0
DWIDTH 15 0
BBX 12 23 2 0
BITMAP
000220003620
02CFFB64CF50
0AFFFFFFFE10
0DE216CEC300
000000000000
000000000000
FFC000006FF6
FFC000006FF6
FFC000006FF6
FFC000006FF6
FFC000006FF6
FFC000006FF6
FFC000006FF6
FFC000006FF6
FFC000006FF6
FFC000006FF6
FFC000006FF6
EFD000006FF6
DFE000008FF6
AFF60004EFF6
5FFF97AFFFF6
0BFFFFFFAFF6
007DFEB44FF6
ENDCHAR
STARTCHAR Umacron
ENCODING 362
SWIDTH 561 0
DWIDTH 18 0
BBX 14 29 2 0
BITMAP
00244444444200
007FFFFFFFF900
007FFFFFFFF900
00000000000000
00000000000000
00000000000000
FFD00000000DFF
FFD00000000DFF
FFD00000000DFF
FFD00000000DFF
FFD00000000DFF
FFD00000000DFF
FFD00000000DFF
FFD00000000DFF
FFD00000000DFF
FFD00000000DFF
FFD00000000DFF
FFD00000000DFF
FFD00000000DFF
FFD00000000DFF
FFD00000000DFF
FFD00000000DFF
EFE00000000DFF
DFF00000000FFD
AFF50000005FFA
4FFD200002DFF4
0BFFE9779EFFA0
01BFFFFFFFFA10
0005ADFFDA4000
ENDCHAR
STARTCHAR umacron
ENCODING 363
SWIDTH 483 0
DWIDTH 15 0
BBX 12 24 2 0
BITMAP
034444444410
0BFFFFFFFF50
0BFFFFFFFF50
000000000000
000000000000
000000000000
000000000000
FFC000006FF6
FFC000006FF6
FFC000006FF6
FFC000006FF6
FFC000006FF6
FFC000006FF6
FFC000006FF6
FFC000006FF6
FFC000006FF6
FFC000006FF6
FFC000006FF6
EFD000006FF6
DFE000008FF6
AFF60004EFF6
5FFF97AFFFF6
0BFFFFFFAFF6
007DFEB44FF6
ENDCHAR
STARTCHAR Ubreve
ENCODING 364
SWIDTH 561 0
DWIDTH 18 0
BBX 14 28 2 0
BITMAP
008DA0000AD800
006FF4005FF600
000CFFEEFFC000
00007CFFC70000
00000000000000
FFD00000000DFF
FFD00000000DFF
FFD00000000DFF
FFD00000000DFF
FFD00000000DFF
FFD00000000DFF
FFD00000000DFF
FFD00000000DFF
FFD00000000DFF
FFD00000000DFF
FFD00000000DFF
FFD00000000DFF
FFD00000000DFF
FFD00000000DFF
FFD00000000DFF
FFD00000000DFF
EFE00000000DFF
DFF00000000FFD
AFF50000005FFA
4FFD200002DFF4
0BFFE9779EFFA0
01BFFFFFFFFA10
0005ADFFDA4000
ENDCHAR
STARTCHAR ubreve
ENCODING 365
SWIDTH 483 0
DWIDTH 15 0
BBX 12 23 2 0
BITMAP
0CD60000DD50
0AFD2008FF20
02EFFEEFF800
0029DFEB5000
000000000000
000000000000
FFC000006FF6
FFC000006FF6
FFC000006FF6
FFC000006FF6
FFC000006FF6
FFC000006FF6
FFC000006FF6
FFC000006FF6
FFC000006FF6
FFC000006FF6
FFC000006FF6
EFD000006FF6
DFE000008FF6
AFF60004EFF6
5FFF97AFFFF6
0BFFFFFFAFF6
007DFEB44FF6
ENDCHAR
STARTCHAR Uring
ENCODING 366
SWIDTH 561 0
DWIDTH 18 0
BBX 14 31 2 0
BITMAP
00002AEE910000
0000CE88EC0000
0004F5005F3000
0004F5005F4000
0001DE77EC0000
00002AEEA20000
00000000000000
00000000000000
FFD00000000DFF
FFD00000000DFF
FFD00000000DFF
FFD00000000DFF
FFD00000000DFF
FFD00000000DFF
FFD00000000DFF
FFD00000000DFF
FFD00000000DFF
FFD00000000DFF
FFD00000000DFF
FFD00000000DFF
FFD00000000DFF
FFD00000000DFF
FFD00000000DFF
FFD00000000DFF
EFE00000000DFF
DFF00000000FFD
AFF50000005FFA
4FFD200002DFF4
0BFFE9779EFFA0
01BFFFFFFFFA10
0005ADFFDA4000
ENDCHAR
STARTCHAR uring
ENCODING 367
SWIDTH 483 0
DWIDTH 15 0
BBX 12 25 2 0
BITMAP
0003BED70000
002EC79F8000
008F1009E000
008F1009E000
003FC79F9000
0004CED80000
000000000000
000000000000
FFC000006FF6
FFC000006FF6
FFC000006FF6
FFC000006FF6
FFC000006FF6
FFC000006FF6
FFC000006FF6
FFC000006FF6
FFC000006FF6
FFC000006FF6
FFC000006FF6
EFD000006FF6
DFE000008FF6
AFF60004EFF6
5FFF97AFFFF6
0BFFFFFFAFF6
007DFEB44FF6
ENDCHAR
STARTCHAR Uhungarumlaut
ENCODING 368
SWIDTH 561 0
DWIDTH 18 0
BBX 14 30 2 0
BITMAP
000009FF42EFD1
00001FFA0BFF40
00008FF25FF800
0001EF91EFC000
0003BD14BE3000
00000000000000
00000000000000
FFD00000000DFF
FFD00000000DFF
FFD00000000DFF
FFD00000000DFF
FFD00000000DFF
FFD00000000DFF
FFD00000000DFF
FFD00000000DFF
FFD00000000DFF
FFD00000000DFF
FFD00000000DFF
FFD00000000DFF
FFD00000000DFF
FFD00000000DFF
FFD00000000DFF
FFD00000000DFF
EFE00000000DFF
DFF00000000FFD
AFF50000005FFA
4FFD200002DFF4
0BFFE9779EFFA0
01BFFFFFFFFA10
0005ADFFDA4000
ENDCHAR
STARTCHAR uhungarumlaut
ENCODING 369
SWIDTH 483 0
DWIDTH 15 0
BBX 12 24 2 0
BITMAP
0000DFE15FFA
0005FF61EFD1
000CFD09FF40
004FF54FF900
005CB07CC100
000000000000
000000000000
FFC000006FF6
FFC000006FF6
FFC000006FF6
FFC000006FF6
FFC000006FF6
FFC000006FF6
FFC000006FF6
FFC000006FF6
FFC000006FF6
FFC000006FF6
FFC000006FF6
EFD000006FF6
DFE000008FF6
AFF60004EFF6
5FFF97AFFFF6
0BFFFFFFAFF6
007DFEB44FF6
ENDCHAR
STARTCHAR Uogonek
ENCODING 370
SWIDTH 561 0
DWIDTH 18 0
BBX 14 29 2 -6
BITMAP
FFD00000000DFF
FFD00000000DFF
FFD00000000DFF
FFD00000000DFF
FFD00000000DFF
FFD00000000DFF
FFD00000000DFF
FFD00000000DFF
FFD00000000DFF
FFD00000000DFF
FFD00000000DFF
FFD00000000DFF
FFD00000000DFF
FFD00000000DFF
FFD00000000DFF
FFD00000000DFF
EFE00000000DFE
DFF00000000FFD
AFF50000005FFA
4FFD200002DFF4
0BFFE9779EFFA0
01BFFFFFFFFA00
0005ADEFFE4000
0000003FF40000
000000AFB00000
000000DF700000
000000DFB35000
0000009FFFC000
0000001AED7000
ENDCHAR
STARTCHAR uogonek
ENCODING 371
SWIDTH 483 0
DWIDTH 15 0
BBX 12 24 2 -7
BITMAP
FFC000006FF6
FFC000006FF6
FFC000006FF6
FFC000006FF6
FFC000006FF6
FFC000006FF6
FFC000006FF6
FFC000006FF6
FFC000006FF6
FFC000006FF6
FFC000006FF6
EFD000006FF6
DFE000008FF6
AFF60004EFF6
5FFF97AFFFF6
0BFFFFFFAFF6
007DFEB44FF6
00000001BFB0
00000009FC10
0000002FF400
0000005FF100
0000004FF642
0000001EFFF6
00000004DEB3
ENDCHAR
STARTCHAR Wcircumflex
ENCODING 372
SWIDTH 761 0
DWIDTH 24 0
BBX 23 29 1 0
BITMAP
0000000001CFB00000000000
000000001CFDFA0000000000
00000001CFB1CFA000000000
00000005BD102DB300000000
000000000000000000000000
000000000000000000000000
CFF1000000EFA0000006FF60
9FF4000002FFE0000009FF40
6FF6000006FFF200000CFF10
3FF9000009FFF500000EFD00
0FFC00000DFFF900002FFA00
0CFE00001FFCFC00005FF700
09FF20004FF6FF00007FF400
06FF50008FD1FF3000AFF100
03FF7000BF90DF7000DFD000
01FFA000EF60AFA000FFA000
00DFD003FF206FD003FF7000
00AFF106FE003FF205FF4000
007FF30AFA000EF508FF1000
004FF60DF7000BF80BFD0000
001FF92FF30008FC0DFA0000
000DFB5FE00004FF1FF70000
000AFD8FB00001FF6FF40000
0007FFBF800000CFBFF10000
0004FFFF4000009FFFD00000
0001FFFF1000006FFFA00000
0000DFFC0000002FFF700000
0000AFF90000000EFF400000
00007FF50000000AFF100000
ENDCHAR
STARTCHAR wcircumflex
ENCODING 373
SWIDTH 649 0
DWIDTH 21 0
BBX 20 23 0 0
BITMAP
000000002DF900000000
00000002DFDF90000000
0000001DF91DF8000000
0000006CC003EB200000
00000000000000000000
00000000000000000000
1FF900000DF900000DFD
0DFC00002FFD00001FF9
09FF10006FFF20004FF5
06FF4000AFFF60008FF2
02FF7000EFFFA000BFD0
00DFB003FFAFE000EF90
00AFE007FD3FF302FF60
006FF20BF90EF705FF20
002FF60EF50AFB09FD00
000EF94FF106FE0CFA00
000AFC8FC002FF4FF600
0007FFDF8000DFBFF200
0003FFFF40009FFFE000
0000EFFF10005FFFA000
0000BFFC00001FFF7000
00007FF800000CFF3000
00003FF4000008FE0000
ENDCHAR
STARTCHAR Ycircumflex
ENCODING 374
SWIDTH 524 0
DWIDTH 17 0
BBX 17 29 0 0
BITMAP
0000001CFB00000000
000001CFDFA0000000
00001CFB1CFA000000
00005BD102DB300000
000000000000000000
000000000000000000
5FFE000000003FFE10
0DFF500000009FF900
06FFB0000001EFF200
01EFF2000006FFA000
008FF800000CFF4000
001FFE00003FFC0000
0009FF50009FF50000
0003FFB001EFD00000
0000BFF206FF700000
00004FF80CFE100000
00000CFE3FF8000000
000006FFDFF2000000
000000EFFFA0000000
0000007FFF30000000
0000002FFD00000000
0000001FFC00000000
0000001FFC00000000
0000001FFC00000000
0000001FFC00000000
0000001FFC00000000
0000001FFC00000000
0000001FFC00000000
0000001FFC00000000
ENDCHAR
STARTCHAR ycircumflex
ENCODING 375
SWIDTH 416 0
DWIDTH 13 0
BBX 13 30 0 -7
BITMAP
000006FF400000
00005FEEE40000
0005FF45FE4000
0009D7008D9000
00000000000000
00000000000000
5FFA000005FF80
1FFE000009FF40
0BFF30000DFE00
06FF70002FFB00
02FFA0005FF600
00DFE0009FF200
008FF300DFD000
004FF701FF9000
000EFA05FF4000
000AFE09FF1000
0006FF3DFB0000
0001FF8FF70000
0000CFEFF20000
00008FFFD00000
00003FFF900000
00000EFF500000
000009FF100000
00000AFB000000
00000EF7000000
00004FF3000000
0001CFC0000000
059DFF50000000
09FFFA00000000
08EE8000000000
ENDCHAR
STARTCHAR Ydieresis
ENCODING 376
SWIDTH 524 0
DWIDTH 17 0
BBX 17 29 0 0
BITMAP
000023000003200000
0005FF80009FF40000
0008FFC000DFF80000
0003DE50006ED20000
000000000000000000
000000000000000000
5FFE000000003FFE10
0DFF500000009FF900
06FFB0000001EFF200
01EFF2000006FFA000
008FF800000CFF4000
001FFE00003FFC0000
0009FF50009FF50000
0003FFB001EFD00000
0000BFF206FF700000
00004FF80CFE100000
00000CFE3FF8000000
000006FFDFF2000000
000000EFFFA0000000
0000007FFF30000000
0000002FFD00000000
0000001FFC00000000
0000001FFC00000000
0000001FFC00000000
0000001FFC00000000
0000001FFC00000000
0000001FFC00000000
0000001FFC00000000
0000001FFC00000000
ENDCHAR
STARTCHAR Zacute
ENCODING 377
SWIDTH 522 0
DWIDTH 17 0
BBX 15 30 1 0
BITMAP
000000007FFD1000
00000003FFE20000
0000000CFF400000
0000008FF6000000
0000009D90000000
0000000000000000
0000000000000000
7FFFFFFFFFFFFF00
7FFFFFFFFFFFFF00
3777777777AFFC00
0000000000CFF400
0000000006FFA000
000000001DFF2000
000000008FF80000
00000002EFE10000
0000000AFF600000
0000003FFC000000
000000CFF4000000
000005FFB0000000
00000DFF20000000
00007FF900000000
0001EFE100000000
0009FF7000000000
003FFD0000000000
00BFF50000000000
05FFB00000000000
0DFF300000000000
6FFD777777777730
9FFFFFFFFFFFFF60
9FFFFFFFFFFFFF60
ENDCHAR
STARTCHAR zacute
ENCODING 378
SWIDTH 438 0
DWIDTH 14 0
BBX 12 24 1 0
BITMAP
0000000CFF80
0000008FFB00
000003FFD100
00000DFE2000
00003BE40000
000000000000
000000000000
7FFFFFFFFFF7
7FFFFFFFFFF7
36666666EFF3
00000007FF80
0000002EFD10
000000BFF500
000005FFA000
00001DFE2000
00009FF70000
0003FFC00000
000CFF300000
007FF9000000
02EFE1000000
0AFF50000000
4FFD55555554
8FFFFFFFFFFC
8FFFFFFFFFFC
ENDCHAR
STARTCHAR Zdotaccent
ENCODING 379
SWIDTH 522 0
DWIDTH 17 0
BBX 15 29 1 0
BITMAP
0000001410000000
000001EFD0000000
000004FFF1000000
000000BE90000000
0000000000000000
0000000000000000
7FFFFFFFFFFFFF00
7FFFFFFFFFFFFF00
3777777777AFFC00
0000000000CFF400
0000000006FFA000
000000001DFF2000
000000008FF80000
00000002EFE10000
0000000AFF600000
0000003FFC000000
000000CFF4000000
000005FFB0000000
00000DFF20000000
00007FF900000000
0001EFE100000000
0009FF7000000000
003FFD0000000000
00BFF50000000000
05FFB00000000000
0DFF300000000000
6FFD777777777730
9FFFFFFFFFFFFF60
9FFFFFFFFFFFFF60
ENDCHAR
STARTCHAR zdotaccent
ENCODING 380
SWIDTH 438 0
DWIDTH 14 0
BBX 12 23 1 0
BITMAP
000003300000
00006FF80000
00009FFB0000
00003DE50000
000000000000
000000000000
7FFFFFFFFFF7
7FFFFFFFFFF7
36666666EFF3
00000007FF80
0000002EFD10
000000BFF500
000005FFA000
00001DFE2000
00009FF70000
0003FFC00000
000CFF300000
007FF9000000
02EFE1000000
0AFF50000000
4FFD55555554
8FFFFFFFFFFC
8FFFFFFFFFFC
ENDCHAR
STARTCHAR Zcaron
ENCODING 381
SWIDTH 522 0
DWIDTH 17 0
BBX 15 29 1 0
BITMAP
0007FD102EF50000
00009FB1DF600000
00000BFDF8000000
000001CFA0000000
0000000000000000
0000000000000000
7FFFFFFFFFFFFF00
7FFFFFFFFFFFFF00
3777777777AFFC00
0000000000CFF400
0000000006FFA000
000000001DFF2000
000000008FF80000
00000002EFE10000
0000000AFF600000
0000003FFC000000
000000CFF4000000
000005FFB0000000
00000DFF20000000
00007FF900000000
0001EFE100000000
0009FF7000000000
003FFD0000000000
00BFF50000000000
05FFB00000000000
0DFF300000000000
6FFD777777777730
9FFFFFFFFFFFFF60
9FFFFFFFFFFFFF60
ENDCHAR
STARTCHAR zcaron
ENCODING 382
SWIDTH 438 0
DWIDTH 14 0
BBX 12 23 1 0
BITMAP
00CF9007FD10
001DF54FE200
0002EEEE3000
00003FF50000
000000000000
000000000000
7FFFFFFFFFF7
7FFFFFFFFFF7
36666666EFF3
00000007FF80
0000002EFD10
000000BFF500
000005FFA000
00001DFE2000
00009FF70000
0003FFC00000
000CFF300000
007FF9000000
02EFE1000000
0AFF50000000
4FFD55555554
8FFFFFFFFFFC
8FFFFFFFFFFC
ENDCHAR
STARTCHAR longs
ENCODING 383
SWIDTH 234 0
DWIDTH 8 0
BBX 7 24 2 0
BITMAP
005CEEA0
06FFFFB0
1EFFA640
6FF90000
8FF40000
9FF30000
9FF20000
9FF20000
9FF20000
9FF20000
9FF20000
9FF20000
9FF20000
9FF20000
9FF20000
9FF20000
9FF20000
9FF20000
9FF20000
9FF20000
9FF20000
9FF20000
9FF20000
9FF20000
ENDCHAR
STARTCHAR uni018F
ENCODING 399
SWIDTH 597 0
DWIDTH 19 0
BBX 17 23 1 0
BITMAP
00038CEFEC71000000
007FFFFFFFFE600000
007FFB989DFFF70000
00282000006FFF4000
000000000005FFD000
000000000000BFF500
0000000000004FFA00
0000000000000EFE00
0000000000000CFF20
0000000000000AFF30
00000000000009FF40
9FFFFFFFFFFFFFFF40
9FFFFFFFFFFFFFFF40
9FF7555555555CFF30
8FF4000000000CFF20
6FF5000000000EFE00
4FF8000000003FFA00
1EFC000000009FF500
09FF50000003FFD000
02FFE400003DFF4000
006FFFC88AFFF80000
0006EFFFFFFF700000
000028CEFD92000000
ENDCHAR
STARTCHAR florin
ENCODING 402
SWIDTH 309 0
DWIDTH 10 0
BBX 10 31 0 -7
BITMAP
000008DFE6
0000BFFFF6
0005FFE983
000AFF4000
000DFE0000
000DFD0000
000DFD0000
1FFFFFFF50
1FFFFFFF50
044EFE4410
000DFD0000
000DFD0000
000DFD0000
000DFD0000
000DFD0000
000DFD0000
000DFD0000
000DFD0000
000DFD0000
000DFD0000
000DFD0000
000DFD0000
000DFD0000
000DFD0000
000DFD0000
000EFD0000
000FFC0000
003FFA0000
66CFF50000
CFFFB00000
BFD8100000
ENDCHAR
STARTCHAR Ohorn
ENCODING 416
SWIDTH 592 0
DWIDTH 19 0
BBX 19 26 1 0
BITMAP
00000000000000013300
0000000000000006FF10
0000000000000008FE00
000006BEFDA5000CFB00
0002CFFFFFFFB28FF600
002DFFEA9CFFFFFFC000
00BFFB10004EFFE81000
04FFC0000004FFE00000
0AFF40000000BFF50000
0EFE000000005FF90000
3FFA000000001FFC0000
5FF7000000000EFE0000
6FF6000000000DFF0000
7FF5000000000CFF0000
8FF5000000000CFF0000
7FF5000000000CFF0000
6FF6000000000DFE0000
5FF7000000000EFD0000
3FFA000000001FFB0000
0EFE000000005FF80000
0AFF40000000AFF30000
04FFC0000003FFC00000
00BFFA10003DFF400000
002DFFEA9BFFF8000000
0002DFFFFFFF80000000
000006BEFD9300000000
ENDCHAR
STARTCHAR ohorn
ENCODING 417
SWIDTH 502 0
DWIDTH 16 0
BBX 16 19 1 0
BITMAP
00000000000009A3
0000000000000EF3
00007CEEC7101FF2
001CFFFFFFD3AFC0
00CFFC77CFFFFF30
06FFA0000AFFC300
0DFE100001EFD000
2FFA0000009FF300
5FF70000006FF500
7FF50000004FF700
7FF40000004FF800
6FF50000004FF700
5FF60000006FF600
2FFA0000009FF300
0DFE100001EFD000
06FFA00009FF7000
00CFFC66BFFC0000
001CFFFFFFD20000
00007CEEC7000000
ENDCHAR
STARTCHAR Uhorn
ENCODING 431
SWIDTH 608 0
DWIDTH 19 0
BBX 20 25 2 0
BITMAP
00000000000000002991
00000000000000005FF1
FFD00000000DFF007FE0
FFD00000000DFF00CFA0
FFD00000000DFF2AFF50
FFD00000000DFFFFFA00
FFD00000000DFFFD7000
FFD00000000DFF100000
FFD00000000DFF000000
FFD00000000DFF000000
FFD00000000DFF000000
FFD00000000DFF000000
FFD00000000DFF000000
FFD00000000DFF000000
FFD00000000DFF000000
FFD00000000DFF000000
FFD00000000DFF000000
EFD00000000DFF000000
DFE00000000EFE000000
BFF20000002FFB000000
7FF80000008FF7000000
1FFF400004FFE1000000
07FFFB77BFFF50000000
007FFFFFFFF600000000
00039DEED82000000000
ENDCHAR
STARTCHAR uhorn
ENCODING 432
SWIDTH 549 0
DWIDTH 18 0
BBX 16 19 2 0
BITMAP
0000000000000363
00000000000008F8
FFC000006FF609F6
FFC000006FF64EF2
FFC000006FFFFF90
FFC000006FFDA500
FFC000006FF60000
FFC000006FF60000
FFC000006FF60000
FFC000006FF60000
FFC000006FF60000
FFC000006FF60000
FFC000006FF60000
EFD000006FF60000
DFE000008FF60000
AFF60004EFF60000
5FFF97AFFFF60000
0BFFFFFFAFF60000
007DFEB44FF60000
ENDCHAR
STARTCHAR uni01F0
ENCODING 496
SWIDTH 237 0
DWIDTH 8 0
BBX 10 30 -1 -7
BITMAP
1DF7009FC1
02EF45FD10
003EEEE200
0005FF3000
0000000000
0000000000
0007FF4000
0007FF4000
0007FF4000
0007FF4000
0007FF4000
0007FF4000
0007FF4000
0007FF4000
0007FF4000
0007FF4000
0007FF4000
0007FF4000
0007FF4000
0007FF4000
0007FF4000
0007FF4000
0007FF4000
0007FF4000
0007FF4000
0008FF3000
000CFF1000
369FFC0000
6FFFF30000
5EEB300000
ENDCHAR
STARTCHAR Aringacute
ENCODING 506
SWIDTH 576 0
DWIDTH 18 0
BBX 18 31 0 0
BITMAP
0000000000BFC10000
0000000008FC100000
000000001BC1000000
000000000000000000
00000002CE90000000
0000000BA5E6000000
0000000E4098000000
0000000CA4D6000000
00000005FFF0000000
00000007FFE0000000
0000000CFFF4000000
0000002FFFF9000000
0000007FFBFD000000
000000BFC5FF300000
000001FF71FF800000
000006FF20BFD00000
00000BFD006FF20000
00001FF8001FF70000
00005FF3000CFC0000
0000AFD00007FF2000
0000EF900002FF7000
0005FF400000CFB000
0009FFFFFFFFFFF100
000EFFFFFFFFFFF600
004FF97777777EFB00
009FF10000000AFF10
00DFC000000006FF50
03FF8000000002FFA0
08FF4000000000CFE1
0DFF10000000008FF5
3FFB00000000004FFA
ENDCHAR
STARTCHAR aringacute
ENCODING 507
SWIDTH 479 0
DWIDTH 15 0
BBX 13 26 1 0
BITMAP
00000002EF8000
0000000CF80000
0000004D800000
00000000000000
000005DD500000
00002F77E10000
00004E00E40000
00002F67F10000
000005DE500000
00028DEEC71000
004EFFFFFFC100
02EFF967DFF900
09FF50001EFE00
0DFE00000BFF10
000000000AFF20
000000000AFF20
00028CEFFFFF20
007FFFFFFFFF20
06FFE8311AFF20
0DFE20000AFF20
2FF900000AFF20
3FF900000AFF20
1FFD00006FFF20
0CFFD99CFFFF30
03EFFFFFC9FF50
0029DFD815FF90
ENDCHAR
STARTCHAR AEacute
ENCODING 508
SWIDTH 812 0
DWIDTH 26 0
BBX 26 30 0 0
BITMAP
00000000000006FFE200000000
0000000000002EFF4000000000
000000000000BFF60000000000
000000000006FF800000000000
000000000008DA000000000000
00000000000000000000000000
00000000000000000000000000
00000000000BFFFFFFFFFFFF70
00000000004FFFFFFFFFFFFF70
0000000000BFFFF96666666620
0000000004FFDFF60000000000
000000000BFF6FF70000000000
000000004FF94FF70000000000
00000000BFF24FF80000000000
00000004FFA03FF80000000000
0000000BFF403FF90000000000
0000004FFC002FF90000000000
000000BFF5002FFFFFFFFFF600
000004FFD0001FFFFFFFFFF600
00000BFF60001FFC5555555200
00004FFE10000FFB0000000000
0000BFF700000FFC0000000000
0004FFFFFFFFFFFC0000000000
000CFFFFFFFFFFFD0000000000
004FFFBBBBBBBEFE0000000000
00CFF90000000DFE0000000000
04FFF20000000CFF0000000000
0CFF900000000CFF5555555551
4FFF200000000BFFFFFFFFFFF4
CFF9000000000AFFFFFFFFFFF4
ENDCHAR
STARTCHAR aeacute
ENCODING 509
SWIDTH 728 0
DWIDTH 23 0
BBX 22 24 1 0
BITMAP
000000000005FFE2000000
00000000001EFF40000000
0000000000AFF600000000
0000000005FF9000000000
0000000008CB0000000000
0000000000000000000000
0000000000000000000000
0006BEFD92003AEFD81000
01BFFFFFFE36FFFFFFE300
0AFFE86AFFEFFE86AFFD00
2FFE2000AFFFE20007FF60
4FF800003FFF700001EFB0
002100001FFF100000BFE0
000000000FFD000000AFF1
0028BDEEEFFFFFFFFFFFF2
04EFFFFFFFFFFFFFFFFFF2
2EFFB6444FFC4444444440
7FF900000FFC0000000000
AFF300000FFF1000000000
AFF200000FFF7000000000
8FF60001AFFFE300001820
3FFF868DFFAFFF9669EF90
09FFFFFFF806FFFFFFFF70
006CFED9300029DEEC8200
ENDCHAR
STARTCHAR Oslashacute
ENCODING 510
SWIDTH 600 0
DWIDTH 19 0
BBX 17 32 1 -2
BITMAP
0000000004FFF30000
000000001DFF500000
000000009FF8000000
00000004FFA0000000
00000007CC10000000
000000000000000000
000000000000005950
000004ADFEB601EE20
00009FFFFFFFC9F800
000AFFFB9AEFFFE100
006FFD30001BFFA000
00DFF3000003FFF200
05FFA000000AFFF800
09FF4000003FDFFD00
0DFF000000BF5CFF10
0FFC000004FC09FF30
1FFB00000CF408FF50
2FFA00005FB007FF50
3FFA0000CF3007FF60
2FFA0006FA0007FF50
1FFB000DF20008FF50
0FFC007F900009FF30
0DFE01EF20000BFF10
0AFF38F800001FFD00
05FFAEE100005FF800
00EFFF700001DFF300
005FFF40001BFF9000
000CFFFB9AEFFD1000
003FEFFFFFFFC20000
00AF54ADFEB6000000
03FC00000000000000
012100000000000000
ENDCHAR
STARTCHAR oslashacute
ENCODING 511
SWIDTH 498 0
DWIDTH 16 0
BBX 14 26 1 -2
BITMAP
00000008FFD100
0000003FFE2000
000000CFF40000
000008FF600000
00000AD8000000
00000000006A20
0000000000ED00
00007CEEC9F600
001CFFFFFFF200
00CFFC76CFFC00
06FFA000AFFF60
0DFE1001FCEFD0
2FFA0007F5AFF2
5FF7000ED06FF6
7FF5005F705FF7
7FF400CE104FF8
6FF503F9004FF7
5FF609F3006FF6
2FF91FB0009FF3
0DFE8F5001EFD0
06FFFD0009FF70
00CFFC66BFFC00
001EFFFFFFD200
003FCCEEC70000
009F3000000000
00B90000000000
ENDCHAR
STARTCHAR uni0218
ENCODING 536
SWIDTH 518 0
DWIDTH 17 0
BBX 15 30 1 -7
BITMAP
00006BEFDA500000
002CFFFFFFFB1000
01DFFE979EFFB000
08FFB10001BFF700
0DFF2000002FFD00
0FFE0000000BFF20
1FFD00000009DD30
0EFF200000000000
09FFD20000000000
01EFFE8100000000
003DFFFFA5000000
00019FFFFFD40000
0000027DFFFF7000
000000004CFFF500
00000000009FFC00
00000000000DFF20
8EE30000000AFF40
8FF60000000AFF40
3FFB0000000DFF10
0CFF8000008FFC00
02EFFD979DFFF300
003CFFFFFFFE5000
00005BDFEC810000
0000000000000000
000000CFD0000000
000000CFC0000000
000000EFA0000000
000003FF60000000
000009FD10000000
000002B400000000
ENDCHAR
STARTCHAR uni0219
ENCODING 537
SWIDTH 455 0
DWIDTH 15 0
BBX 12 25 1 -8
BITMAP
0004BEFEA300
009FFFFFFF70
06FFE869FFF4
0CFF20006FFA
0EFD00000EFC
0DFF20000000
08FFE7100000
00BFFFE82000
0006DFFFF910
000005CFFFD1
00000004DFFA
133100001EFE
6FF700000CFF
2FFD10002EFD
0AFFD868DFF7
01BFFFFFFFA0
0006BEFEB500
000000000000
000000000000
000008FF2000
000008FF1000
00000AFE0000
00000DFA0000
00005FF30000
000019700000
ENDCHAR
STARTCHAR uni021A
ENCODING 538
SWIDTH 520 0
DWIDTH 17 0
BBX 16 30 0 -7
BITMAP
1FFFFFFFFFFFFFFB
1FFFFFFFFFFFFFFB
0777778FFD777775
0000001FFC000000
0000001FFC000000
0000001FFC000000
0000001FFC000000
0000001FFC000000
0000001FFC000000
0000001FFC000000
0000001FFC000000
0000001FFC000000
0000001FFC000000
0000001FFC000000
0000001FFC000000
0000001FFC000000
0000001FFC000000
0000001FFC000000
0000001FFC000000
0000001FFC000000
0000001FFC000000
0000001FFC000000
0000001FFC000000
0000000000000000
0000000FFA000000
0000000FF9000000
0000002FF7000000
0000005FF3000000
000000CFB0000000
0000004C20000000
ENDCHAR
STARTCHAR uni021B
ENCODING 539
SWIDTH 295 0
DWIDTH 9 0
BBX 9 28 0 -7
BITMAP
001FFA0000
001FFA0000
001FFA0000
001FFA0000
AFFFFFFF40
AFFFFFFF40
244FFB4410
001FFA0000
001FFA0000
001FFA0000
001FFA0000
001FFA0000
001FFA0000
001FFA0000
001FFA0000
001FFA0000
001FFA0000
000EFC0000
000CFFA820
0005FFFF30
00007DFD20
0000000000
00000FFA00
00000FF900
00002FF700
00006FF300
0000CFB000
00004C2000
ENDCHAR
STARTCHAR uni0237
ENCODING 567
SWIDTH 237 0
DWIDTH 8 0
BBX 7 24 -1 -7
BITMAP
0007FF40
0007FF40
0007FF40
0007FF40
0007FF40
0007FF40
0007FF40
0007FF40
0007FF40
0007FF40
0007FF40
0007FF40
0007FF40
0007FF40
0007FF40
0007FF40
0007FF40
0007FF40
0007FF40
0008FF30
000CFF10
369FFC00
6FFFF300
5EEB3000
ENDCHAR
STARTCHAR uni0259
ENCODING 601
SWIDTH 465 0
DWIDTH 15 0
BBX 13 17 1 0
BITMAP
0029DEEC710000
06FFFFFFFD2000
0BFE966BFFD100
03A100009FF800
000000000DFE10
0000000008FF40
0000000005FF70
0000000003FF80
6FFFFFFFFFFF90
6FFFFFFFFFFF80
5FF9555559FF60
4FF7000008FF30
1FFA00000DFE00
0BFF30007FF700
04FFE869FFD000
007FFFFFFD2000
0004AEFD810000
ENDCHAR
STARTCHAR uni02BC
ENCODING 700
SWIDTH 194 0
DWIDTH 6 0
BBX 4 8 1 16
BITMAP
0DFD
0DFD
0DFD
0EFB
3FF7
8FF2
EF90
5B10
ENDCHAR
STARTCHAR circumflex
ENCODING 710
SWIDTH 428 0
DWIDTH 14 0
BBX 9 4 2 20
BITMAP
0009FD2000
009FDFD100
09FD19FC10
3BE301CC60
ENDCHAR
STARTCHAR caron
ENCODING 711
SWIDTH 403 0
DWIDTH 13 0
BBX 9 4 2 20
BITMAP
8FC103FF40
0AFA1DF500
00BFDF7000
001DF90000
ENDCHAR
STARTCHAR uni02C9
ENCODING 713
SWIDTH 414 0
DWIDTH 13 0
BBX 10 2 2 21
BITMAP
CFFFFFFFF4
CFFFFFFFF4
ENDCHAR
STARTCHAR breve
ENCODING 728
SWIDTH 426 0
DWIDTH 14 0
BBX 10 4 2 19
BITMAP
EF70001FF5
AFE412AFE1
2DFFFFFF60
017BDC9300
ENDCHAR
STARTCHAR dotaccent
ENCODING 729
SWIDTH 242 0
DWIDTH 8 0
BBX 4 4 2 20
BITMAP
0430
8FF5
BFF9
5ED3
ENDCHAR
STARTCHAR ring
ENCODING 730
SWIDTH 334 0
DWIDTH 11 0
BBX 7 6 2 19
BITMAP
08DEB300
9F97DE20
F9002F70
F9001F80
9F97CE20
18DEB300
ENDCHAR
STARTCHAR ogonek
ENCODING 731
SWIDTH 253 0
DWIDTH 8 0
BBX 5 8 1 -7
BITMAP
004A10
07FD20
5FF300
CF9000
FF5000
FF9340
BFFFA0
2BED50
ENDCHAR
STARTCHAR tilde
ENCODING 732
SWIDTH 427 0
DWIDTH 14 0
BBX 10 4 2 20
BITMAP
0022000362
1CFFC64CF5
AFFFFFFFE1
DE216CEC30
ENDCHAR
STARTCHAR hungarumlaut
ENCODING 733
SWIDTH 331 0
DWIDTH 11 0
BBX 10 5 1 19
BITMAP
00BFF23FFC
03FF80DFE2
0AFE18FF60
2FF63FFA00
4BC06CD100
ENDCHAR
STARTCHAR uni02F3
ENCODING 755
SWIDTH 263 0
DWIDTH 8 0
BBX 6 6 1 -7
BITMAP
03DE70
0D96F4
2F10B7
1F62E5
07FFB0
002300
ENDCHAR
STARTCHAR gravecomb
ENCODING 768
SWIDTH 0 0
DWIDTH 0 0
BBX 6 5 -11 19
BITMAP
DFF600
3FFE10
07FF80
00BFF2
002DB5
ENDCHAR
STARTCHAR acutecomb
ENCODING 769
SWIDTH 0 0
DWIDTH 0 0
BBX 7 5 -9 19
BITMAP
004FFE10
00CFF400
06FF8000
1EFB0000
3BD20000
ENDCHAR
STARTCHAR tildecomb
ENCODING 771
SWIDTH 0 0
DWIDTH 0 0
BBX 10 4 -12 20
BITMAP
0013100065
06FFE946FD
2FFFFFFFF7
5E9139EE80
ENDCHAR
STARTCHAR hookabovecomb
ENCODING 777
SWIDTH 0 0
DWIDTH 0 0
BBX 5 6 -9 19
BITMAP
8EB300
6CFE20
00BF60
15DF50
6FF900
6F9000
ENDCHAR
STARTCHAR uni030F
ENCODING 783
SWIDTH 0 0
DWIDTH 0 0
BBX 11 4 -13 20
BITMAP
3EFE39FF5000
03EFD2CFE100
003EFD3EFA00
0003DC64EB20
ENDCHAR
STARTCHAR dotbelowcomb
ENCODING 803
SWIDTH 0 0
DWIDTH 0 0
BBX 5 4 -12 -6
BITMAP
09EB00
1FFF40
0DFE10
014100
ENDCHAR
STARTCHAR tonos
ENCODING 900
SWIDTH 256 0
DWIDTH 8 0
BBX 5 5 2 20
BITMAP
06FF40
09FD00
0CF800
0EF200
1AB000
ENDCHAR
STARTCHAR dieresistonos
ENCODING 901
SWIDTH 452 0
DWIDTH 14 0
BBX 12 6 1 20
BITMAP
000007FF3000
00000AFD0000
02300DF70320
3FF709D26FF3
5FFA00009FF7
1CE500004ED2
ENDCHAR
STARTCHAR Alphatonos
ENCODING 902
SWIDTH 576 0
DWIDTH 18 0
BBX 18 25 0 0
BITMAP
000BFE000000000000
000DF8000000000000
001FF302FF90000000
004FD007FFE0000000
003C700CFFF4000000
0000002FFFF9000000
0000007FFBFD000000
000000BFC5FF300000
000001FF71FF800000
000006FF20BFD00000
00000BFD006FF20000
00001FF8001FF70000
00005FF3000CFC0000
0000AFD00007FF2000
0000EF900002FF7000
0005FF400000CFB000
0009FFFFFFFFFFF100
000EFFFFFFFFFFF600
004FF97777777EFB00
009FF10000000AFF10
00DFC000000006FF50
03FF8000000002FFA0
08FF4000000000CFE1
0DFF10000000008FF5
3FFB00000000004FFA
ENDCHAR
STARTCHAR anoteleia
ENCODING 903
SWIDTH 243 0
DWIDTH 8 0
BBX 4 4 2 9
BITMAP
5EC2
CFF7
AFF4
1640
ENDCHAR
STARTCHAR Epsilontonos
ENCODING 904
SWIDTH 496 0
DWIDTH 16 0
BBX 18 25 -3 0
BITMAP
2FF800000000000000
5FF200000000000000
8FC008FFFFFFFFFFF8
AF6008FFFFFFFFFFF8
8D1008FFA777777774
000008FF5000000000
000008FF5000000000
000008FF5000000000
000008FF5000000000
000008FF5000000000
000008FF5000000000
000008FF5000000000
000008FFFFFFFFFF50
000008FFFFFFFFFF50
000008FF9777777720
000008FF5000000000
000008FF5000000000
000008FF5000000000
000008FF5000000000
000008FF5000000000
000008FF5000000000
000008FF5000000000
000008FF9777777775
000008FFFFFFFFFFFA
000008FFFFFFFFFFFA
ENDCHAR
STARTCHAR Etatonos
ENCODING 905
SWIDTH 620 0
DWIDTH 20 0
BBX 21 25 -3 0
BITMAP
0EFA000000000000000000
2FF5000000000000000000
5FE008FF5000000008FF50
8F9008FF5000000008FF50
6D3008FF5000000008FF50
000008FF5000000008FF50
000008FF5000000008FF50
000008FF5000000008FF50
000008FF5000000008FF50
000008FF5000000008FF50
000008FF5000000008FF50
000008FF5000000008FF50
000008FFFFFFFFFFFFFF50
000008FFFFFFFFFFFFFF50
000008FF977777777BFF50
000008FF5000000008FF50
000008FF5000000008FF50
000008FF5000000008FF50
000008FF5000000008FF50
000008FF5000000008FF50
000008FF5000000008FF50
000008FF5000000008FF50
000008FF5000000008FF50
000008FF5000000008FF50
000008FF5000000008FF50
ENDCHAR
STARTCHAR Iotatonos
ENCODING 906
SWIDTH 250 0
DWIDTH 8 0
BBX 9 25 -3 0
BITMAP
0EFB000000
2FF5000000
4FE106FF70
7F9006FF70
6D4006FF70
000006FF70
000006FF70
000006FF70
000006FF70
000006FF70
000006FF70
000006FF70
000006FF70
000006FF70
000006FF70
000006FF70
000006FF70
000006FF70
000006FF70
000006FF70
000006FF70
000006FF70
000006FF70
000006FF70
000006FF70
ENDCHAR
STARTCHAR Omicrontonos
ENCODING 908
SWIDTH 610 0
DWIDTH 20 0
BBX 19 25 -1 0
BITMAP
0AFE0000000000000000
0DF90000000000000000
1FF300039DEED9300000
4FD0009FFFFFFFF70000
3B700AFFFC9ADFFF8000
00005FFE400005FFF300
0000CFF40000006FFA00
0003FFB00000000DFF10
0006FF7000000009FF40
0009FF4000000007FF60
000AFF2000000005FF80
000BFF2000000005FF80
000BFF2000000004FF80
000BFF2000000004FF80
000BFF2000000004FF80
000BFF2000000004FF80
000AFF2000000005FF80
0009FF4000000006FF70
0007FF7000000009FF40
0003FFB00000000DFF10
0000DFF40000005FFA00
00005FFE300004EFF300
00000AFFFB99CFFF8000
0000009FFFFFFFF80000
000000039DEED9300000
ENDCHAR
STARTCHAR Upsilontonos
ENCODING 910
SWIDTH 573 0
DWIDTH 18 0
BBX 22 25 -4 0
BITMAP
07FF300000000000000000
09FC000000000000000000
0CF700BFF7000000009FF9
0FF2004FFD00000001EFF2
1AA0000DFF40000006FFB0
00000006FFA000000CFF40
00000000EFF200003FFC00
000000008FF700009FF500
000000001FFD0001EFD000
0000000009FF5006FF7000
0000000002FFB00DFE1000
0000000000BFF24FF80000
00000000004FF8AFF20000
00000000000CFEFFA00000
000000000005FFFF300000
000000000000DFFC000000
0000000000008FF6000000
0000000000008FF5000000
0000000000008FF5000000
0000000000008FF5000000
0000000000008FF5000000
0000000000008FF5000000
0000000000008FF5000000
0000000000008FF5000000
0000000000008FF5000000
ENDCHAR
STARTCHAR Omegatonos
ENCODING 911
SWIDTH 591 0
DWIDTH 19 0
BBX 18 25 -1 0
BITMAP
0AFE00000000000000
0DF900000000000000
1FF30004AEFDA30000
4FD000AFFFFFFF8000
3B700AFFE98AEFF900
00006FFC10002DFF40
0000DFF2000003FFC0
0004FFA0000000BFF2
0008FF500000006FF6
000BFF200000004FFA
000DFF000000002FFB
000EFF000000001FFC
000EFE000000001FFD
000EFE000000001FFD
000DFF000000001FFC
000CFF000000002FFB
000AFF200000003FF9
0007FF400000005FF5
0003FF700000009FF1
0000CFC0000000DFA0
00005FF4000005FF30
00000AFE30003EF900
000678FFE808FFF775
000DFFFFFC0CFFFFFB
000DFFFFFC0CFFFFFB
ENDCHAR
STARTCHAR iotadieresistonos
ENCODING 912
SWIDTH 299 0
DWIDTH 10 0
BBX 11 25 -1 0
BITMAP
00001FF90000
00004FF30000
14107FD01300
CFD06C71EF90
FFF10004FFC0
9E900001CE60
000000000000
000000000000
0001FFA00000
0001FFA00000
0001FFA00000
0001FFA00000
0001FFA00000
0001FFA00000
0001FFA00000
0001FFA00000
0001FFA00000
0001FFA00000
0001FFA00000
0001FFA00000
0001FFA00000
0000FFD00000
0000CFFA8200
00006FFFF300
000007EFD200
ENDCHAR
STARTCHAR Alpha
ENCODING 913
SWIDTH 576 0
DWIDTH 18 0
BBX 18 23 0 0
BITMAP
00000002FF90000000
00000007FFE0000000
0000000CFFF4000000
0000002FFFF9000000
0000007FFBFD000000
000000BFC5FF300000
000001FF71FF800000
000006FF20BFD00000
00000BFD006FF20000
00001FF8001FF70000
00005FF3000CFC0000
0000AFD00007FF2000
0000EF900002FF7000
0005FF400000CFB000
0009FFFFFFFFFFF100
000EFFFFFFFFFFF600
004FF97777777EFB00
009FF10000000AFF10
00DFC000000006FF50
03FF8000000002FFA0
08FF4000000000CFE1
0DFF10000000008FF5
3FFB00000000004FFA
ENDCHAR
STARTCHAR Beta
ENCODING 914
SWIDTH 545 0
DWIDTH 17 0
BBX 14 23 2 0
BITMAP
8FFFFFFEDA3000
8FFFFFFFFFF700
8FFA7778CFFF40
8FF5000007FFB0
8FF5000000EFF1
8FF5000000BFF2
8FF5000000BFF2
8FF5000000EFF0
8FF5000005FFA0
8FF500016EFE20
8FFFFFFFFFD300
8FFFFFFFFFC400
8FF966669EFF40
8FF5000002EFE0
8FF50000008FF5
8FF50000005FF8
8FF50000004FF9
8FF50000006FF8
8FF5000000AFF6
8FF5000004FFF1
8FF97777AFFF80
8FFFFFFFFFF900
8FFFFFFFDA4000
ENDCHAR
STARTCHAR Gamma
ENCODING 915
SWIDTH 487 0
DWIDTH 16 0
BBX 13 23 2 0
BITMAP
6FFFFFFFFFFF60
6FFFFFFFFFFF60
6FFB7777777730
6FF70000000000
6FF70000000000
6FF70000000000
6FF70000000000
6FF70000000000
6FF70000000000
6FF70000000000
6FF70000000000
6FF70000000000
6FF70000000000
6FF70000000000
6FF70000000000
6FF70000000000
6FF70000000000
6FF70000000000
6FF70000000000
6FF70000000000
6FF70000000000
6FF70000000000
6FF70000000000
ENDCHAR
STARTCHAR Delta.dup1
ENCODING 916
SWIDTH 614 0
DWIDTH 20 0
BBX 19 23 0 0
BITMAP
000000007FF600000000
00000000CFFB00000000
00000002FFFF10000000
00000008FFFF50000000
0000000DFDFFA0000000
0000003FF8BFE1000000
0000008FF36FF5000000
000000EFD01FFA000000
000004FF700BFE000000
000009FF2007FF500000
00000EFC0002FFA00000
00005FF70000CFE00000
0000AFF200008FF40000
0001EFC000003FF90000
0006FF7000000DFE0000
000BFF20000009FF4000
001FFC00000004FF9000
006FF700000000EFE000
00CFF200000000AFF400
02FFC0000000005FF900
07FFB7777777778FFD00
0CFFFFFFFFFFFFFFFF30
3FFFFFFFFFFFFFFFFF80
ENDCHAR
STARTCHAR Epsilon
ENCODING 917
SWIDTH 496 0
DWIDTH 16 0
BBX 13 23 2 0
BITMAP
8FFFFFFFFFFF80
8FFFFFFFFFFF80
8FFA7777777740
8FF50000000000
8FF50000000000
8FF50000000000
8FF50000000000
8FF50000000000
8FF50000000000
8FF50000000000
8FFFFFFFFFF500
8FFFFFFFFFF500
8FF97777777200
8FF50000000000
8FF50000000000
8FF50000000000
8FF50000000000
8FF50000000000
8FF50000000000
8FF50000000000
8FF97777777750
8FFFFFFFFFFFA0
8FFFFFFFFFFFA0
ENDCHAR
STARTCHAR Zeta
ENCODING 918
SWIDTH 522 0
DWIDTH 17 0
BBX 15 23 1 0
BITMAP
7FFFFFFFFFFFFF00
7FFFFFFFFFFFFF00
3777777777AFFC00
0000000000CFF400
0000000006FFA000
000000001DFF2000
000000008FF80000
00000002EFE10000
0000000AFF600000
0000003FFC000000
000000CFF4000000
000005FFB0000000
00000DFF20000000
00007FF900000000
0001EFE100000000
0009FF7000000000
003FFD0000000000
00BFF50000000000
05FFB00000000000
0DFF300000000000
6FFD777777777730
9FFFFFFFFFFFFF60
9FFFFFFFFFFFFF60
ENDCHAR
STARTCHAR Eta
ENCODING 919
SWIDTH 620 0
DWIDTH 20 0
BBX 16 23 2 0
BITMAP
8FF5000000008FF5
8FF5000000008FF5
8FF5000000008FF5
8FF5000000008FF5
8FF5000000008FF5
8FF5000000008FF5
8FF5000000008FF5
8FF5000000008FF5
8FF5000000008FF5
8FF5000000008FF5
8FFFFFFFFFFFFFF5
8FFFFFFFFFFFFFF5
8FF977777777BFF5
8FF5000000008FF5
8FF5000000008FF5
8FF5000000008FF5
8FF5000000008FF5
8FF5000000008FF5
8FF5000000008FF5
8FF5000000008FF5
8FF5000000008FF5
8FF5000000008FF5
8FF5000000008FF5
ENDCHAR
STARTCHAR Theta
ENCODING 920
SWIDTH 593 0
DWIDTH 19 0
BBX 17 23 1 0
BITMAP
000006BEFDA4000000
0001CFFFFFFF900000
001DFFFA9BFFFA0000
009FFC10003DFF6000
02FFD1000003FFD000
08FF600000009FF400
0CFF100000004FF800
1FFB000000000FFC00
3FF9000000000DFE00
5FF7000000000BFF10
6FF70BFFFFFD0BFF20
6FF70BFFFFFD0BFF20
6FF7046666650BFF20
5FF7000000000BFF10
3FF9000000000DFE00
1FFB000000000FFD00
0CFF100000004FF900
08FF600000009FF500
03FFD1000002FFE000
009FFB10002DFF6000
001DFFEA9BFFFB0000
0002CFFFFFFFA10000
000006BEFEA4000000
ENDCHAR
STARTCHAR Iota
ENCODING 921
SWIDTH 250 0
DWIDTH 8 0
BBX 4 23 2 0
BITMAP
6FF7
6FF7
6FF7
6FF7
6FF7
6FF7
6FF7
6FF7
6FF7
6FF7
6FF7
6FF7
6FF7
6FF7
6FF7
6FF7
6FF7
6FF7
6FF7
6FF7
6FF7
6FF7
6FF7
ENDCHAR
STARTCHAR Kappa
ENCODING 922
SWIDTH 544 0
DWIDTH 17 0
BBX 16 23 2 0
BITMAP
8FF50000002EFF60
8FF5000000BFFA00
8FF5000007FFD100
8FF500003FFF3000
8FF50001DFF70000
8FF50009FFB00000
8FF5005FFE100000
8FF502EFF4000000
8FF50BFF80000000
8FF57FFC00000000
8FF8FFF900000000
8FFFFFFF30000000
8FFFFBFFC0000000
8FFFA0CFF7000000
8FFC103FFE200000
8FF50009FFA00000
8FF50001EFF50000
8FF500006FFD1000
8FF500000CFF8000
8FF5000003FFF300
8FF50000009FFC00
8FF50000001EFF60
8FF500000006FFE1
ENDCHAR
STARTCHAR Lambda
ENCODING 923
SWIDTH 572 0
DWIDTH 18 0
BBX 17 23 1 0
BITMAP
0000005FF700000000
0000009FFC00000000
000000EFFF20000000
000003FFFF60000000
000008FFFFB0000000
00000DFECFF1000000
00002FFA8FF5000000
00007FF63FF9000000
0000BFF20EFE000000
0001FFC00AFF300000
0005FF8006FF800000
000AFF4001FFC00000
000EFE0000CFF20000
004FFA00008FF60000
008FF600003FFB0000
00DFF100000EFF1000
02FFC000000AFF5000
07FF80000005FFA000
0CFF40000001FFE000
1FFE00000000CFF400
6FFA000000008FF800
AFF6000000003FFD00
EFF1000000000EFF20
ENDCHAR
STARTCHAR Mu
ENCODING 924
SWIDTH 755 0
DWIDTH 24 0
BBX 20 23 2 0
BITMAP
8FFF400000000002FFFB
8FFF900000000007FFFB
8FFFE0000000000CFFFB
8FFFF4000000001FFFFB
8FFFF8000000006FFFFB
8FFDFD00000000BFEEFB
8FF9FF30000001FFAEFB
8FF4FF80000005FF5FFB
8FF2DFC000000AFE0FFB
8FF38FF200000EFA0FFB
8FF33FF700005FF51FFB
8FF40DFC00009FE01FFB
8FF408FF1000EFA02FFB
8FF403FF6004FF502FFB
8FF500DFB009FE002FFB
8FF5008FF10DFA002FFB
8FF5003FF53FF5002FFB
8FF5000DFA8FE0002FFB
8FF50008FEDFA0002FFB
8FF50003FFFF50002FFB
8FF50000DFFE00002FFB
8FF500008FFA00002FFB
8FF500003FF500002FFB
ENDCHAR
STARTCHAR Nu
ENCODING 925
SWIDTH 619 0
DWIDTH 20 0
BBX 16 23 2 0
BITMAP
8FF9000000008FF5
8FFF200000008FF5
8FFF900000008FF5
8FFFF20000008FF5
8FFFFA0000008FF5
8FFDFF2000008FF5
8FF6EFA000008FF5
8FF58FF300008FF5
8FF51EFA00008FF5
8FF508FF30008FF5
8FF501EFB0008FF5
8FF5007FF3008FF5
8FF5001EFB008FF5
8FF50007FF408FF5
8FF50001EFC08FF5
8FF500006FF48FF5
8FF500000DFC8FF5
8FF5000006FFDFF5
8FF5000000DFFFF5
8FF50000005FFFF5
8FF50000000DFFF5
8FF500000005FFF5
8FF500000000CFF5
ENDCHAR
STARTCHAR Xi
ENCODING 926
SWIDTH 502 0
DWIDTH 16 0
BBX 14 23 1 0
BITMAP
1FFFFFFFFFFFF2
1FFFFFFFFFFFF2
17777777777771
00000000000000
00000000000000
00000000000000
00000000000000
00000000000000
00000000000000
00000000000000
00FFFFFFFFFF10
00FFFFFFFFFF10
00777777777710
00000000000000
00000000000000
00000000000000
00000000000000
00000000000000
00000000000000
00000000000000
17777777777772
1FFFFFFFFFFFF4
1FFFFFFFFFFFF4
ENDCHAR
STARTCHAR Omicron
ENCODING 927
SWIDTH 600 0
DWIDTH 19 0
BBX 17 23 1 0
BITMAP
000006BDFEC7100000
0002CFFFFFFFE40000
001DFFFB9AEFFF3000
00AFFB100009FFD000
02FFD1000000BFF500
07FF600000003FFB00
0BFF200000000EFE00
0EFE000000000BFF20
0FFD000000000AFF30
1FFC0000000009FF40
1FFC0000000009FF40
1FFC0000000009FF40
1FFC0000000009FF40
1FFC0000000009FF40
0FFD000000000AFF30
0EFE000000000BFF20
0BFF200000000EFE00
08FF600000003FFB00
02FFD1000000AFF600
00AFFB100008FFD100
001DFFEA99DFFF4000
0002CFFFFFFFE50000
000006BEFEC7100000
ENDCHAR
STARTCHAR Pi
ENCODING 928
SWIDTH 620 0
DWIDTH 20 0
BBX 16 23 2 0
BITMAP
6FFFFFFFFFFFFFF4
6FFFFFFFFFFFFFF4
6FFB77777777CFF4
6FF700000000AFF4
6FF700000000AFF4
6FF700000000AFF4
6FF700000000AFF4
6FF700000000AFF4
6FF700000000AFF4
6FF700000000AFF4
6FF700000000AFF4
6FF700000000AFF4
6FF700000000AFF4
6FF700000000AFF4
6FF700000000AFF4
6FF700000000AFF4
6FF700000000AFF4
6FF700000000AFF4
6FF700000000AFF4
6FF700000000AFF4
6FF700000000AFF4
6FF700000000AFF4
6FF700000000AFF4
ENDCHAR
STARTCHAR Rho
ENCODING 929
SWIDTH 554 0
DWIDTH 18 0
BBX 15 23 2 0
BITMAP
8FFFFFFFEC710000
8FFFFFFFFFFE3000
8FFA77779DFFE200
8FF5000000AFFA00
8FF50000001EFF10
8FF500000009FF50
8FF500000006FF70
8FF500000006FF70
8FF500000007FF60
8FF50000000BFF40
8FF50000003FFE00
8FF5000016EFF700
8FFFFFFFFFFFB000
8FFFFFFFFFE80000
8FF9777764000000
8FF5000000000000
8FF5000000000000
8FF5000000000000
8FF5000000000000
8FF5000000000000
8FF5000000000000
8FF5000000000000
8FF5000000000000
ENDCHAR
STARTCHAR Sigma
ENCODING 931
SWIDTH 502 0
DWIDTH 16 0
BBX 14 23 1 0
BITMAP
BFFFFFFFFFFFF2
BFFFFFFFFFFFF2
8FFD7777777771
1DFF5000000000
04FFE100000000
009FF900000000
001DFF40000000
0004FFD1000000
00009FF9000000
00001DFF400000
000004FFD10000
000000CFF60000
000004FFD10000
00001DFF400000
00009FF9000000
0004FFD1000000
001DFF40000000
009FF900000000
04FFD100000000
1DFF4000000000
8FFD7777777775
BFFFFFFFFFFFFB
BFFFFFFFFFFFFB
ENDCHAR
STARTCHAR Tau
ENCODING 932
SWIDTH 520 0
DWIDTH 17 0
BBX 16 23 0 0
BITMAP
1FFFFFFFFFFFFFFB
1FFFFFFFFFFFFFFB
0777778FFD777775
0000001FFC000000
0000001FFC000000
0000001FFC000000
0000001FFC000000
0000001FFC000000
0000001FFC000000
0000001FFC000000
0000001FFC000000
0000001FFC000000
0000001FFC000000
0000001FFC000000
0000001FFC000000
0000001FFC000000
0000001FFC000000
0000001FFC000000
0000001FFC000000
0000001FFC000000
0000001FFC000000
0000001FFC000000
0000001FFC000000
ENDCHAR
STARTCHAR Upsilon
ENCODING 933
SWIDTH 524 0
DWIDTH 17 0
BBX 17 23 0 0
BITMAP
5FFE000000003FFE10
0DFF500000009FF900
06FFB0000001EFF200
01EFF2000006FFA000
008FF800000CFF4000
001FFE00003FFC0000
0009FF50009FF50000
0003FFB001EFD00000
0000BFF206FF700000
00004FF80CFE100000
00000CFE3FF8000000
000006FFDFF2000000
000000EFFFA0000000
0000007FFF30000000
0000002FFD00000000
0000001FFC00000000
0000001FFC00000000
0000001FFC00000000
0000001FFC00000000
0000001FFC00000000
0000001FFC00000000
0000001FFC00000000
0000001FFC00000000
ENDCHAR
STARTCHAR Phi
ENCODING 934
SWIDTH 621 0
DWIDTH 20 0
BBX 18 23 1 0
BITMAP
00000007FF70000000
00000007FF70000000
00000007FF70000000
00003ADFFFFDA30000
0009FFFFFFFFFF9000
00AFFEABFFBAEFF900
05FFC207FF702CFF50
0DFE2007FF7002FFD0
3FF90007FF70009FF4
7FF50007FF70005FF7
9FF30007FF70003FF9
BFF20007FF70002FFA
AFF20007FF70002FFA
9FF40007FF70004FF8
6FF70007FF70007FF5
2FFC0007FF7000CFF1
0AFF6007FF7007FF90
02EFF827FF739FFE10
004EFFFFFFFFFFE300
0002BFFFFFFFFB2000
0000025AFFB6200000
00000007FF70000000
00000007FF70000000
ENDCHAR
STARTCHAR Chi
ENCODING 935
SWIDTH 550 0
DWIDTH 18 0
BBX 16 23 1 0
BITMAP
8FFC00000002FFF3
1EFF40000009FFB0
08FFB000002FFF30
01EFF400009FFA00
007FFB0001FFF200
001EFF3008FF9000
0006FFB01EFF2000
0000DFF38FF90000
00006FFBEFF20000
00000DFFFF800000
000005FFFE100000
000000EFFA000000
000007FFFF200000
00001EFFFFA00000
00007FFAEFF30000
0001EFF27FFA0000
0008FFA01EFF3000
001EFF2007FFB000
009FFA0001EFF400
02FFF300007FFC00
09FFA000001EFF50
2FFF30000008FFC0
AFFA00000001EFF5
ENDCHAR
STARTCHAR Psi
ENCODING 936
SWIDTH 600 0
DWIDTH 19 0
BBX 17 23 1 0
BITMAP
AFF3001FFC0004FFA0
AFF3001FFC0004FFA0
AFF3001FFC0004FFA0
AFF3001FFC0004FFA0
AFF3001FFC0004FFA0
AFF3001FFC0004FFA0
AFF3001FFC0004FFA0
AFF3001FFC0004FFA0
AFF3001FFC0004FF90
9FF4001FFC0004FF80
8FF6001FFC0006FF70
5FFA001FFC000AFF30
1EFF101FFC002FFE00
09FFA01FFC00BFF700
01EFFB4FFC3CFFD000
004EFFFFFFFFFD2000
0002BFFFFFFFA20000
0000037FFE62000000
0000001FFC00000000
0000001FFC00000000
0000001FFC00000000
0000001FFC00000000
0000001FFC00000000
ENDCHAR
STARTCHAR Omega.dup2
ENCODING 937
SWIDTH 581 0
DWIDTH 19 0
BBX 16 23 1 0
BITMAP
000007CEFD810000
0002DFFFFFFE5000
001DFFD88BFFF400
00AFF900005FFD10
03FFC0000008FF70
08FF50000001FFC0
0DFF10000000BFF2
1FFC000000008FF5
2FFB000000006FF6
3FFA000000006FF8
4FFA000000005FF8
4FFA000000005FF8
3FFA000000006FF7
2FFB000000006FF6
0FFC000000008FF4
0BFE00000000AFF1
07FF30000000DFB0
02FF70000003FF50
009FE100000AFD00
001EFB10007FF400
177BFFD41BFFD773
2FFFFFF71FFFFFF6
2FFFFFF71FFFFFF6
ENDCHAR
STARTCHAR Iotadieresis
ENCODING 938
SWIDTH 250 0
DWIDTH 8 0
BBX 11 29 -1 0
BITMAP
142000014100
BFE2001EFC00
FFF5004FFF10
8EC1001BE900
000000000000
000000000000
0006FF700000
0006FF700000
0006FF700000
0006FF700000
0006FF700000
0006FF700000
0006FF700000
0006FF700000
0006FF700000
0006FF700000
0006FF700000
0006FF700000
0006FF700000
0006FF700000
0006FF700000
0006FF700000
0006FF700000
0006FF700000
0006FF700000
0006FF700000
0006FF700000
0006FF700000
0006FF700000
ENDCHAR
STARTCHAR Upsilondieresis
ENCODING 939
SWIDTH 524 0
DWIDTH 17 0
BBX 17 29 0 0
BITMAP
000023000003200000
0005FF80009FF40000
0008FFC000DFF80000
0003DE50006ED20000
000000000000000000
000000000000000000
5FFE000000003FFE10
0DFF500000009FF900
06FFB0000001EFF200
01EFF2000006FFA000
008FF800000CFF4000
001FFE00003FFC0000
0009FF50009FF50000
0003FFB001EFD00000
0000BFF206FF700000
00004FF80CFE100000
00000CFE3FF8000000
000006FFDFF2000000
000000EFFFA0000000
0000007FFF30000000
0000002FFD00000000
0000001FFC00000000
0000001FFC00000000
0000001FFC00000000
0000001FFC00000000
0000001FFC00000000
0000001FFC00000000
0000001FFC00000000
0000001FFC00000000
ENDCHAR
STARTCHAR alphatonos
ENCODING 940
SWIDTH 494 0
DWIDTH 16 0
BBX 15 24 1 0
BITMAP
0000000CFC000000
0000000FF7000000
0000003FF2000000
0000006FB0000000
0000005C50000000
0000000000000000
0000000000000000
0003AEEC50BFA000
004EFFFFF8CFA000
01EFFB67DFFFA000
07FFA0001DFFA000
0DFF100005FFA000
2FFB000001FFA000
4FF8000001FFA000
6FF6000001FFA000
6FF5000001FFA000
6FF5000001FFA000
5FF6000001FFA000
3FF9000001FFA000
0EFD000004FFA000
0AFF70001DFFC000
02FFFA67DFFFFA00
006FFFFFF88FFF20
0004BEEC501BEC20
ENDCHAR
STARTCHAR epsilontonos
ENCODING 941
SWIDTH 470 0
DWIDTH 15 0
BBX 13 24 1 0
BITMAP
000000CFD00000
000000EF700000
000002FF200000
000005FB000000
000004C6000000
00000000000000
00000000000000
0006BEFEB50000
01CFFFFFFFB100
0AFFE868EFFA00
1FFE10001DFF10
2FFA000006BB20
1FFB0000000000
09FF8200000000
009FFFFFF20000
008EFFFFF20000
0AFFB655510000
3FFB0000000000
6FF70000015520
6FF7000006FF60
3FFD10001DFF30
0BFFD768EFFB00
01CFFFFFFFB100
0006BEFEB60000
ENDCHAR
STARTCHAR etatonos
ENCODING 942
SWIDTH 498 0
DWIDTH 16 0
BBX 12 31 2 -7
BITMAP
000006FF3000
000009FD0000
00000CF70000
00000FF20000
00001AB00000
000000000000
000000000000
DFA05CEEB500
DFB8FFFFFF60
DFFFC77CFFE1
DFFA0000BFF5
DFF100004FF8
DFE000002FF9
DFE000001FFA
DFE000001FFA
DFE000001FFA
DFE000001FFA
DFE000001FFA
DFE000001FFA
DFE000001FFA
DFE000001FFA
DFE000001FFA
DFE000001FFA
DFE000001FFA
000000001FFA
000000001FFA
000000001FFA
000000001FFA
000000001FFA
000000001FFA
000000001FFA
ENDCHAR
STARTCHAR iotatonos
ENCODING 943
SWIDTH 299 0
DWIDTH 10 0
BBX 7 24 2 0
BITMAP
00EFB000
01FF5000
04FE1000
07FA0000
05D40000
00000000
00000000
1FFA0000
1FFA0000
1FFA0000
1FFA0000
1FFA0000
1FFA0000
1FFA0000
1FFA0000
1FFA0000
1FFA0000
1FFA0000
1FFA0000
1FFA0000
0FFD0000
0CFFA820
06FFFF30
007EFD20
ENDCHAR
STARTCHAR upsilondieresistonos
ENCODING 944
SWIDTH 480 0
DWIDTH 15 0
BBX 12 25 2 0
BITMAP
00001FF90000
00004FF40000
14106FD01300
BFD05C81EF90
EFF10003FFD0
8EA00000BE60
000000000000
000000000000
DFD00006FF70
DFD00001FFD0
DFD00000CFF2
DFD000008FF6
DFD000005FF8
DFD000003FFA
DFD000000FFB
DFD000000EFC
DFD000000EFC
DFD000000FFB
DFE000003FF9
CFF000007FF6
AFF20000DFF2
6FF80008FFB0
1EFF86AFFE20
05FFFFFFE400
003AEFD92000
ENDCHAR
STARTCHAR alpha
ENCODING 945
SWIDTH 494 0
DWIDTH 16 0
BBX 15 17 1 0
BITMAP
0003AEEC50BFA000
004EFFFFF8CFA000
01EFFB67DFFFA000
07FFA0001DFFA000
0DFF100005FFA000
2FFB000001FFA000
4FF8000001FFA000
6FF6000001FFA000
6FF5000001FFA000
6FF5000001FFA000
5FF6000001FFA000
3FF9000001FFA000
0EFD000004FFA000
0AFF70001DFFC000
02FFFA67DFFFFA00
006FFFFFF88FFF20
0004BEEC501BEC20
ENDCHAR
STARTCHAR beta
ENCODING 946
SWIDTH 517 0
DWIDTH 17 0
BBX 13 29 2 -6
BITMAP
0003ADFD920000
007FFFFFFE5000
06FFE86AFFE200
1EFE20008FF900
6FF700000EFD00
9FF300000CFF00
AFF100000DFE00
AFF100002FFA00
AFF10014DFE200
AFF10CFFFE4000
AFF10CFFFE5000
AFF10467DFF500
AFF100001DFE10
AFF1000007FF60
AFF1000002FFA0
AFF1000000FFC0
AFF1000000FFC0
AFF1000002FFA0
AFF1000007FF70
AFF800002EFF20
AFFFC768EFF900
AFFEFFFFFFA000
AFF38DFEB60000
AFF10000000000
AFF10000000000
AFF10000000000
AFF10000000000
AFF10000000000
AFF10000000000
ENDCHAR
STARTCHAR gamma
ENCODING 947
SWIDTH 444 0
DWIDTH 14 0
BBX 13 24 1 -7
BITMAP
EFD0000007FF50
9FF200000BFE10
5FF700001FFB00
1FFB00005FF600
0BFF10009FF200
06FF4000DFC000
02FF9002FF8000
00CFD006FF3000
007FF20AFE0000
003FF70EF90000
000DFB4FF50000
0009FF8FF10000
0004FFEFB00000
0000EFFF600000
0000AFFF200000
00006FFC000000
00003FF9000000
00003FF9000000
00003FF9000000
00003FF9000000
00003FF9000000
00003FF9000000
00003FF9000000
00003FF9000000
ENDCHAR
STARTCHAR delta
ENCODING 948
SWIDTH 498 0
DWIDTH 16 0
BBX 14 24 1 0
BITMAP
00006CEED93000
000BFFFFFFB000
006FFE879DB000
00AFF400002000
00BFF100000000
008FF800000000
002EFFA3000000
0004EFFFB30000
0002AFFFFF7000
003EFEACFFF700
01DFC1006FFF30
08FF300009FFA0
0EFC000001FFE0
3FF8000000AFF3
5FF70000008FF4
6FF60000007FF5
5FF60000007FF4
4FF70000009FF3
1FFA000000CFF1
0CFE100002FFB0
06FFA0000AFF50
00CFFB66CFFB00
001DFFFFFFC100
00007CEEC70000
ENDCHAR
STARTCHAR epsilon
ENCODING 949
SWIDTH 470 0
DWIDTH 15 0
BBX 13 17 1 0
BITMAP
0006BEFEB50000
01CFFFFFFFB100
0AFFE868EFFA00
1FFE10001DFF10
2FFA000006BB20
1FFB0000000000
09FF8200000000
009FFFFFF20000
008EFFFFF20000
0AFFB655510000
3FFB0000000000
6FF70000015520
6FF7000006FF60
3FFD10001DFF30
0BFFD768EFFB00
01CFFFFFFFB100
0006BEFEB60000
ENDCHAR
STARTCHAR zeta
ENCODING 950
SWIDTH 462 0
DWIDTH 15 0
BBX 13 29 1 -6
BITMAP
1FFFFFFFFFFF20
1FFFFFFFFFFF20
066666666FFB00
000000009FE200
00000005FF7000
0000002EFC0000
000000BFF30000
000007FF800000
00002EFD100000
0000BFF4000000
0004FFA0000000
000BFE10000000
003FF800000000
008FF200000000
00CFE000000000
01FFB000000000
02FF9000000000
03FF9000000000
02FFB000000000
00EFE200000000
008FFD61000000
001CFFFFB50000
00007DFFFFC100
00000038EFF600
000000004FF700
000000003FF500
000000008FE000
00000001EF5000
00000000790000
ENDCHAR
STARTCHAR eta
ENCODING 951
SWIDTH 498 0
DWIDTH 16 0
BBX 12 24 2 -7
BITMAP
DFA05CEEB500
DFB8FFFFFF60
DFFFC77CFFE1
DFFA0000BFF5
DFF100004FF8
DFE000002FF9
DFE000001FFA
DFE000001FFA
DFE000001FFA
DFE000001FFA
DFE000001FFA
DFE000001FFA
DFE000001FFA
DFE000001FFA
DFE000001FFA
DFE000001FFA
DFE000001FFA
000000001FFA
000000001FFA
000000001FFA
000000001FFA
000000001FFA
000000001FFA
000000001FFA
ENDCHAR
STARTCHAR theta
ENCODING 952
SWIDTH 496 0
DWIDTH 16 0
BBX 13 23 1 0
BITMAP
00006CEEB50000
000AFFFFFF9000
008FFC77DFF600
01EFC1002EFD00
06FF500007FF40
0BFE000002FF90
0DFC000000EFB0
1FFA000000CFD0
2FF9000000CFE0
2FF9000000BFF0
3FFFFFFFFFFFF0
3FFFFFFFFFFFF0
3FFB666666DFF0
2FF9000000CFF0
2FFA000000CFE0
0FFB000000DFD0
0DFD000001FFB0
0AFF100004FF80
06FF700009FF40
01EFE1002EFD00
007FFD77EFF500
000AFFFFFF8000
00006CEEB50000
ENDCHAR
STARTCHAR iota
ENCODING 953
SWIDTH 299 0
DWIDTH 10 0
BBX 7 17 2 0
BITMAP
1FFA0000
1FFA0000
1FFA0000
1FFA0000
1FFA0000
1FFA0000
1FFA0000
1FFA0000
1FFA0000
1FFA0000
1FFA0000
1FFA0000
1FFA0000
0FFD0000
0CFFA820
06FFFF30
007EFD20
ENDCHAR
STARTCHAR kappa
ENCODING 954
SWIDTH 491 0
DWIDTH 16 0
BBX 13 17 2 0
BITMAP
BFF100005FFD10
BFF10002EFF300
BFF1000BFF7000
BFF1007FFB0000
BFF103FFE10000
BFF11DFF400000
BFF19FF8000000
BFFFFFB0000000
BFFFFFB0000000
BFF9CFF7000000
BFF12EFF300000
BFF107FFD00000
BFF100BFF90000
BFF1002EFF4000
BFF10006FFE100
BFF10000BFFA00
BFF100002EFF60
ENDCHAR
STARTCHAR lambda
ENCODING 955
SWIDTH 485 0
DWIDTH 16 0
BBX 15 24 0 0
BITMAP
007FD80000000000
009FFF8000000000
0038FFE100000000
0000BFF500000000
00006FFA00000000
00001FFE10000000
00000AFF50000000
000005FFA0000000
000006FFE0000000
00000BFFF5000000
00001FFFFA000000
00005FFFFE000000
0000AFFAFF500000
0000EFB5FFA00000
0004FF70EFE00000
0009FF30AFF40000
000EFD005FF90000
003FF9000EFE0000
008FF5000AFF4000
00DFF10005FF9000
03FFC00000EFE000
07FF8000009FFB40
0CFF3000002FFF70
2FFE00000005DE60
ENDCHAR
STARTCHAR uni03BC
ENCODING 956
SWIDTH 498 0
DWIDTH 16 0
BBX 12 24 2 -7
BITMAP
BFF100002FFA
BFF100002FFA
BFF100002FFA
BFF100002FFA
BFF100002FFA
BFF100002FFA
BFF100002FFA
BFF100002FFA
BFF100002FFA
BFF100002FFA
BFF100002FFA
BFF200002FFA
BFF500003FFA
BFFB0000AFFA
BFFFA67CFFFA
BFFFFFFFBEFA
BFF5CFE91DFA
BFF100000000
BFF100000000
BFF100000000
BFF100000000
BFF100000000
BFF100000000
BFF100000000
ENDCHAR
STARTCHAR nu
ENCODING 957
SWIDTH 427 0
DWIDTH 14 0
BBX 13 17 0 0
BITMAP
2FFA000001FFB0
0DFE000005FF60
08FF300009FF20
04FF70000CFD00
00EFB0001FF800
00AFE0005FF400
005FF3009FE000
001FF700CFA000
000BFB01FF5000
0007FF05FF1000
0002FF49FC0000
0000DF8CF70000
00008FDFF30000
00004FFFD00000
00000EFF900000
00000AFF500000
000005FF100000
ENDCHAR
STARTCHAR xi
ENCODING 958
SWIDTH 431 0
DWIDTH 14 0
BBX 12 29 1 -6
BITMAP
00005BDFED91
001CFFFFFFF1
00CFFE9679B0
04FFD1000000
08FF50000000
09FF20000000
07FF40000000
02FFA0000000
008FFA410000
0007EFFFFF10
0003CFFFFF10
007FFD966610
06FF90000000
0EFD00000000
4FF800000000
6FF500000000
6FF500000000
5FF800000000
2FFD00000000
0BFFA0000000
03EFFD610000
004DFFFFC710
00016CFFFFD2
00000016CFF8
000000001FFA
000000001FF7
000000007FF2
00000001EF80
000000005A00
ENDCHAR
STARTCHAR omicron
ENCODING 959
SWIDTH 501 0
DWIDTH 16 0
BBX 14 17 1 0
BITMAP
00018CEEC81000
003EFFFFFFE300
01EFFB77BFFE20
09FF800008FFA0
1FFD000000DFF1
4FF80000007FF5
7FF50000004FF7
7FF40000003FF8
8FF40000003FF8
8FF40000003FF8
7FF50000004FF7
4FF80000006FF5
1FFD000000BFF1
0AFF800005FFA0
02EFFB66AFFE20
003EFFFFFFE300
00018CEED81000
ENDCHAR
STARTCHAR pi
ENCODING 960
SWIDTH 520 0
DWIDTH 17 0
BBX 16 17 0 0
BITMAP
3FFFFFFFFFFFFFF4
3FFFFFFFFFFFFFF4
166FFC6666AFF961
001FFB00006FF500
001FFB00006FF500
001FFB00006FF500
001FFB00006FF500
001FFB00006FF500
001FFB00006FF500
001FFB00006FF500
001FFB00006FF500
001FFB00006FF500
001FFB00006FF600
001FFB00005FF700
001FFB00002FFE87
001FFB00000BFFFD
001FFB000001AEEB
ENDCHAR
STARTCHAR rho
ENCODING 961
SWIDTH 498 0
DWIDTH 16 0
BBX 13 24 2 -7
BITMAP
0004BEEC700000
007FFFFFFC1000
05FFE77CFFB000
0DFF3000BFF400
4FF900002FFA00
8FF400000CFE00
BFF1000009FF20
CFF0000008FF30
DFE0000007FF40
DFE0000007FF40
DFE0000008FF30
DFE000000BFF10
DFE000001FFD00
DFF80000AFF800
DFFFB66CFFE100
DFECFFFFFF5000
DFE18DFEA30000
DFE00000000000
DFE00000000000
DFE00000000000
DFE00000000000
DFE00000000000
DFE00000000000
DFE00000000000
ENDCHAR
STARTCHAR sigma1
ENCODING 962
SWIDTH 472 0
DWIDTH 15 0
BBX 13 23 1 -6
BITMAP
00017CFEB60000
001CFFFFFFA000
00BFFB68DFF700
05FFA0001DFE00
0CFF100007FF30
1FFB000004FF50
4FF80000002210
5FF60000000000
6FF50000000000
6FF60000000000
5FF80000000000
2FFD0000000000
0CFF8000000000
05FFF800000000
008FFFD7200000
0007FFFFFB3000
000028DFFFE200
00000003BFF700
000000002FF800
000000003FF500
000000008FE000
00000001FF6000
00000000590000
ENDCHAR
STARTCHAR sigma
ENCODING 963
SWIDTH 498 0
DWIDTH 16 0
BBX 15 17 1 0
BITMAP
00007CEFFFFFFF70
001CFFFFFFFFFF70
00CFFC77CFF76630
06FFA0000BFB0000
0CFF100002FF5000
1FFB000000BFC000
4FF80000008FF100
6FF60000007FF300
6FF60000007FF500
5FF60000007FF500
4FF80000009FF300
1FFB000000CFF100
0CFF200002FFB000
05FFA0000BFF4000
00BFFC67CFFA0000
001CFFFFFFB10000
00007CEEC6000000
ENDCHAR
STARTCHAR tau
ENCODING 964
SWIDTH 460 0
DWIDTH 15 0
BBX 13 17 1 0
BITMAP
9FFFFFFFFFFF50
9FFFFFFFFFFF50
35557FFB555520
00002FF9000000
00002FF9000000
00002FF9000000
00002FF9000000
00002FF9000000
00002FF9000000
00002FF9000000
00002FF9000000
00002FF9000000
00002FF9000000
00001FFB000000
00000EFF891000
000008FFFF6000
0000009EEB3000
ENDCHAR
STARTCHAR upsilon
ENCODING 965
SWIDTH 480 0
DWIDTH 15 0
BBX 12 17 2 0
BITMAP
DFD00006FF70
DFD00001FFD0
DFD00000CFF2
DFD000008FF6
DFD000005FF8
DFD000003FFA
DFD000000FFB
DFD000000EFC
DFD000000EFC
DFD000000FFB
DFE000003FF9
CFF000007FF6
AFF20000DFF2
6FF80008FFB0
1EFF86AFFE20
05FFFFFFE400
003AEFD92000
ENDCHAR
STARTCHAR phi
ENCODING 966
SWIDTH 617 0
DWIDTH 20 0
BBX 18 24 1 -7
BITMAP
001A20003BEEB40000
00BFB001EFFFFF8000
06FFC007FF97DFF800
0DFF3009FF201CFF30
3FFB0009FF2003FFA0
7FF70009FF2000CFE1
8FF40009FF20008FF3
9FF20009FF20006FF5
AFF20009FF20005FF6
9FF30009FF20007FF5
6FF60009FF20009FF3
3FFC0009FF2001EFE0
0DFF5009FF2009FF90
05FFE409FF208FFE20
009FFFBCFF9DFFF500
0008FFFFFFFFFE5000
000039DFFFEB610000
00000009FF20000000
00000009FF20000000
00000009FF20000000
00000009FF20000000
00000009FF20000000
00000009FF20000000
00000009FF20000000
ENDCHAR
STARTCHAR chi
ENCODING 967
SWIDTH 438 0
DWIDTH 14 0
BBX 15 24 0 -7
BITMAP
2DEB2000008FF300
3FFFD10000EFD000
18CFF90005FF7000
000CFE100BFF1000
0004FF602FFA0000
0000DFB08FF40000
00008FF2EFD00000
00003FFCFF700000
00000DFFFF200000
000007FFFB000000
000002FFF5000000
000000EFF0000000
000004FFF4000000
00000AFFF9000000
00001FFFFE000000
00007FFBFF500000
0000DFE1EFB00000
0004FF90AFF10000
000AFF304FF70000
001FFC000EFC0000
007FF60008FF5000
00DFF10002FFEA60
04FFA000008FFF50
0AFF40000008DD10
ENDCHAR
STARTCHAR psi
ENCODING 968
SWIDTH 612 0
DWIDTH 20 0
BBX 18 24 1 -7
BITMAP
9FF3000CFF000EFE00
9FF3000CFF0009FF50
9FF3000CFF0005FF90
9FF3000CFF0001FFD0
9FF3000CFF0000DFF0
9FF3000CFF0000BFF2
9FF3000CFF00009FF3
9FF3000CFF00008FF4
8FF4000CFF00008FF4
7FF5000CFF00009FF3
5FF8000CFF0000DFF1
1FFD000CFF0003FFC0
0BFF500CFF000CFF60
04FFE40CFF01AFFD10
008FFFADFF8EFFE300
0008FFFFFFFFFD3000
000039DFFFEB600000
0000000CFF00000000
0000000CFF00000000
0000000CFF00000000
0000000CFF00000000
0000000CFF00000000
0000000CFF00000000
0000000CFF00000000
ENDCHAR
STARTCHAR omega
ENCODING 969
SWIDTH 711 0
DWIDTH 23 0
BBX 20 17 1 0
BITMAP
009FF40000000009FF40
01EFE00000000004FFB0
05FF900000000000EFF1
09FF5000000000009FF5
0CFF1000033200006FF8
0FFD00001FFB00003FFA
1FFB00001FFB00001FFB
2FFA00001FFB00000EFC
2FF900001FFB00000EFC
1FFA00001FFB00000EFC
0FFB00001FFC00001FFA
0DFD00003FFD00003FF8
0AFF20006FFF10006FF5
05FF9000DFCF7000CFE1
00DFF96CFD3FF739FF80
003EFFFFF308FFFFFC10
0003AEEB30006CED8100
ENDCHAR
STARTCHAR iotadieresis
ENCODING 970
SWIDTH 299 0
DWIDTH 10 0
BBX 11 23 -1 0
BITMAP
023000003200
5FF80009FF40
8FFC000DFF80
3DE50006ED20
000000000000
000000000000
0001FFA00000
0001FFA00000
0001FFA00000
0001FFA00000
0001FFA00000
0001FFA00000
0001FFA00000
0001FFA00000
0001FFA00000
0001FFA00000
0001FFA00000
0001FFA00000
0001FFA00000
0000FFD00000
0000CFFA8200
00006FFFF300
000007EFD200
ENDCHAR
STARTCHAR upsilondieresis
ENCODING 971
SWIDTH 480 0
DWIDTH 15 0
BBX 12 23 2 0
BITMAP
023000003200
4FF90008FF50
8FFC000CFF80
2DE60005ED30
000000000000
000000000000
DFD00006FF70
DFD00001FFD0
DFD00000CFF2
DFD000008FF6
DFD000005FF8
DFD000003FFA
DFD000000FFB
DFD000000EFC
DFD000000EFC
DFD000000FFB
DFE000003FF9
CFF000007FF6
AFF20000DFF2
6FF80008FFB0
1EFF86AFFE20
05FFFFFFE400
003AEFD92000
ENDCHAR
STARTCHAR omicrontonos
ENCODING 972
SWIDTH 501 0
DWIDTH 16 0
BBX 14 24 1 0
BITMAP
0000007FF30000
000000AFC00000
000000CF700000
000000FF100000
000001BA000000
00000000000000
00000000000000
00018CEEC81000
003EFFFFFFE300
01EFFB77BFFE20
09FF800008FFA0
1FFD000000DFF1
4FF80000007FF5
7FF50000004FF7
7FF40000003FF8
8FF40000003FF8
8FF40000003FF8
7FF50000004FF7
4FF80000006FF5
1FFD000000BFF1
0AFF800005FFA0
02EFFB66AFFE20
003EFFFFFFE300
00018CEED81000
ENDCHAR
STARTCHAR upsilontonos
ENCODING 973
SWIDTH 480 0
DWIDTH 15 0
BBX 12 24 2 0
BITMAP
00000DFC0000
00001FF60000
00003FF10000
00006FA00000
00005C500000
000000000000
000000000000
DFD00006FF70
DFD00001FFD0
DFD00000CFF2
DFD000008FF6
DFD000005FF8
DFD000003FFA
DFD000000FFB
DFD000000EFC
DFD000000EFC
DFD000000FFB
DFE000003FF9
CFF000007FF6
AFF20000DFF2
6FF80008FFB0
1EFF86AFFE20
05FFFFFFE400
003AEFD92000
ENDCHAR
STARTCHAR omegatonos
ENCODING 974
SWIDTH 711 0
DWIDTH 23 0
BBX 20 24 1 0
BITMAP
0000000000EFA0000000
0000000002FF50000000
0000000005FE00000000
0000000008F900000000
0000000006D300000000
00000000000000000000
00000000000000000000
009FF40000000009FF40
01EFE00000000004FFB0
05FF900000000000EFF1
09FF5000000000009FF5
0CFF1000033200006FF8
0FFD00001FFB00003FFA
1FFB00001FFB00001FFB
2FFA00001FFB00000EFC
2FF900001FFB00000EFC
1FFA00001FFB00000EFC
0FFB00001FFC00001FFA
0DFD00003FFD00003FF8
0AFF20006FFF10006FF5
05FF9000DFCF7000CFE1
00DFF96CFD3FF739FF80
003EFFFFF308FFFFFC10
0003AEEB30006CED8100
ENDCHAR
STARTCHAR theta1
ENCODING 977
SWIDTH 507 0
DWIDTH 16 0
BBX 15 23 1 0
BITMAP
000003BEEC400000
00004FFFFFF50000
0000DFFA9FFE1000
0003FFA008FF5000
0006FF6004FF8000
0007FF5002FF9000
0006FF7002FF9000
0003FFA002FF9000
0000DFF202FF9000
00007FFC12FF9000
02210CFFD8FF9310
2FF901CFFFFFFF40
2FF90007EFFFFF50
2FF9000005FFB400
2FF9000002FF9000
2FF9000002FF9000
2FFA000003FF8000
1FFC000004FF7000
0CFF200008FF4000
07FF90002EFE1000
01DFFC78EFF70000
003EFFFFFFA00000
00018DFEC6000000
ENDCHAR
STARTCHAR Upsilon1
ENCODING 978
SWIDTH 465 0
DWIDTH 15 0
BBX 16 23 -1 0
BITMAP
1CEC300000003CEC
0EFFD1000001EFFD
08DFF7000007FFD7
001FFD00000DFE10
000AFF30004FF900
0004FF90009FF300
0000DFE101EFC000
00007FF506FF7000
00002FFB0CFF1000
00000BFF4FFA0000
000005FFEFF40000
000000EFFFD00000
0000008FFF700000
0000002FFF100000
0000000FFD000000
0000000FFD000000
0000000FFD000000
0000000FFD000000
0000000FFD000000
0000000FFD000000
0000000FFD000000
0000000FFD000000
0000000FFD000000
ENDCHAR
STARTCHAR omega1
ENCODING 982
SWIDTH 678 0
DWIDTH 22 0
BBX 20 17 1 0
BITMAP
9FFFFFFFFFFFFFFFFFFC
9FFFFFFFFFFFFFFFFFFC
48FFC6666666666EFF75
06FF80000000000AFF40
0AFF400000000006FF70
0CFF100000000003FFA0
0DFE00007FF50001FFB0
0EFC00007FF50000FFC0
0FFC00007FF50000EFD0
0EFC00007FF50000EFC0
0DFD00007FF50000FFB0
0BFF00009FF70002FF90
08FF3000CFFA0005FF60
04FF8004FDEF200AFF20
00DFF77EF79FD68FFA00
004FFFFFC01DFFFFE200
0004CED91002AEEB2000
ENDCHAR
STARTCHAR uni0400
ENCODING 1024
SWIDTH 496 0
DWIDTH 16 0
BBX 13 30 2 0
BITMAP
02EFF600000000
004FFE20000000
0006FFB0000000
00009FF6000000
00000BC9000000
00000000000000
00000000000000
8FFFFFFFFFFF80
8FFFFFFFFFFF80
8FFA7777777740
8FF50000000000
8FF50000000000
8FF50000000000
8FF50000000000
8FF50000000000
8FF50000000000
8FF50000000000
8FFFFFFFFFF500
8FFFFFFFFFF500
8FF97777777200
8FF50000000000
8FF50000000000
8FF50000000000
8FF50000000000
8FF50000000000
8FF50000000000
8FF50000000000
8FF97777777750
8FFFFFFFFFFFA0
8FFFFFFFFFFFA0
ENDCHAR
STARTCHAR uni0401
ENCODING 1025
SWIDTH 496 0
DWIDTH 16 0
BBX 13 29 2 0
BITMAP
00230000032000
05FF80009FF400
08FFC000DFF800
03DE50006ED200
00000000000000
00000000000000
8FFFFFFFFFFF80
8FFFFFFFFFFF80
8FFA7777777740
8FF50000000000
8FF50000000000
8FF50000000000
8FF50000000000
8FF50000000000
8FF50000000000
8FF50000000000
8FFFFFFFFFF500
8FFFFFFFFFF500
8FF97777777200
8FF50000000000
8FF50000000000
8FF50000000000
8FF50000000000
8FF50000000000
8FF50000000000
8FF50000000000
8FF97777777750
8FFFFFFFFFFFA0
8FFFFFFFFFFFA0
ENDCHAR
STARTCHAR uni0402
ENCODING 1026
SWIDTH 650 0
DWIDTH 21 0
BBX 20 23 0 0
BITMAP
3FFFFFFFFFFFFFFA0000
3FFFFFFFFFFFFFFA0000
177777EFF77777750000
000000DFF10000000000
000000DFF10000000000
000000DFF10000000000
000000DFF10000000000
000000DFF10000000000
000000DFF10000000000
000000DFF7ADFEC81000
000000DFFFFFFFFFE500
000000DFFFDBABEFFF30
000000DFF300001AFFC0
000000DFF1000000DFF3
000000DFF10000008FF6
000000DFF10000006FF7
000000DFF10000005FF8
000000DFF10000007FF6
000000DFF1000000BFF3
000000DFF1000004FFD0
000000DFF100169FFF50
000000DFF1002FFFF700
000000DFF1001ED93000
ENDCHAR
STARTCHAR uni0403
ENCODING 1027
SWIDTH 487 0
DWIDTH 16 0
BBX 13 30 2 0
BITMAP
00000006FFE200
0000002EFF4000
000000BFF60000
000006FF800000
000008DA000000
00000000000000
00000000000000
6FFFFFFFFFFF60
6FFFFFFFFFFF60
6FFB7777777730
6FF70000000000
6FF70000000000
6FF70000000000
6FF70000000000
6FF70000000000
6FF70000000000
6FF70000000000
6FF70000000000
6FF70000000000
6FF70000000000
6FF70000000000
6FF70000000000
6FF70000000000
6FF70000000000
6FF70000000000
6FF70000000000
6FF70000000000
6FF70000000000
6FF70000000000
6FF70000000000
ENDCHAR
STARTCHAR uni0404
ENCODING 1028
SWIDTH 589 0
DWIDTH 19 0
BBX 16 23 1 0
BITMAP
000004ADFEC71000
0000AFFFFFFFD300
000BFFEA88DFFE10
007FFC200009FFA0
01EFE2000000DFF2
05FF800000008FF6
09FF300000004FF9
0DFF000000001886
0FFD000000000000
1FFC000000000000
2FFFFFFFFFF10000
2FFFFFFFFFF10000
2FFD777777700000
1FFC000000000000
0FFD000000000000
0DFF000000001775
0AFF300000004FF9
06FF800000008FF6
01EFE2000000DFF2
007FFC100009FFA0
000BFFE978DFFE10
0001AFFFFFFFD300
000005BEFEB60000
ENDCHAR
STARTCHAR uni0405
ENCODING 1029
SWIDTH 518 0
DWIDTH 17 0
BBX 15 23 1 0
BITMAP
00006BEFDA500000
002CFFFFFFFB1000
01DFFE979EFFB000
08FFB10001BFF700
0DFF2000002FFD00
0FFE0000000BFF20
1FFD00000009DD30
0EFF200000000000
09FFD20000000000
01EFFE8100000000
003DFFFFA5000000
00019FFFFFD40000
0000027DFFFF7000
000000004CFFF500
00000000009FFC00
00000000000DFF20
8EE30000000AFF40
8FF60000000AFF40
3FFB0000000DFF10
0CFF8000008FFC00
02EFFD979DFFF300
003CFFFFFFFE5000
00005BDFEC810000
ENDCHAR
STARTCHAR uni0406
ENCODING 1030
SWIDTH 250 0
DWIDTH 8 0
BBX 4 23 2 0
BITMAP
6FF7
6FF7
6FF7
6FF7
6FF7
6FF7
6FF7
6FF7
6FF7
6FF7
6FF7
6FF7
6FF7
6FF7
6FF7
6FF7
6FF7
6FF7
6FF7
6FF7
6FF7
6FF7
6FF7
ENDCHAR
STARTCHAR uni0407
ENCODING 1031
SWIDTH 250 0
DWIDTH 8 0
BBX 11 29 -1 0
BITMAP
142000014100
BFE2001EFC00
FFF5004FFF10
8EC1001BE900
000000000000
000000000000
0006FF700000
0006FF700000
0006FF700000
0006FF700000
0006FF700000
0006FF700000
0006FF700000
0006FF700000
0006FF700000
0006FF700000
0006FF700000
0006FF700000
0006FF700000
0006FF700000
0006FF700000
0006FF700000
0006FF700000
0006FF700000
0006FF700000
0006FF700000
0006FF700000
0006FF700000
0006FF700000
ENDCHAR
STARTCHAR uni0408
ENCODING 1032
SWIDTH 483 0
DWIDTH 15 0
BBX 13 23 1 0
BITMAP
000000000BFF30
000000000BFF30
000000000BFF30
000000000BFF30
000000000BFF30
000000000BFF30
000000000BFF30
000000000BFF30
000000000BFF30
000000000BFF30
000000000BFF30
000000000BFF30
000000000BFF30
000000000BFF30
000000000BFF30
000000000BFF30
997000000BFF20
FFE000000DFF10
DFF300003FFD00
8FFB0000BFF800
1EFFC88DFFE100
04EFFFFFFE3000
0018DEED810000
ENDCHAR
STARTCHAR uni0409
ENCODING 1033
SWIDTH 923 0
DWIDTH 30 0
BBX 29 23 0 0
BITMAP
00000EFFFFFFFFFFF2000000000000
00000FFFFFFFFFFFF2000000000000
00000FFE777777DFF2000000000000
00001FFC000000BFF2000000000000
00001FFB000000BFF2000000000000
00002FFB000000BFF2000000000000
00002FFA000000BFF2000000000000
00003FFA000000BFF2000000000000
00003FF9000000BFF2000000000000
00004FF9000000BFFFFFFFEB610000
00004FF8000000BFFFFFFFFFFC2000
00005FF8000000BFF877779DFFD000
00005FF7000000BFF2000001CFF700
00006FF6000000BFF20000003FFD00
00007FF5000000BFF20000000CFF10
00008FF3000000BFF20000000AFF30
0000AFF1000000BFF20000000AFF30
0000DFE0000000BFF20000000CFF20
0003FFB0000000BFF20000003FFD00
000AFF60000000BFF2000001CFF800
08CFFE10000000BFF877778DFFD100
1FFFF400000000BFFFFFFFFFFD2000
1FEB3000000000BFFFFFFFEC710000
ENDCHAR
STARTCHAR uni040A
ENCODING 1034
SWIDTH 927 0
DWIDTH 30 0
BBX 27 23 2 0
BITMAP
6FF700000000AFF4000000000000
6FF700000000AFF4000000000000
6FF700000000AFF4000000000000
6FF700000000AFF4000000000000
6FF700000000AFF4000000000000
6FF700000000AFF4000000000000
6FF700000000AFF4000000000000
6FF700000000AFF4000000000000
6FF700000000AFF4000000000000
6FF700000000AFF4000000000000
6FFFFFFFFFFFFFFFFFFFEC820000
6FFFFFFFFFFFFFFFFFFFFFFE5000
6FFB77777777CFF977778CFFF300
6FF700000000AFF40000009FFB00
6FF700000000AFF40000001EFF10
6FF700000000AFF40000000AFF40
6FF700000000AFF400000009FF50
6FF700000000AFF40000000AFF40
6FF700000000AFF40000001EFF10
6FF700000000AFF4000001BFFA00
6FF700000000AFFA9999AEFFE200
6FF700000000AFFFFFFFFFFE4000
6FF700000000AFFFFFFFEC810000
ENDCHAR
STARTCHAR uni040B
ENCODING 1035
SWIDTH 705 0
DWIDTH 23 0
BBX 19 23 1 0
BITMAP
CFFFFFFFFFFFFFF00000
CFFFFFFFFFFFFFF00000
67777CFF977777700000
00000AFF400000000000
00000AFF400000000000
00000AFF400000000000
00000AFF400000000000
00000AFF400000000000
00000AFF400000000000
00000AFF9BDEFEC71000
00000AFFFFFFFFFFD300
00000AFFFC9879DFFD10
00000AFF4000001BFF60
00000AFF40000004FFB0
00000AFF40000000FFD0
00000AFF40000000EFE0
00000AFF40000000EFF0
00000AFF40000000EFF0
00000AFF40000000EFF0
00000AFF40000000EFF0
00000AFF40000000EFF0
00000AFF40000000EFF0
00000AFF40000000EFF0
ENDCHAR
STARTCHAR uni040C
ENCODING 1036
SWIDTH 544 0
DWIDTH 17 0
BBX 16 30 2 0
BITMAP
0000000AFFB00000
0000005FFD100000
000001EFE2000000
00000AFF40000000
00002AD600000000
0000000000000000
0000000000000000
8FF50000002EFF60
8FF5000000BFFA00
8FF5000007FFD100
8FF500003FFF3000
8FF50001DFF70000
8FF50009FFB00000
8FF5005FFE100000
8FF502EFF4000000
8FF50BFF80000000
8FF57FFC00000000
8FF8FFF900000000
8FFFFFFF30000000
8FFFFBFFC0000000
8FFFA0CFF7000000
8FFC103FFE200000
8FF50009FFA00000
8FF50001EFF50000
8FF500006FFD1000
8FF500000CFF8000
8FF5000003FFF300
8FF50000009FFC00
8FF50000001EFF60
8FF500000006FFE1
ENDCHAR
STARTCHAR uni040D
ENCODING 1037
SWIDTH 619 0
DWIDTH 20 0
BBX 16 30 2 0
BITMAP
0008FFD100000000
0000BFF800000000
00001DFF40000000
000003EFD1000000
0000005EB4000000
0000000000000000
0000000000000000
6FF700000001EFF3
6FF700000007FFF3
6FF70000001EFFF3
6FF70000007FFFF3
6FF7000001EFFFF3
6FF7000007FFDFF3
6FF700001EFBAFF3
6FF700007FF3AFF3
6FF70001EFB0AFF3
6FF70007FF30AFF3
6FF7001EFB00AFF3
6FF7007FF300AFF3
6FF701EFB000AFF3
6FF707FF3000AFF3
6FF71EFB0000AFF3
6FF77FF30000AFF3
6FF7EFB00000AFF3
6FFDFF300000AFF3
6FFFFB000000AFF3
6FFFF3000000AFF3
6FFFB0000000AFF3
6FFF30000000AFF3
6FFB00000000AFF3
ENDCHAR
STARTCHAR uni040E
ENCODING 1038
SWIDTH 547 0
DWIDTH 18 0
BBX 16 28 1 0
BITMAP
000BD70000CD6000
0009FE3007FF3000
0002DFFEEFF90000
000018DFEC600000
0000000000000000
6FFC00000001FFF3
1EFF20000006FFD0
0AFF7000000BFF80
04FFD000001FFF30
00DFF300005FFD00
008FF80000AFF700
002FFD0000EFF200
000CFF3005FFC000
0006FF9009FF7000
0001FFE00EFF2000
0000AFF44FFC0000
00004FF99FF60000
00000EFEEFF10000
000008FFFFB00000
000003FFFF600000
000000CFFF100000
0000007FFA000000
0000008FF5000000
000000DFE1000000
000005FF90000000
00178EFF20000000
002FFFF700000000
002EFC6000000000
ENDCHAR
STARTCHAR uni040F
ENCODING 1039
SWIDTH 621 0
DWIDTH 20 0
BBX 16 29 2 -6
BITMAP
6FF700000000AFF3
6FF700000000AFF3
6FF700000000AFF3
6FF700000000AFF3
6FF700000000AFF3
6FF700000000AFF3
6FF700000000AFF3
6FF700000000AFF3
6FF700000000AFF3
6FF700000000AFF3
6FF700000000AFF3
6FF700000000AFF3
6FF700000000AFF3
6FF700000000AFF3
6FF700000000AFF3
6FF700000000AFF3
6FF700000000AFF3
6FF700000000AFF3
6FF700000000AFF3
6FF700000000AFF3
6FFB77777777CFF3
6FFFFFFFFFFFFFF3
6FFFFFFFFFFFFFF3
0000007FF7000000
0000007FF7000000
0000007FF7000000
0000007FF7000000
0000007FF7000000
0000007FF7000000
ENDCHAR
STARTCHAR uni0410
ENCODING 1040
SWIDTH 576 0
DWIDTH 18 0
BBX 18 23 0 0
BITMAP
00000002FF90000000
00000007FFE0000000
0000000CFFF4000000
0000002FFFF9000000
0000007FFBFD000000
000000BFC5FF300000
000001FF71FF800000
000006FF20BFD00000
00000BFD006FF20000
00001FF8001FF70000
00005FF3000CFC0000
0000AFD00007FF2000
0000EF900002FF7000
0005FF400000CFB000
0009FFFFFFFFFFF100
000EFFFFFFFFFFF600
004FF97777777EFB00
009FF10000000AFF10
00DFC000000006FF50
03FF8000000002FFA0
08FF4000000000CFE1
0DFF10000000008FF5
3FFB00000000004FFA
ENDCHAR
STARTCHAR uni0411
ENCODING 1041
SWIDTH 549 0
DWIDTH 18 0
BBX 15 23 2 0
BITMAP
AFFFFFFFFFFF3000
AFFFFFFFFFFF3000
AFF9777777771000
AFF4000000000000
AFF4000000000000
AFF4000000000000
AFF4000000000000
AFF4000000000000
AFF4000000000000
AFFFFFFFEC810000
AFFFFFFFFFFE4000
AFF977778DFFE200
AFF4000000AFFA00
AFF40000001EFF10
AFF40000000BFF40
AFF400000009FF50
AFF400000009FF50
AFF40000000BFF30
AFF40000002FFF00
AFF4000000BFF900
AFF977778DFFE200
AFFFFFFFFFFE3000
AFFFFFFFEC710000
ENDCHAR
STARTCHAR uni0412
ENCODING 1042
SWIDTH 545 0
DWIDTH 17 0
BBX 14 23 2 0
BITMAP
8FFFFFFEDA3000
8FFFFFFFFFF700
8FFA7778CFFF40
8FF5000007FFB0
8FF5000000EFF1
8FF5000000BFF2
8FF5000000BFF2
8FF5000000EFF0
8FF5000005FFA0
8FF500016EFE20
8FFFFFFFFFD300
8FFFFFFFFFC400
8FF966669EFF40
8FF5000002EFE0
8FF50000008FF5
8FF50000005FF8
8FF50000004FF9
8FF50000006FF8
8FF5000000AFF6
8FF5000004FFF1
8FF97777AFFF80
8FFFFFFFFFF900
8FFFFFFFDA4000
ENDCHAR
STARTCHAR uni0413
ENCODING 1043
SWIDTH 487 0
DWIDTH 16 0
BBX 13 23 2 0
BITMAP
6FFFFFFFFFFF60
6FFFFFFFFFFF60
6FFB7777777730
6FF70000000000
6FF70000000000
6FF70000000000
6FF70000000000
6FF70000000000
6FF70000000000
6FF70000000000
6FF70000000000
6FF70000000000
6FF70000000000
6FF70000000000
6FF70000000000
6FF70000000000
6FF70000000000
6FF70000000000
6FF70000000000
6FF70000000000
6FF70000000000
6FF70000000000
6FF70000000000
ENDCHAR
STARTCHAR uni0414
ENCODING 1044
SWIDTH 660 0
DWIDTH 21 0
BBX 21 29 0 -6
BITMAP
000006FFFFFFFFFFF60000
000006FFFFFFFFFFF60000
000007FFA77777BFF60000
000008FF6000007FF60000
000008FF5000007FF60000
000009FF4000007FF60000
00000AFF4000007FF60000
00000AFF3000007FF60000
00000BFF2000007FF60000
00000CFF2000007FF60000
00000DFF1000007FF60000
00000EFE0000007FF60000
00001FFD0000007FF60000
00002FFB0000007FF60000
00005FF80000007FF60000
00008FF60000007FF60000
0000BFF20000007FF60000
0001FFD00000007FF60000
0006FF800000007FF60000
000CFF200000007FF60000
179FFD77777777BFFA7700
2FFFFFFFFFFFFFFFFFFF10
2FFFFFFFFFFFFFFFFFFF10
2FFB0000000000000CFF10
2FFB0000000000000CFF10
2FFB0000000000000CFF10
2FFB0000000000000CFF10
2FFB0000000000000CFF10
2FFB0000000000000CFF10
ENDCHAR
STARTCHAR uni0415
ENCODING 1045
SWIDTH 496 0
DWIDTH 16 0
BBX 13 23 2 0
BITMAP
8FFFFFFFFFFF80
8FFFFFFFFFFF80
8FFA7777777740
8FF50000000000
8FF50000000000
8FF50000000000
8FF50000000000
8FF50000000000
8FF50000000000
8FF50000000000
8FFFFFFFFFF500
8FFFFFFFFFF500
8FF97777777200
8FF50000000000
8FF50000000000
8FF50000000000
8FF50000000000
8FF50000000000
8FF50000000000
8FF50000000000
8FF97777777750
8FFFFFFFFFFFA0
8FFFFFFFFFFFA0
ENDCHAR
STARTCHAR uni0416
ENCODING 1046
SWIDTH 791 0
DWIDTH 25 0
BBX 25 23 0 0
BITMAP
08FFC0000009FF4000004FFF20
01EFF4000009FF400000BFF800
007FFB000009FF400003FFE100
001DFF300009FF40000AFF7000
0006FFA00009FF40002FFD1000
0000DFF20009FF40009FF60000
00005FF90009FF4002FFD00000
00000CFF2009FF4008FF500000
000004FF9009FF401EFC000000
000000BFE109FF408FF4000000
0000003FFFFFFFFFFFB0000000
0000006FFFFFFFFFFFD0000000
000000DFF98CFFA8CFF7000000
000006FFC009FF404FFE100000
00000DFF5009FF400CFF700000
00007FFD0009FF4005FFE10000
0001EFF50009FF4000CFF80000
0007FFD00009FF40005FFE1000
001EFF600009FF40000DFF8000
008FFD000009FF400006FFE100
01EFF7000009FF400000DFF800
08FFE1000009FF4000006FFF20
1EFF70000009FF4000001EFF90
ENDCHAR
STARTCHAR uni0417
ENCODING 1047
SWIDTH 517 0
DWIDTH 17 0
BBX 15 23 1 0
BITMAP
00018CEFDA500000
004EFFFFFFFB1000
03FFFC88AFFFB000
0CFF900003EFF500
3FFD0000005FFA00
5FF80000001FFC00
13310000000FFD00
00000000003FFB00
00000000009FF500
0000000039FFB000
00000CFFFFFA1000
00000CFFFFF70000
00000677AEFFB000
0000000001BFF700
00000000002FFD00
00000000000CFF10
58810000000BFF20
9FF40000000CFF10
6FFA0000003FFD00
1EFF600002DFF700
06FFFC77AEFFC100
007FFFFFFFFB1000
00028CEFDA500000
ENDCHAR
STARTCHAR uni0418
ENCODING 1048
SWIDTH 619 0
DWIDTH 20 0
BBX 16 23 2 0
BITMAP
6FF700000001EFF3
6FF700000007FFF3
6FF70000001EFFF3
6FF70000007FFFF3
6FF7000001EFFFF3
6FF7000007FFDFF3
6FF700001EFBAFF3
6FF700007FF3AFF3
6FF70001EFB0AFF3
6FF70007FF30AFF3
6FF7001EFB00AFF3
6FF7007FF300AFF3
6FF701EFB000AFF3
6FF707FF3000AFF3
6FF71EFB0000AFF3
6FF77FF30000AFF3
6FF7EFB00000AFF3
6FFDFF300000AFF3
6FFFFB000000AFF3
6FFFF3000000AFF3
6FFFB0000000AFF3
6FFF30000000AFF3
6FFB00000000AFF3
ENDCHAR
STARTCHAR uni0419
ENCODING 1049
SWIDTH 619 0
DWIDTH 20 0
BBX 16 28 2 0
BITMAP
0009D90000BD7000
0007FE4005FF5000
0001CFFEEFFB0000
000018DFEC700000
0000000000000000
6FF700000001EFF3
6FF700000007FFF3
6FF70000001EFFF3
6FF70000007FFFF3
6FF7000001EFFFF3
6FF7000007FFDFF3
6FF700001EFBAFF3
6FF700007FF3AFF3
6FF70001EFB0AFF3
6FF70007FF30AFF3
6FF7001EFB00AFF3
6FF7007FF300AFF3
6FF701EFB000AFF3
6FF707FF3000AFF3
6FF71EFB0000AFF3
6FF77FF30000AFF3
6FF7EFB00000AFF3
6FFDFF300000AFF3
6FFFFB000000AFF3
6FFFF3000000AFF3
6FFFB0000000AFF3
6FFF30000000AFF3
6FFB00000000AFF3
ENDCHAR
STARTCHAR uni041A
ENCODING 1050
SWIDTH 560 0
DWIDTH 18 0
BBX 16 23 2 0
BITMAP
6FF70000000BFFC0
6FF70000005FFF30
6FF7000001EFF800
6FF700000AFFD000
6FF700004FFF3000
6FF70001DFF80000
6FF70008FFD10000
6FF7003FFF400000
6FF700CFF9000000
6FF707FFD1000000
6FFFFFFF40000000
6FFFFFFF40000000
6FFB89FFD1000000
6FF700BFF9000000
6FF7002FFF300000
6FF70008FFD00000
6FF70000DFF80000
6FF700004FFF3000
6FF7000009FFC000
6FF7000001EFF700
6FF70000006FFE20
6FF70000000BFFB0
6FF700000002FFF6
ENDCHAR
ENDFONT
